<svg width="16" height="16" viewBox="0 0 16 16" fill="none" xmlns="http://www.w3.org/2000/svg">
<path d="M8.68182 1.18182C8.68182 1.00099 8.60998 0.827566 8.48212 0.6997C8.35425 0.571834 8.18083 0.5 8 0.5C7.81917 0.5 7.64575 0.571834 7.51788 0.6997C7.39002 0.827566 7.31818 1.00099 7.31818 1.18182V7.31818H1.18182C1.00099 7.31818 0.827566 7.39002 0.6997 7.51788C0.571834 7.64575 0.5 7.81917 0.5 8C0.5 8.18083 0.571834 8.35425 0.6997 8.48212C0.827566 8.60998 1.00099 8.68182 1.18182 8.68182H7.31818V14.8182C7.31818 14.999 7.39002 15.1724 7.51788 15.3003C7.64575 15.4282 7.81917 15.5 8 15.5C8.18083 15.5 8.35425 15.4282 8.48212 15.3003C8.60998 15.1724 8.68182 14.999 8.68182 14.8182V8.68182H14.8182C14.999 8.68182 15.1724 8.60998 15.3003 8.48212C15.4282 8.35425 15.5 8.18083 15.5 8C15.5 7.81917 15.4282 7.64575 15.3003 7.51788C15.1724 7.39002 14.999 7.31818 14.8182 7.31818H8.68182V1.18182Z" fill="currentColor"/>
</svg>
