<svg width="16" height="16" viewBox="0 0 16 16" fill="none" xmlns="http://www.w3.org/2000/svg">
<path d="M0 8C0 3.58172 3.58172 0 8 0C12.4183 0 16 3.58172 16 8C16 12.4183 12.4183 16 8 16C3.58172 16 0 12.4183 0 8Z" fill="#DA5F5B"/>
<path d="M4.25966 4.25966L4.15833 4.3841C4.03979 4.55512 3.98501 4.7623 4.00353 4.96955C4.02204 5.17681 4.11268 5.371 4.25966 5.51829L6.74315 8L4.25966 10.4817L4.15833 10.6062C4.03979 10.7772 3.98501 10.9843 4.00353 11.1916C4.02204 11.3989 4.11268 11.593 4.25966 11.7403L4.3841 11.8417C4.55512 11.9602 4.7623 12.015 4.96955 11.9965C5.17681 11.978 5.371 11.8873 5.51829 11.7403L8 9.25685L10.4817 11.7403L10.6062 11.8417C10.7772 11.9602 10.9843 12.015 11.1916 11.9965C11.3989 11.978 11.593 11.8873 11.7403 11.7403L11.8417 11.6159C11.9602 11.4449 12.015 11.2377 11.9965 11.0304C11.978 10.8232 11.8873 10.629 11.7403 10.4817L9.25685 8L11.7403 5.51829L11.8417 5.39385C11.9602 5.22283 12.015 5.01565 11.9965 4.8084C11.978 4.60114 11.8873 4.40695 11.7403 4.25966L11.6159 4.15833C11.4449 4.03979 11.2377 3.98501 11.0304 4.00353C10.8232 4.02204 10.629 4.11268 10.4817 4.25966L8 6.74315L5.51829 4.25966L5.39385 4.15833C5.22283 4.03979 5.01565 3.98501 4.8084 4.00353C4.60114 4.02204 4.40695 4.11268 4.25966 4.25966Z" fill="white"/>
</svg>
