<svg width="16" height="16" viewBox="0 0 16 16" fill="none" xmlns="http://www.w3.org/2000/svg">
<path d="M0 8C0 3.58172 3.58172 0 8 0C12.4183 0 16 3.58172 16 8C16 12.4183 12.4183 16 8 16C3.58172 16 0 12.4183 0 8Z" fill="#71C879"/>
<path d="M11.5688 5.24509L6.76675 10.0027L4.43098 7.69496L4.31385 7.60074C4.14208 7.48286 3.93185 7.43282 3.72458 7.46049C3.51732 7.48815 3.32807 7.59152 3.19411 7.7502C3.06016 7.90889 2.99123 8.11139 3.0009 8.31781C3.01057 8.52422 3.09814 8.71956 3.24636 8.86535L6.17444 11.7582L6.29157 11.8541C6.4529 11.9639 6.64813 12.0143 6.84321 11.9965C7.03829 11.9787 7.22085 11.8938 7.35907 11.7566L12.7534 6.41382L12.8505 6.29811C12.9699 6.12823 13.0206 5.92028 12.9924 5.71532C12.9642 5.51036 12.8593 5.32329 12.6983 5.19103C12.5373 5.05878 12.332 4.99096 12.1229 5.00097C11.9138 5.01098 11.7161 5.09808 11.5688 5.24509Z" fill="white"/>
</svg>
