<svg width="16" height="16" viewBox="0 0 16 16" fill="none" xmlns="http://www.w3.org/2000/svg">
<path d="M0 8C0 3.58172 3.58172 0 8 0C12.4183 0 16 3.58172 16 8C16 12.4183 12.4183 16 8 16C3.58172 16 0 12.4183 0 8Z" fill="#F7BA40"/>
<path d="M8.53804 6.34699H9.33352C9.44381 6.34707 9.55236 6.37622 9.64946 6.43181C9.74655 6.48741 9.82915 6.56772 9.88986 6.66555C9.95057 6.76339 9.9875 6.87569 9.99734 6.99241C10.0072 7.10912 9.98962 7.22661 9.94624 7.33435L8.18544 11.7009C8.14293 11.8055 8.06782 11.8913 7.97276 11.9439C7.87769 11.9966 7.76846 12.0128 7.66345 11.9899C7.55845 11.967 7.46407 11.9063 7.3962 11.8182C7.32833 11.73 7.29111 11.6197 7.29081 11.5058V8.23667L6.64474 8.21542C6.47173 8.20928 6.30774 8.13193 6.18743 7.99969C6.06711 7.86746 5.9999 7.6907 6 7.50678V4.70863C6 4.52069 6.07027 4.34045 6.19535 4.20755C6.32043 4.07466 6.49008 4 6.66697 4H7.87107C8.04796 4 8.21761 4.07466 8.34269 4.20755C8.46777 4.34045 8.53804 4.52069 8.53804 4.70863V6.34699Z" fill="white"/>
</svg>
