<svg width="11" height="12" viewBox="0 0 11 12" fill="none" xmlns="http://www.w3.org/2000/svg">
<path d="M4.50069 11.4999C4.50069 11.6325 4.55336 11.7597 4.64713 11.8535C4.7409 11.9472 4.86808 11.9999 5.00069 11.9999C5.13329 11.9999 5.26047 11.9472 5.35424 11.8535C5.44801 11.7597 5.50069 11.6325 5.50069 11.4999V1.80291L9.12869 5.83391C9.17222 5.88393 9.22527 5.9248 9.28474 5.95412C9.34422 5.98345 9.40893 6.00065 9.47512 6.00473C9.54131 6.00881 9.60765 5.99967 9.67027 5.97787C9.7329 5.95607 9.79056 5.92202 9.8399 5.87772C9.88924 5.83342 9.92928 5.77974 9.95768 5.71982C9.98608 5.65989 10.0023 5.59492 10.0053 5.52868C10.0084 5.46244 9.99823 5.39625 9.97545 5.33397C9.95268 5.27169 9.91775 5.21456 9.87269 5.16591L5.37268 0.16591C5.32579 0.113698 5.26844 0.071942 5.20435 0.0433574C5.14025 0.0147727 5.07086 0 5.00069 0C4.93051 0 4.86112 0.0147727 4.79702 0.0433574C4.73293 0.071942 4.67558 0.113698 4.62868 0.16591L0.128685 5.16591C0.0425124 5.26493 -0.00126425 5.39387 0.00680602 5.52489C0.0148763 5.6559 0.0741462 5.77849 0.17182 5.86619C0.269494 5.95389 0.397738 5.99966 0.528865 5.99362C0.659993 5.98758 0.783486 5.93021 0.872685 5.83391L4.50069 1.80291V11.4999Z" fill="currentColor"/>
</svg>
