<svg width="16" height="16" viewBox="0 0 16 16" fill="none" xmlns="http://www.w3.org/2000/svg">
<path d="M1.75 8C1.75 6.68823 2.16274 5.40972 2.92974 4.34556C3.69674 3.2814 4.77913 2.48555 6.02358 2.07073C7.26803 1.65591 8.61145 1.64316 9.86355 2.03429C11.1157 2.42542 12.2129 3.20059 13 4.25H9.875C9.70924 4.25 9.55027 4.31585 9.43306 4.43306C9.31585 4.55027 9.25 4.70924 9.25 4.875C9.25 5.04076 9.31585 5.19973 9.43306 5.31694C9.55027 5.43415 9.70924 5.5 9.875 5.5H13.625C13.7908 5.5 13.9497 5.43415 14.0669 5.31694C14.1842 5.19973 14.25 5.04076 14.25 4.875V4.05375V1.125C14.25 0.95924 14.1842 0.800269 14.0669 0.683058C13.9497 0.565848 13.7908 0.5 13.625 0.5C13.4592 0.5 13.3003 0.565848 13.1831 0.683058C13.0659 0.800269 13 0.95924 13 1.125V2.41C11.72 1.26516 10.086 0.594243 8.37081 0.509342C6.65565 0.424441 4.9633 0.9307 3.57653 1.94353C2.18976 2.95636 1.19256 4.41442 0.751544 6.07408C0.310532 7.73375 0.452422 9.49448 1.15351 11.0621C1.85459 12.6297 3.07241 13.9093 4.60347 14.687C6.13453 15.4647 7.88611 15.6934 9.56554 15.335C11.245 14.9765 12.7505 14.0526 13.8306 12.7175C14.9108 11.3825 15.5 9.71726 15.5 8C15.5 7.83424 15.4342 7.67527 15.3169 7.55806C15.1997 7.44085 15.0408 7.375 14.875 7.375C14.7092 7.375 14.5503 7.44085 14.4331 7.55806C14.3159 7.67527 14.25 7.83424 14.25 8C14.25 9.6576 13.5915 11.2473 12.4194 12.4194C11.2473 13.5915 9.65761 14.25 8 14.25C6.3424 14.25 4.75269 13.5915 3.58059 12.4194C2.40848 11.2473 1.75 9.6576 1.75 8Z" fill="currentColor"/>
</svg>
