<svg width="12" height="13" viewBox="0 0 12 13" fill="none" xmlns="http://www.w3.org/2000/svg">
<path d="M10.8934 3.23836C11.4225 3.79261 11.7813 4.48717 11.927 5.23942C12.0728 5.99167 11.9994 6.76996 11.7156 7.48172C11.4319 8.19348 10.9496 8.80875 10.3263 9.25436C9.70293 9.69997 8.96472 9.95717 8.19942 9.99536L8.00042 10.0004L4.70742 9.99936L5.85542 11.1484C5.93825 11.2311 5.98942 11.3403 6.00002 11.4568C6.01062 11.5734 5.97997 11.69 5.91342 11.7864L5.85542 11.8554C5.77269 11.9382 5.66352 11.9894 5.54693 12C5.43035 12.0106 5.31374 11.9799 5.21742 11.9134L5.14842 11.8554L3.14642 9.85336C3.06375 9.7705 3.01276 9.66127 3.00235 9.54468C2.99193 9.4281 3.02275 9.31156 3.08942 9.21536L3.14642 9.14636L5.14842 7.14436C5.23661 7.05577 5.35478 7.00343 5.47965 6.99765C5.60451 6.99187 5.72701 7.03307 5.82301 7.11313C5.919 7.19319 5.98153 7.3063 5.99826 7.43017C6.015 7.55405 5.98473 7.67969 5.91342 7.78236L5.85542 7.85236L4.70742 8.99936H8.00042C8.76547 8.99941 9.50164 8.70719 10.0584 8.18244C10.6151 7.65769 10.9503 6.94007 10.9954 6.17636L11.0004 6.00036C11.0016 5.21057 10.6903 4.45239 10.1344 3.89136C10.0432 3.79901 9.99141 3.67479 9.99009 3.54497C9.98878 3.41515 10.038 3.2899 10.1274 3.19573C10.2168 3.10156 10.3392 3.04584 10.469 3.04035C10.5987 3.03487 10.7254 3.08006 10.8224 3.16636L10.8944 3.23836H10.8934ZM6.78442 0.0873566L6.85442 0.144357L8.85542 2.14636L8.91342 2.21636C8.97105 2.29985 9.00191 2.39891 9.00191 2.50036C9.00191 2.60181 8.97105 2.70086 8.91342 2.78436L8.85542 2.85436L6.85442 4.85536L6.78442 4.91336C6.70093 4.97098 6.60187 5.00184 6.50042 5.00184C6.39897 5.00184 6.29992 4.97098 6.21642 4.91336L6.14642 4.85536L6.08942 4.78536C6.0318 4.70186 6.00094 4.60281 6.00094 4.50136C6.00094 4.39991 6.0318 4.30085 6.08942 4.21736L6.14642 4.14736L7.29442 3.00036H4.00042C3.23521 3.00031 2.49891 3.29268 1.94216 3.81764C1.38542 4.3426 1.05032 5.06046 1.00542 5.82436L1.00042 6.00036C1.00042 6.82036 1.32942 7.56236 1.86142 8.10436C1.94567 8.20055 1.98986 8.32536 1.9849 8.45313C1.97995 8.58091 1.92624 8.70192 1.8348 8.79131C1.74337 8.8807 1.62116 8.93165 1.49331 8.93371C1.36546 8.93576 1.24168 8.88876 1.14742 8.80236C0.607458 8.25228 0.237926 7.55791 0.0832824 6.80278C-0.071361 6.04764 -0.00452897 5.26391 0.275739 4.54586C0.556007 3.82782 1.03777 3.20604 1.66308 2.75533C2.28838 2.30463 3.0306 2.04419 3.80042 2.00536L4.00042 2.00036L7.29442 1.99936L6.14642 0.852357L6.08942 0.782357C6.02356 0.686107 5.99342 0.569863 6.00421 0.453739C6.015 0.337614 6.06605 0.228914 6.14851 0.146447C6.23098 0.063981 6.33968 0.0129363 6.4558 0.00214557C6.57193 -0.00864511 6.68817 0.021497 6.78442 0.0873566Z" fill="currentColor"/>
</svg>
