<svg width="16" height="16" viewBox="0 0 16 16" fill="none" xmlns="http://www.w3.org/2000/svg">
<path d="M14.25 8C14.25 6.68823 13.8373 5.40972 13.0703 4.34556C12.3033 3.2814 11.2209 2.48555 9.97642 2.07073C8.73197 1.65591 7.38855 1.64316 6.13645 2.03429C4.88435 2.42542 3.78705 3.20059 2.99999 4.25H6.12499C6.29075 4.25 6.44973 4.31585 6.56694 4.43306C6.68415 4.55027 6.74999 4.70924 6.74999 4.875C6.74999 5.04076 6.68415 5.19973 6.56694 5.31694C6.44973 5.43415 6.29075 5.5 6.12499 5.5H2.37499C2.20923 5.5 2.05026 5.43415 1.93305 5.31694C1.81584 5.19973 1.74999 5.04076 1.74999 4.875V4.05375V1.125C1.74999 0.95924 1.81584 0.800269 1.93305 0.683058C2.05026 0.565848 2.20923 0.5 2.37499 0.5C2.54075 0.5 2.69973 0.565848 2.81694 0.683058C2.93415 0.800269 2.99999 0.95924 2.99999 1.125V2.41C4.27996 1.26516 5.91404 0.594243 7.62919 0.509342C9.34435 0.424441 11.0367 0.9307 12.4235 1.94353C13.8102 2.95636 14.8074 4.41442 15.2485 6.07408C15.6895 7.73375 15.5476 9.49448 14.8465 11.0621C14.1454 12.6297 12.9276 13.9093 11.3965 14.687C9.86547 15.4647 8.11389 15.6934 6.43446 15.335C4.75503 14.9765 3.24948 14.0526 2.16935 12.7175C1.08923 11.3825 0.499955 9.71726 0.499993 8C0.499993 7.83424 0.565842 7.67527 0.683052 7.55806C0.800261 7.44085 0.959233 7.375 1.12499 7.375C1.29075 7.375 1.44973 7.44085 1.56694 7.55806C1.68415 7.67527 1.74999 7.83424 1.74999 8C1.74999 9.6576 2.40847 11.2473 3.58058 12.4194C4.75268 13.5915 6.34239 14.25 7.99999 14.25C9.6576 14.25 11.2473 13.5915 12.4194 12.4194C13.5915 11.2473 14.25 9.6576 14.25 8Z" fill="currentColor"/>
</svg>
