<svg width="11" height="13" viewBox="0 0 11 13" fill="none" xmlns="http://www.w3.org/2000/svg">
<path d="M6.49932 1C6.49932 0.867392 6.44664 0.740215 6.35287 0.646447C6.2591 0.552679 6.13192 0.5 5.99932 0.5C5.86671 0.5 5.73953 0.552679 5.64576 0.646447C5.55199 0.740215 5.49932 0.867392 5.49932 1V10.697L1.87132 6.666C1.82778 6.61598 1.77473 6.57511 1.71526 6.54579C1.65578 6.51646 1.59107 6.49926 1.52488 6.49518C1.45869 6.49111 1.39236 6.50024 1.32973 6.52204C1.26711 6.54385 1.20944 6.57789 1.1601 6.62219C1.11076 6.66649 1.07072 6.72017 1.04232 6.78009C1.01392 6.84002 0.997721 6.90499 0.99467 6.97123C0.991619 7.03747 1.00178 7.10366 1.02455 7.16594C1.04732 7.22822 1.08225 7.28535 1.12732 7.334L5.62732 12.334C5.67421 12.3862 5.73156 12.428 5.79566 12.4566C5.85975 12.4851 5.92914 12.4999 5.99932 12.4999C6.06949 12.4999 6.13888 12.4851 6.20298 12.4566C6.26707 12.428 6.32442 12.3862 6.37132 12.334L10.8713 7.334C10.9575 7.23498 11.0013 7.10604 10.9932 6.97502C10.9851 6.84401 10.9259 6.72142 10.8282 6.63372C10.7305 6.54602 10.6023 6.50025 10.4711 6.50629C10.34 6.51233 10.2165 6.5697 10.1273 6.666L6.49932 10.697V1Z" fill="currentColor"/>
</svg>
