<svg width="18" height="7" viewBox="0 0 18 7" fill="none" xmlns="http://www.w3.org/2000/svg">
<path d="M3.81666 0.433617C3.87487 0.491674 3.92105 0.560643 3.95256 0.636575C3.98406 0.712506 4.00028 0.793908 4.00028 0.876117C4.00028 0.958326 3.98406 1.03973 3.95256 1.11566C3.92105 1.19159 3.87487 1.26056 3.81666 1.31862L2.38291 2.75112H7.12416C7.28992 2.75112 7.4489 2.81697 7.56611 2.93418C7.68332 3.05139 7.74916 3.21036 7.74916 3.37612C7.74916 3.54188 7.68332 3.70085 7.56611 3.81806C7.4489 3.93527 7.28992 4.00112 7.12416 4.00112H2.38291L3.81666 5.43362C3.93402 5.55098 3.99995 5.71015 3.99995 5.87612C3.99995 6.04209 3.93402 6.20126 3.81666 6.31862C3.69931 6.43598 3.54013 6.50191 3.37416 6.50191C3.20819 6.50191 3.04902 6.43598 2.93166 6.31862L0.431664 3.81862C0.37346 3.76056 0.327281 3.69159 0.295773 3.61566C0.264265 3.53973 0.248047 3.45833 0.248047 3.37612C0.248047 3.29391 0.264265 3.21251 0.295773 3.13657C0.327281 3.06064 0.37346 2.99167 0.431664 2.93362L2.93166 0.433617C2.98972 0.375413 3.05869 0.329234 3.13462 0.297726C3.21055 0.266218 3.29196 0.25 3.37416 0.25C3.45637 0.25 3.53778 0.266218 3.61371 0.297726C3.68964 0.329234 3.75861 0.375413 3.81666 0.433617ZM14.1817 0.433617C14.2397 0.375413 14.3087 0.329234 14.3846 0.297726C14.4606 0.266218 14.542 0.25 14.6242 0.25C14.7064 0.25 14.7878 0.266218 14.8637 0.297726C14.9396 0.329234 15.0086 0.375413 15.0667 0.433617L17.5667 2.93362C17.6249 2.99167 17.671 3.06064 17.7026 3.13657C17.7341 3.21251 17.7503 3.29391 17.7503 3.37612C17.7503 3.45833 17.7341 3.53973 17.7026 3.61566C17.671 3.69159 17.6249 3.76056 17.5667 3.81862L15.0667 6.31862C15.0086 6.37673 14.9396 6.42282 14.8636 6.45427C14.7877 6.48572 14.7063 6.50191 14.6242 6.50191C14.542 6.50191 14.4606 6.48572 14.3847 6.45427C14.3088 6.42282 14.2398 6.37673 14.1817 6.31862C14.1236 6.26051 14.0775 6.19152 14.046 6.1156C14.0146 6.03967 13.9984 5.9583 13.9984 5.87612C13.9984 5.79394 14.0146 5.71256 14.046 5.63664C14.0775 5.56071 14.1236 5.49173 14.1817 5.43362L15.6154 4.00112H10.8742C10.7084 4.00112 10.5494 3.93527 10.4322 3.81806C10.315 3.70085 10.2492 3.54188 10.2492 3.37612C10.2492 3.21036 10.315 3.05139 10.4322 2.93418C10.5494 2.81697 10.7084 2.75112 10.8742 2.75112H15.6154L14.1817 1.31862C14.1235 1.26056 14.0773 1.19159 14.0458 1.11566C14.0143 1.03973 13.998 0.958326 13.998 0.876117C13.998 0.793908 14.0143 0.712506 14.0458 0.636575C14.0773 0.560643 14.1235 0.491674 14.1817 0.433617Z" fill="currentColor"/>
</svg>
