<svg width="12" height="11" viewBox="0 0 12 11" fill="none" xmlns="http://www.w3.org/2000/svg">
<path d="M0.500091 6.00127C0.367482 6.00127 0.240305 5.94859 0.146537 5.85482C0.0527687 5.76105 9.05991e-05 5.63388 9.05991e-05 5.50127C9.05991e-05 5.36866 0.0527687 5.24148 0.146537 5.14772C0.240305 5.05395 0.367482 5.00127 0.500091 5.00127H10.1971L6.16609 1.37327C6.11607 1.32974 6.0752 1.27669 6.04588 1.21721C6.01655 1.15774 5.99935 1.09302 5.99527 1.02683C5.9912 0.960646 6.00033 0.894309 6.02213 0.831684C6.04394 0.769059 6.07798 0.711396 6.12228 0.662054C6.16658 0.612711 6.22026 0.572674 6.28018 0.544273C6.34011 0.515872 6.40508 0.499674 6.47132 0.496623C6.53756 0.493572 6.60375 0.503728 6.66603 0.526501C6.72831 0.549273 6.78544 0.584207 6.83409 0.629269L11.8341 5.12927C11.8863 5.17616 11.9281 5.23352 11.9566 5.29761C11.9852 5.3617 12 5.43109 12 5.50127C12 5.57145 11.9852 5.64084 11.9566 5.70493C11.9281 5.76902 11.8863 5.82638 11.8341 5.87327L6.83409 10.3733C6.78544 10.4183 6.72831 10.4533 6.66603 10.476C6.60375 10.4988 6.53756 10.509 6.47132 10.5059C6.40508 10.5029 6.34011 10.4867 6.28018 10.4583C6.22026 10.4299 6.16658 10.3898 6.12228 10.3405C6.07798 10.2911 6.04394 10.2335 6.02213 10.1709C6.00033 10.1082 5.9912 10.0419 5.99527 9.9757C5.99935 9.90952 6.01655 9.8448 6.04588 9.78533C6.0752 9.72585 6.11607 9.6728 6.16609 9.62927L10.1971 6.00127H0.500091Z" fill="currentColor"/>
</svg>
