<svg width="12" height="12" viewBox="0 0 12 12" fill="none" xmlns="http://www.w3.org/2000/svg">
<path d="M3.248 6.97572C3.44651 6.97572 3.6369 6.89838 3.77727 6.76071C3.91764 6.62304 3.9965 6.43632 3.9965 6.24162C3.9965 6.04692 3.91764 5.8602 3.77727 5.72253C3.6369 5.58486 3.44651 5.50751 3.248 5.50751C3.04949 5.50751 2.8591 5.58486 2.71873 5.72253C2.57836 5.8602 2.4995 6.04692 2.4995 6.24162C2.4995 6.43632 2.57836 6.62304 2.71873 6.76071C2.8591 6.89838 3.04949 6.97572 3.248 6.97572ZM3.997 8.69403C3.997 8.88873 3.91814 9.07545 3.77777 9.21312C3.6374 9.3508 3.44701 9.42814 3.2485 9.42814C3.04999 9.42814 2.8596 9.3508 2.71923 9.21312C2.57886 9.07545 2.5 8.88873 2.5 8.69403C2.5 8.49933 2.57886 8.31261 2.71923 8.17494C2.8596 8.03727 3.04999 7.95993 3.2485 7.95993C3.44701 7.95993 3.6374 8.03727 3.77777 8.17494C3.91814 8.31261 3.997 8.49933 3.997 8.69403ZM6 6.97474C6.19838 6.97474 6.38864 6.89745 6.52892 6.75987C6.66919 6.62229 6.748 6.4357 6.748 6.24113C6.748 6.04656 6.66919 5.85996 6.52892 5.72238C6.38864 5.5848 6.19838 5.50751 6 5.50751C5.80149 5.50751 5.6111 5.58486 5.47073 5.72253C5.33036 5.8602 5.2515 6.04692 5.2515 6.24162C5.2515 6.43632 5.33036 6.62304 5.47073 6.76071C5.6111 6.89838 5.80149 6.97572 6 6.97572V6.97474ZM6.749 8.69305C6.749 8.88775 6.67014 9.07447 6.52977 9.21214C6.3894 9.34981 6.19901 9.42716 6.0005 9.42716C5.80199 9.42716 5.6116 9.34981 5.47123 9.21214C5.33086 9.07447 5.252 8.88775 5.252 8.69305C5.252 8.49835 5.33086 8.31163 5.47123 8.17396C5.6116 8.03629 5.80199 7.95895 6.0005 7.95895C6.19901 7.95895 6.3894 8.03629 6.52977 8.17396C6.67014 8.31163 6.749 8.49835 6.749 8.69305ZM8.749 6.97474C8.94751 6.97474 9.1379 6.8974 9.27827 6.75973C9.41864 6.62206 9.4975 6.43534 9.4975 6.24064C9.4975 6.04594 9.41864 5.85922 9.27827 5.72155C9.1379 5.58388 8.94751 5.50653 8.749 5.50653C8.55048 5.50653 8.3601 5.58388 8.21973 5.72155C8.07936 5.85922 8.0005 6.04594 8.0005 6.24064C8.0005 6.43534 8.07936 6.62206 8.21973 6.75973C8.3601 6.8974 8.55048 6.97474 8.749 6.97474ZM12 2.5652C12 1.91491 11.7366 1.29126 11.2678 0.831433C10.7989 0.371608 10.163 0.113281 9.5 0.113281H2.5C1.83696 0.113281 1.20107 0.371608 0.732233 0.831433C0.263392 1.29126 0 1.91491 0 2.5652V9.43059C0 10.0809 0.263392 10.7045 0.732233 11.1644C1.20107 11.6242 1.83696 11.8825 2.5 11.8825H9.5C10.163 11.8825 10.7989 11.6242 11.2678 11.1644C11.7366 10.7045 12 10.0809 12 9.43059V2.5652ZM1 4.03636H11V9.43059C11 9.82076 10.842 10.195 10.5607 10.4709C10.2794 10.7467 9.89782 10.9017 9.5 10.9017H2.5C2.10218 10.9017 1.72064 10.7467 1.43934 10.4709C1.15804 10.195 1 9.82076 1 9.43059V4.03636ZM2.5 1.09405H9.5C9.89782 1.09405 10.2794 1.24905 10.5607 1.52494C10.842 1.80084 11 2.17503 11 2.5652V3.05559H1V2.5652C1 2.17503 1.15804 1.80084 1.43934 1.52494C1.72064 1.24905 2.10218 1.09405 2.5 1.09405Z" fill="currentColor"/>
</svg>
