<svg width="10" height="12" viewBox="0 0 10 12" fill="none" xmlns="http://www.w3.org/2000/svg">
<path d="M1 2.15819V8.44982C0.999902 9.07233 1.24123 9.67158 1.67504 10.126C2.10885 10.5804 2.70265 10.856 3.336 10.8968L3.5 10.9017H7.914C7.81061 11.1885 7.61913 11.4368 7.3659 11.6125C7.11267 11.7881 6.81016 11.8825 6.5 11.8825H3C2.20435 11.8825 1.44129 11.5725 0.87868 11.0207C0.316071 10.4689 2.06237e-07 9.72055 2.06237e-07 8.94021V3.54597C-0.00016248 3.24162 0.0959278 2.9447 0.275028 2.69615C0.454129 2.44759 0.707422 2.25964 1 2.15819ZM8.5 0.113281C8.89782 0.113281 9.27936 0.268277 9.56066 0.544172C9.84196 0.820067 10 1.19426 10 1.58444V8.44982C10 8.84 9.84196 9.21419 9.56066 9.49008C9.27936 9.76598 8.89782 9.92097 8.5 9.92097H3.5C3.10218 9.92097 2.72064 9.76598 2.43934 9.49008C2.15804 9.21419 2 8.84 2 8.44982V1.58444C2 1.19426 2.15804 0.820067 2.43934 0.544172C2.72064 0.268277 3.10218 0.113281 3.5 0.113281H8.5ZM8.5 1.09405H3.5C3.36739 1.09405 3.24022 1.14572 3.14645 1.23768C3.05268 1.32965 3 1.45438 3 1.58444V8.44982C3 8.57988 3.05268 8.70461 3.14645 8.79658C3.24022 8.88854 3.36739 8.94021 3.5 8.94021H8.5C8.63261 8.94021 8.75979 8.88854 8.85355 8.79658C8.94732 8.70461 9 8.57988 9 8.44982V1.58444C9 1.45438 8.94732 1.32965 8.85355 1.23768C8.75979 1.14572 8.63261 1.09405 8.5 1.09405Z" fill="currentColor"/>
</svg>
