<svg width="12" height="12" viewBox="0 0 12 12" fill="none" xmlns="http://www.w3.org/2000/svg">
<path d="M0.589632 0.716632L0.646631 0.646631C0.729487 0.563956 0.838722 0.51297 0.955306 0.502554C1.07189 0.492138 1.18843 0.522953 1.28463 0.589632L1.35463 0.646631L6.00063 5.29363L10.6466 0.646631C10.7405 0.552745 10.8679 0.5 11.0006 0.5C11.1334 0.5 11.2607 0.552745 11.3546 0.646631C11.4485 0.740518 11.5013 0.867856 11.5013 1.00063C11.5013 1.13341 11.4485 1.26075 11.3546 1.35463L6.70763 6.00063L11.3546 10.6466C11.4373 10.7295 11.4883 10.8387 11.4987 10.9553C11.5091 11.0719 11.4783 11.1884 11.4116 11.2846L11.3546 11.3546C11.2718 11.4373 11.1625 11.4883 11.046 11.4987C10.9294 11.5091 10.8128 11.4783 10.7166 11.4116L10.6466 11.3546L6.00063 6.70763L1.35463 11.3546C1.26075 11.4485 1.13341 11.5013 1.00063 11.5013C0.867856 11.5013 0.740518 11.4485 0.646631 11.3546C0.552745 11.2607 0.5 11.1334 0.5 11.0006C0.5 10.8679 0.552745 10.7405 0.646631 10.6466L5.29363 6.00063L0.646631 1.35463C0.563956 1.27178 0.51297 1.16254 0.502554 1.04596C0.492138 0.929374 0.522953 0.812831 0.589632 0.716632L0.646631 0.646631L0.589632 0.716632Z" fill="currentColor"/>
</svg>
