<svg width="13" height="14" viewBox="0 0 13 14" fill="none" xmlns="http://www.w3.org/2000/svg">
<path d="M3.00003 2C3.00003 1.46957 3.21074 0.960859 3.58581 0.585786C3.96089 0.210714 4.46959 0 5.00003 0H8.58603C8.98372 0.000350104 9.36499 0.158615 9.64603 0.44L12.561 3.354C12.842 3.6352 12.9999 4.01645 13 4.414V12C13 12.5304 12.7893 13.0391 12.4142 13.4142C12.0392 13.7893 11.5305 14 11 14H7.66303C8.06603 13.716 8.42903 13.38 8.74303 13H11C11.2652 13 11.5196 12.8946 11.7071 12.7071C11.8947 12.5196 12 12.2652 12 12V5H9.50003C9.1022 5 8.72067 4.84196 8.43937 4.56066C8.15806 4.27936 8.00003 3.89782 8.00003 3.5V1H5.00003C4.73481 1 4.48046 1.10536 4.29292 1.29289C4.10538 1.48043 4.00003 1.73478 4.00003 2V4.022C3.66168 4.05254 3.32691 4.11447 3.00003 4.207V2ZM9.50003 4H11.793L9.00003 1.207V3.5C9.00003 3.63261 9.05271 3.75979 9.14647 3.85355C9.24024 3.94732 9.36742 4 9.50003 4ZM1.31803 6.318C0.474109 7.16192 0 8.30652 0 9.5C0 10.6935 0.474109 11.8381 1.31803 12.682C2.16195 13.5259 3.30655 14 4.50003 14C5.69351 14 6.83811 13.5259 7.68203 12.682C8.52595 11.8381 9.00006 10.6935 9.00006 9.5C9.00006 8.30652 8.52595 7.16192 7.68203 6.318C6.83811 5.47408 5.69351 4.99997 4.50003 4.99997C3.30655 4.99997 2.16195 5.47408 1.31803 6.318ZM6.26803 11.268C6.17426 11.3617 6.04711 11.4144 5.91453 11.4144C5.78195 11.4144 5.65479 11.3617 5.56103 11.268L4.50003 10.208L3.44003 11.268C3.34627 11.3619 3.21906 11.4147 3.08638 11.4148C2.9537 11.4149 2.82641 11.3623 2.73253 11.2685C2.63864 11.1747 2.58584 11.0475 2.58575 10.9149C2.58566 10.7822 2.63827 10.6549 2.73203 10.561L3.79203 9.5L2.73203 8.44C2.63814 8.34625 2.58534 8.21904 2.58525 8.08635C2.5852 8.02066 2.5981 7.95559 2.6232 7.89488C2.64829 7.83416 2.68511 7.77899 2.73153 7.7325C2.77795 7.68601 2.83307 7.64912 2.89375 7.62394C2.95443 7.59875 3.01948 7.58577 3.08517 7.58572C3.21786 7.58563 3.34514 7.63825 3.43903 7.732L4.50003 8.792L5.56003 7.732C5.65378 7.63811 5.78099 7.58532 5.91367 7.58522C6.04636 7.58513 6.17364 7.63775 6.26753 7.7315C6.36141 7.82525 6.41421 7.95247 6.41431 8.08515C6.4144 8.21783 6.36178 8.34511 6.26803 8.439L5.20803 9.5L6.26803 10.56C6.31459 10.6064 6.35153 10.6616 6.37674 10.7224C6.40195 10.7831 6.41492 10.8482 6.41492 10.914C6.41492 10.9798 6.40195 11.0449 6.37674 11.1056C6.35153 11.1664 6.31459 11.2216 6.26803 11.268Z" fill="currentColor"/>
</svg>
