<svg width="14" height="15" viewBox="0 0 14 15" fill="none" xmlns="http://www.w3.org/2000/svg">
<path d="M6 0C5.46957 0 4.96086 0.210714 4.58579 0.585786C4.21071 0.960859 4 1.46957 4 2V4.207C4.32688 4.11447 4.66165 4.05254 5 4.022V2C5 1.73478 5.10536 1.48043 5.29289 1.29289C5.48043 1.10536 5.73478 1 6 1H9V3.5C9 3.89782 9.15804 4.27936 9.43934 4.56066C9.72064 4.84196 10.1022 5 10.5 5H13V12C13 12.2652 12.8946 12.5196 12.7071 12.7071C12.5196 12.8946 12.2652 13 12 13H9.743C9.429 13.38 9.066 13.716 8.663 14H12C12.5304 14 13.0391 13.7893 13.4142 13.4142C13.7893 13.0391 14 12.5304 14 12V4.414C13.9997 4.01631 13.8414 3.63503 13.56 3.354L10.646 0.439C10.3648 0.157982 9.98355 8.48813e-05 9.586 0H6ZM12.793 4H10.5C10.3674 4 10.2402 3.94732 10.1464 3.85355C10.0527 3.75979 10 3.63261 10 3.5V1.207L12.793 4Z" fill="currentColor"/>
<path d="M9.93359 9.63281C9.93359 10.2238 9.8172 10.8089 9.59105 11.3549C9.36491 11.9009 9.03344 12.3969 8.61557 12.8148C8.19771 13.2327 7.70163 13.5641 7.15567 13.7903C6.6097 14.0164 6.02454 14.1328 5.43359 14.1328C4.84265 14.1328 4.25748 14.0164 3.71152 13.7903C3.16555 13.5641 2.66948 13.2327 2.25161 12.8148C1.83375 12.3969 1.50228 11.9009 1.27614 11.3549C1.04999 10.8089 0.933594 10.2238 0.933594 9.63281C0.933594 8.43934 1.4077 7.29475 2.25161 6.45083C3.09553 5.60692 4.24012 5.13281 5.43359 5.13281C6.62707 5.13281 7.77166 5.60692 8.61557 6.45083C9.45949 7.29475 9.93359 8.43934 9.93359 9.63281ZM7.78759 7.77881C7.74115 7.73225 7.68597 7.69531 7.62523 7.6701C7.56448 7.64489 7.49936 7.63192 7.43359 7.63192C7.36783 7.63192 7.30271 7.64489 7.24196 7.6701C7.18122 7.69531 7.12604 7.73225 7.07959 7.77881L4.43359 10.4258L3.78759 9.77881C3.74111 9.73232 3.68592 9.69545 3.62518 9.67029C3.56444 9.64513 3.49934 9.63218 3.43359 9.63218C3.36785 9.63218 3.30275 9.64513 3.24201 9.67029C3.18127 9.69545 3.12608 9.73232 3.07959 9.77881C3.03311 9.8253 2.99623 9.88049 2.97107 9.94123C2.94591 10.002 2.93296 10.0671 2.93296 10.1328C2.93296 10.1986 2.94591 10.2637 2.97107 10.3244C2.99623 10.3851 3.03311 10.4403 3.07959 10.4868L4.07959 11.4868C4.12604 11.5334 4.18122 11.5703 4.24196 11.5955C4.30271 11.6207 4.36783 11.6337 4.43359 11.6337C4.49936 11.6337 4.56448 11.6207 4.62523 11.5955C4.68597 11.5703 4.74115 11.5334 4.78759 11.4868L7.78759 8.48681C7.83416 8.44037 7.8711 8.38519 7.89631 8.32445C7.92151 8.2637 7.93449 8.19858 7.93449 8.13281C7.93449 8.06705 7.92151 8.00192 7.89631 7.94118C7.8711 7.88043 7.83416 7.82526 7.78759 7.77881Z" fill="currentColor"/>
</svg>
