<svg width="11" height="14" viewBox="0 0 11 14" fill="none" xmlns="http://www.w3.org/2000/svg">
<path d="M2.33398 1.53971e-07C1.80355 1.53971e-07 1.29484 0.210714 0.919771 0.585787C0.544698 0.960859 0.333984 1.46957 0.333984 2V12C0.333984 12.5304 0.544698 13.0391 0.919771 13.4142C1.29484 13.7893 1.80355 14 2.33398 14H8.33398C8.86442 14 9.37312 13.7893 9.7482 13.4142C10.1233 13.0391 10.334 12.5304 10.334 12V4.414C10.3336 4.01631 10.1754 3.63504 9.89398 3.354L6.98098 0.439C6.84163 0.299733 6.6762 0.189283 6.49415 0.113959C6.3121 0.0386344 6.117 -8.9109e-05 5.91998 1.53971e-07H2.33398ZM1.33398 2C1.33398 1.73478 1.43934 1.48043 1.62688 1.29289C1.81441 1.10536 2.06877 1 2.33398 1H5.33398V3.5C5.33398 3.89782 5.49202 4.27936 5.77332 4.56066C6.05463 4.84196 6.43616 5 6.83398 5H9.33398V12C9.33398 12.2652 9.22863 12.5196 9.04109 12.7071C8.85355 12.8946 8.5992 13 8.33398 13H2.33398C2.06877 13 1.81441 12.8946 1.62688 12.7071C1.43934 12.5196 1.33398 12.2652 1.33398 12V2ZM9.12698 4H6.83398C6.70138 4 6.5742 3.94732 6.48043 3.85355C6.38666 3.75979 6.33398 3.63261 6.33398 3.5V1.207L9.12698 4Z" fill="currentColor"/>
</svg>
