<svg xmlns="http://www.w3.org/2000/svg" width="15" height="14" viewBox="0 0 15 14">
<path d="M6,0A2,2,0,0,0,4.59.59,2,2,0,0,0,4,2V4.21A4.9,4.9,0,0,1,5,4V2a1,1,0,0,1,.29-.71A1,1,0,0,1,6,1H9V3.5A1.5,1.5,0,0,0,10.5,5H13v7a1,1,0,0,1-1,1H9.74a5.14,5.14,0,0,1-1.08,1H12a2,2,0,0,0,2-2V4.41a1.53,1.53,0,0,0-.44-1.06L10.65.44A1.53,1.53,0,0,0,9.59,0Zm6.79,4H10.5a.51.51,0,0,1-.5-.5V1.21Z" fill="currentColor"/>
<path d="M8.62,6.45a4.5,4.5,0,0,0-7.34,4.91,4.3,4.3,0,0,0,1,1.45,4.63,4.63,0,0,0,1.46,1,4.43,4.43,0,0,0,1.72.34,4.48,4.48,0,0,0,1.73-.34,4.52,4.52,0,0,0,2.43-2.43,4.53,4.53,0,0,0-1-4.91ZM5.43,12.66a.52.52,0,0,1-.52-.52.52.52,0,1,1,1,0A.52.52,0,0,1,5.43,12.66Zm.9-2.58a1.89,1.89,0,0,0-.4.62.5.5,0,0,1-1,0,2.12,2.12,0,0,1,.61-1.24,2.17,2.17,0,0,0,.6-1.16.71.71,0,0,0-1.42,0,.8.8,0,0,0,0,.26.5.5,0,0,1-.28.65.5.5,0,0,1-.65-.28,1.71,1.71,0,1,1,3.3-.63A2.93,2.93,0,0,1,6.33,10.08Z" fill="currentColor"/>
</svg>