<svg width="16" height="16" viewBox="0 0 16 16" fill="none" xmlns="http://www.w3.org/2000/svg">
<path d="M14.7695 1.23189C15.742 2.20439 15.742 3.78064 14.7695 4.75314L5.57204 13.9519C5.17329 14.3519 4.67329 14.6344 4.12704 14.7706L1.27329 15.4831C1.16911 15.5091 1.05998 15.5078 0.956489 15.4791C0.853001 15.4505 0.75868 15.3956 0.682691 15.3197C0.606701 15.2439 0.551627 15.1496 0.52282 15.0462C0.494013 14.9427 0.492453 14.8336 0.51829 14.7294L1.23079 11.8756C1.36814 11.3286 1.65157 10.8291 2.05079 10.4306L11.2483 1.23314C11.7153 0.766217 12.3486 0.503906 13.0089 0.503906C13.6693 0.503906 14.3026 0.766217 14.7695 1.23314V1.23189ZM10.367 3.87314L2.93079 11.3094C2.69151 11.5487 2.52171 11.8486 2.43954 12.1769L1.97829 14.0231L3.82454 13.5606C4.15329 13.4794 4.45329 13.3106 4.69204 13.0706L12.1283 5.63314L10.367 3.87314ZM12.1295 2.11064L11.2483 2.99189L13.0083 4.75314L13.8895 3.87314C14.1233 3.63958 14.2546 3.32275 14.2547 2.99233C14.2549 2.66192 14.1237 2.34499 13.8902 2.11126C13.6566 1.87754 13.3398 1.74617 13.0094 1.74606C12.6789 1.74594 12.362 1.87708 12.1283 2.11064H12.1295Z" fill="currentColor"/>
</svg>
