<svg width="200" height="137" viewBox="0 0 200 137" fill="none" xmlns="http://www.w3.org/2000/svg">
<g clip-path="url(#clip0_1598_153782)">
<path d="M18.0641 136.998H178.07L199.94 18.501C200.034 17.9774 200.016 17.4385 199.882 16.9235C199.748 16.4081 199.501 15.9288 199.159 15.5193C198.821 15.1101 198.394 14.7806 197.912 14.5545C197.431 14.3284 196.903 14.2109 196.373 14.2109H36.3659L14.497 132.727C14.4028 133.248 14.4245 133.785 14.5604 134.298C14.6961 134.814 14.9427 135.29 15.283 135.695C15.6232 136.104 16.0485 136.431 16.529 136.657C17.0095 136.882 17.5336 136.998 18.0641 136.998Z" fill="#4574F6"/>
<path opacity="0.2" d="M18.0641 136.998H178.07L199.94 18.501C200.034 17.9774 200.016 17.4385 199.882 16.9235C199.748 16.4081 199.501 15.9288 199.159 15.5193C198.821 15.1101 198.394 14.7806 197.912 14.5545C197.431 14.3284 196.903 14.2109 196.373 14.2109H36.3659L14.497 132.727C14.4028 133.248 14.4245 133.785 14.5604 134.298C14.6961 134.814 14.9427 135.29 15.283 135.695C15.6232 136.104 16.0485 136.431 16.529 136.657C17.0095 136.882 17.5336 136.998 18.0641 136.998Z" fill="black"/>
<path d="M178.069 137H16.9257C16.0379 137 15.1806 136.676 14.5169 136.084C13.8532 135.495 13.4288 134.681 13.3251 133.799L0.0233012 21.9956C-0.0370647 21.4867 0.0111006 20.9704 0.164454 20.4813C0.317808 19.9922 0.572989 19.5409 0.913233 19.1577C1.25348 18.7742 1.67086 18.4672 2.13794 18.257C2.60501 18.0467 3.11141 17.9378 3.62391 17.9375H160.685C161.572 17.9372 162.429 18.2631 163.093 18.8529C163.757 19.443 164.181 20.2561 164.286 21.1382L178.069 137Z" fill="#4574F6"/>
<path d="M36.2402 14.8957L38.7555 3.05087C38.9335 2.21148 39.3939 1.45873 40.0597 0.918362C40.7256 0.37799 41.5567 0.0826415 42.414 0.0820312H66.8347C67.6649 0.0823364 68.4716 0.35846 69.1283 0.866794C69.7847 1.37543 70.2542 2.0879 70.4628 2.8919L73.5451 14.8225L36.2402 14.8957Z" fill="#4574F6"/>
<path opacity="0.2" d="M36.2402 14.8957L38.7555 3.05087C38.9335 2.21148 39.3939 1.45873 40.0597 0.918362C40.7256 0.37799 41.5567 0.0826415 42.414 0.0820312H66.8347C67.6649 0.0823364 68.4716 0.35846 69.1283 0.866794C69.7847 1.37543 70.2542 2.0879 70.4628 2.8919L73.5451 14.8225L36.2402 14.8957Z" fill="black"/>
<g opacity="0.4">
<path opacity="0.4" d="M107.256 64.9557L100.357 58.0508L86.5517 71.8667L72.7529 58.0508L65.8566 64.9557L79.6554 78.7686L65.8535 92.5784L72.7529 99.4833L86.5547 85.6735L100.357 99.4895L107.256 92.5937L93.4511 78.7716L107.256 64.9557Z" fill="#3F4249"/>
</g>
</g>
<defs>
<clipPath id="clip0_1598_153782">
<rect width="200" height="137" fill="white"/>
</clipPath>
</defs>
</svg>
