<svg width="12" height="8" viewBox="0 0 12 8" fill="none" xmlns="http://www.w3.org/2000/svg">
<path d="M0.983885 4.625V4.628C0.967043 4.69151 0.937848 4.75109 0.897968 4.80331C0.858088 4.85553 0.808306 4.89938 0.751467 4.93235C0.694628 4.96532 0.631849 4.98676 0.566717 4.99546C0.501585 5.00415 0.43538 4.99991 0.371885 4.983C-0.0591151 4.869 0.0168849 4.372 0.0168849 4.372L0.0338848 4.31C0.0338848 4.31 0.059885 4.226 0.080885 4.165C0.337506 3.44549 0.715284 2.77516 1.19788 2.183C2.09688 1.089 3.60589 0 5.99989 0C8.39489 0 9.90388 1.089 10.8009 2.183C11.2835 2.77516 11.6613 3.44549 11.9179 4.165C11.9394 4.22682 11.9595 4.28918 11.9779 4.352L11.9809 4.365L11.9829 4.369V4.371C12.0146 4.49827 11.995 4.6329 11.9284 4.74588C11.8618 4.85886 11.7535 4.94114 11.6267 4.97498C11.5 5.00883 11.3651 4.99153 11.251 4.92681C11.1369 4.86209 11.0528 4.75513 11.0169 4.629L11.0159 4.625L11.0079 4.6C10.9511 4.42301 10.8844 4.2494 10.8079 4.08C10.604 3.62682 10.3418 3.20222 10.0279 2.817C9.28488 1.912 8.04389 1 5.99989 1C3.95589 1 2.71388 1.912 1.97188 2.817C1.5644 3.31749 1.24486 3.88353 1.02688 4.491C1.01453 4.52711 1.00286 4.56345 0.991885 4.6L0.983885 4.625Z" fill="currentColor"/>
<path d="M6 3C5.33696 3 4.70107 3.26339 4.23223 3.73223C3.76339 4.20107 3.5 4.83696 3.5 5.5C3.5 6.16304 3.76339 6.79893 4.23223 7.26777C4.70107 7.73661 5.33696 8 6 8C6.66304 8 7.29893 7.73661 7.76777 7.26777C8.23661 6.79893 8.5 6.16304 8.5 5.5C8.5 4.83696 8.23661 4.20107 7.76777 3.73223C7.29893 3.26339 6.66304 3 6 3ZM4.5 5.5C4.5 5.10218 4.65804 4.72064 4.93934 4.43934C5.22064 4.15804 5.60218 4 6 4C6.39782 4 6.77936 4.15804 7.06066 4.43934C7.34196 4.72064 7.5 5.10218 7.5 5.5C7.5 5.89782 7.34196 6.27936 7.06066 6.56066C6.77936 6.84196 6.39782 7 6 7C5.60218 7 5.22064 6.84196 4.93934 6.56066C4.65804 6.27936 4.5 5.89782 4.5 5.5Z" fill="#14295E"/>
</svg>
