<svg width="16" height="17" viewBox="0 0 16 17" fill="none" xmlns="http://www.w3.org/2000/svg">
<path d="M7.14125 0.578006C7.37334 0.358586 7.68061 0.236328 8 0.236328C8.31939 0.236328 8.62666 0.358586 8.85875 0.578006L14.9137 6.30176C15.2888 6.65551 15.5 7.14926 15.5 7.66426V14.6268C15.5 15.124 15.3025 15.601 14.9508 15.9526C14.5992 16.3042 14.1223 16.5018 13.625 16.5018H11.125C10.8787 16.5018 10.6347 16.4532 10.4072 16.3589C10.1796 16.2646 9.97286 16.1264 9.79873 15.9521C9.62461 15.7779 9.48652 15.5711 9.39237 15.3434C9.29821 15.1158 9.24984 14.8718 9.25 14.6255V11.5005C9.25 11.3347 9.18415 11.1758 9.06694 11.0586C8.94973 10.9414 8.79076 10.8755 8.625 10.8755H7.375C7.20924 10.8755 7.05027 10.9414 6.93306 11.0586C6.81585 11.1758 6.75 11.3347 6.75 11.5005V14.6255C6.75 15.1228 6.55246 15.5997 6.20083 15.9513C5.84919 16.303 5.37228 16.5005 4.875 16.5005H2.375C1.87772 16.5005 1.40081 16.303 1.04917 15.9513C0.697544 15.5997 0.5 15.1228 0.5 14.6255V7.66301C0.5 7.14801 0.7125 6.65426 1.0875 6.30051L7.14125 0.575506V0.578006ZM8 1.48551L1.945 7.21051C1.88353 7.26878 1.83455 7.33894 1.80103 7.41673C1.76751 7.49452 1.75014 7.5783 1.75 7.66301V14.6255C1.75 14.7913 1.81585 14.9502 1.93306 15.0675C2.05027 15.1847 2.20924 15.2505 2.375 15.2505H4.875C5.04076 15.2505 5.19973 15.1847 5.31694 15.0675C5.43415 14.9502 5.5 14.7913 5.5 14.6255V11.5005C5.5 11.0032 5.69754 10.5263 6.04917 10.1747C6.40081 9.82305 6.87772 9.62551 7.375 9.62551H8.625C9.12228 9.62551 9.59919 9.82305 9.95083 10.1747C10.3025 10.5263 10.5 11.0032 10.5 11.5005V14.6255C10.5 14.7913 10.5658 14.9502 10.6831 15.0675C10.8003 15.1847 10.9592 15.2505 11.125 15.2505H13.625C13.7908 15.2505 13.9497 15.1847 14.0669 15.0675C14.1842 14.9502 14.25 14.7913 14.25 14.6255V7.66301C14.25 7.57809 14.2327 7.49407 14.1992 7.41605C14.1657 7.33804 14.1166 7.26768 14.055 7.20926L8 1.48551Z" fill="currentColor"/>
</svg>
