<svg width="16" height="16" viewBox="0 0 16 16" fill="none" xmlns="http://www.w3.org/2000/svg">
<path d="M8 6.75C8.16576 6.75 8.32473 6.81585 8.44194 6.93306C8.55915 7.05027 8.625 7.20924 8.625 7.375V11.125C8.625 11.2908 8.55915 11.4497 8.44194 11.5669C8.32473 11.6842 8.16576 11.75 8 11.75C7.83424 11.75 7.67527 11.6842 7.55806 11.5669C7.44085 11.4497 7.375 11.2908 7.375 11.125V7.375C7.375 7.20924 7.44085 7.05027 7.55806 6.93306C7.67527 6.81585 7.83424 6.75 8 6.75Z" fill="currentColor"/>
<path d="M8.0007 5.8125C8.12382 5.8125 8.24573 5.78825 8.35947 5.74114C8.47321 5.69402 8.57656 5.62497 8.66361 5.53791C8.75067 5.45086 8.81973 5.34751 8.86684 5.23377C8.91395 5.12002 8.9382 4.99811 8.9382 4.875C8.9382 4.75189 8.91395 4.62998 8.86684 4.51623C8.81973 4.40249 8.75067 4.29914 8.66361 4.21209C8.57656 4.12503 8.47321 4.05598 8.35947 4.00886C8.24573 3.96175 8.12382 3.9375 8.0007 3.9375C7.75239 3.9375 7.51426 4.03614 7.33867 4.21172C7.16309 4.3873 7.06445 4.62544 7.06445 4.87375C7.06445 5.12206 7.16309 5.3602 7.33867 5.53578C7.51426 5.71136 7.75239 5.81 8.0007 5.81V5.8125Z" fill="currentColor"/>
<path d="M0.5 8C0.5 7.01509 0.693993 6.03982 1.0709 5.12987C1.44781 4.21993 2.00026 3.39314 2.6967 2.6967C3.39314 2.00026 4.21993 1.44781 5.12987 1.0709C6.03982 0.693993 7.01509 0.5 8 0.5C8.98491 0.5 9.96018 0.693993 10.8701 1.0709C11.7801 1.44781 12.6069 2.00026 13.3033 2.6967C13.9997 3.39314 14.5522 4.21993 14.9291 5.12987C15.306 6.03982 15.5 7.01509 15.5 8C15.5 9.98912 14.7098 11.8968 13.3033 13.3033C11.8968 14.7098 9.98912 15.5 8 15.5C6.01088 15.5 4.10322 14.7098 2.6967 13.3033C1.29018 11.8968 0.5 9.98912 0.5 8ZM8 1.75C6.3424 1.75 4.75269 2.40848 3.58058 3.58058C2.40848 4.75269 1.75 6.3424 1.75 8C1.75 9.6576 2.40848 11.2473 3.58058 12.4194C4.75269 13.5915 6.3424 14.25 8 14.25C9.6576 14.25 11.2473 13.5915 12.4194 12.4194C13.5915 11.2473 14.25 9.6576 14.25 8C14.25 6.3424 13.5915 4.75269 12.4194 3.58058C11.2473 2.40848 9.6576 1.75 8 1.75Z" fill="currentColor"/>
</svg>
