<svg width="12" height="12" viewBox="0 0 12 12" fill="none" xmlns="http://www.w3.org/2000/svg">
<path d="M11.4999 6.49932C11.6325 6.49932 11.7597 6.44664 11.8535 6.35287C11.9472 6.2591 11.9999 6.13192 11.9999 5.99932C11.9999 5.86671 11.9472 5.73953 11.8535 5.64576C11.7597 5.55199 11.6325 5.49932 11.4999 5.49932H1.80291L5.83391 1.87132C5.88393 1.82778 5.9248 1.77473 5.95412 1.71526C5.98345 1.65578 6.00065 1.59107 6.00473 1.52488C6.00881 1.45869 5.99967 1.39236 5.97787 1.32973C5.95607 1.26711 5.92202 1.20944 5.87772 1.1601C5.83342 1.11076 5.77974 1.07072 5.71982 1.04232C5.65989 1.01392 5.59492 0.997721 5.52868 0.99467C5.46244 0.991619 5.39625 1.00178 5.33397 1.02455C5.27169 1.04732 5.21456 1.08225 5.16591 1.12732L0.16591 5.62732C0.113698 5.67421 0.071942 5.73156 0.0433574 5.79566C0.0147727 5.85975 0 5.92914 0 5.99932C0 6.06949 0.0147727 6.13888 0.0433574 6.20298C0.071942 6.26707 0.113698 6.32442 0.16591 6.37132L5.16591 10.8713C5.21456 10.9164 5.27169 10.9513 5.33397 10.9741C5.39625 10.9969 5.46244 11.007 5.52868 11.004C5.59492 11.0009 5.65989 10.9847 5.71982 10.9563C5.77974 10.9279 5.83342 10.8879 5.87772 10.8385C5.92202 10.7892 5.95607 10.7315 5.97787 10.6689C5.99967 10.6063 6.00881 10.5399 6.00473 10.4738C6.00065 10.4076 5.98345 10.3428 5.95412 10.2834C5.9248 10.2239 5.88393 10.1708 5.83391 10.1273L1.80291 6.49932H11.4999Z" fill="currentColor"/>
</svg>
