<svg width="14" height="12" viewBox="0 0 14 12" fill="none" xmlns="http://www.w3.org/2000/svg">
<path d="M1 2.5C1.26522 2.5 1.51957 2.39464 1.70711 2.20711C1.89464 2.01957 2 1.76522 2 1.5C2 1.23478 1.89464 0.98043 1.70711 0.792893C1.51957 0.605357 1.26522 0.5 1 0.5C0.734784 0.5 0.48043 0.605357 0.292893 0.792893C0.105357 0.98043 0 1.23478 0 1.5C0 1.76522 0.105357 2.01957 0.292893 2.20711C0.48043 2.39464 0.734784 2.5 1 2.5ZM1 7C1.26522 7 1.51957 6.89464 1.70711 6.70711C1.89464 6.51957 2 6.26522 2 6C2 5.73478 1.89464 5.48043 1.70711 5.29289C1.51957 5.10536 1.26522 5 1 5C0.734784 5 0.48043 5.10536 0.292893 5.29289C0.105357 5.48043 0 5.73478 0 6C0 6.26522 0.105357 6.51957 0.292893 6.70711C0.48043 6.89464 0.734784 7 1 7ZM2 10.5C2 10.7652 1.89464 11.0196 1.70711 11.2071C1.51957 11.3946 1.26522 11.5 1 11.5C0.734784 11.5 0.48043 11.3946 0.292893 11.2071C0.105357 11.0196 0 10.7652 0 10.5C0 10.2348 0.105357 9.98043 0.292893 9.79289C0.48043 9.60536 0.734784 9.5 1 9.5C1.26522 9.5 1.51957 9.60536 1.70711 9.79289C1.89464 9.98043 2 10.2348 2 10.5ZM4.5 1C4.36739 1 4.24021 1.05268 4.14645 1.14645C4.05268 1.24021 4 1.36739 4 1.5C4 1.63261 4.05268 1.75979 4.14645 1.85355C4.24021 1.94732 4.36739 2 4.5 2H13.5C13.6326 2 13.7598 1.94732 13.8536 1.85355C13.9473 1.75979 14 1.63261 14 1.5C14 1.36739 13.9473 1.24021 13.8536 1.14645C13.7598 1.05268 13.6326 1 13.5 1H4.5ZM4 6C4 5.86739 4.05268 5.74021 4.14645 5.64645C4.24021 5.55268 4.36739 5.5 4.5 5.5H13.5C13.6326 5.5 13.7598 5.55268 13.8536 5.64645C13.9473 5.74021 14 5.86739 14 6C14 6.13261 13.9473 6.25979 13.8536 6.35355C13.7598 6.44732 13.6326 6.5 13.5 6.5H4.5C4.36739 6.5 4.24021 6.44732 4.14645 6.35355C4.05268 6.25979 4 6.13261 4 6ZM4.5 10C4.36739 10 4.24021 10.0527 4.14645 10.1464C4.05268 10.2402 4 10.3674 4 10.5C4 10.6326 4.05268 10.7598 4.14645 10.8536C4.24021 10.9473 4.36739 11 4.5 11H13.5C13.6326 11 13.7598 10.9473 13.8536 10.8536C13.9473 10.7598 14 10.6326 14 10.5C14 10.3674 13.9473 10.2402 13.8536 10.1464C13.7598 10.0527 13.6326 10 13.5 10H4.5Z" fill="currentColor"/>
</svg>
