<svg width="13" height="14" viewBox="0 0 13 14" fill="none" xmlns="http://www.w3.org/2000/svg">
<path d="M2.68315 0.0104066C2.87615 0.0554066 3.01315 0.220407 3.01315 0.412407V3.70641C3.01211 3.76156 3.00021 3.81598 2.97814 3.86654C2.95606 3.9171 2.92424 3.96281 2.8845 4.00107C2.84475 4.03933 2.79786 4.06939 2.7465 4.08952C2.69513 4.10965 2.64031 4.11947 2.58515 4.11841C2.52999 4.11947 2.47516 4.10965 2.4238 4.08952C2.37244 4.06939 2.32554 4.03933 2.2858 4.00107C2.24605 3.96281 2.21423 3.9171 2.19216 3.86654C2.17009 3.81598 2.15819 3.76156 2.15715 3.70641V1.58041C1.9553 1.75317 1.73215 1.89936 1.49315 2.01541C1.39219 2.06455 1.27616 2.07285 1.16923 2.03857C1.0623 2.0043 0.972722 1.93009 0.919148 1.83141C0.894363 1.78277 0.879667 1.72962 0.875943 1.67516C0.87222 1.62069 0.879545 1.56604 0.897479 1.51448C0.915413 1.46292 0.943586 1.41552 0.980304 1.37512C1.01702 1.33472 1.06153 1.30217 1.11115 1.27941C1.46415 1.10941 1.74015 0.847407 1.93115 0.618407C2.03161 0.496679 2.12192 0.36691 2.20115 0.230407C2.24669 0.146354 2.31836 0.0794175 2.40532 0.039724C2.49229 3.03946e-05 2.58981 -0.010261 2.68315 0.0104066ZM1.15315 6.05641C1.11363 6.01894 1.08216 5.97381 1.06065 5.92378C1.03914 5.87375 1.02805 5.81986 1.02805 5.76541C1.02805 5.71095 1.03914 5.65706 1.06065 5.60703C1.08216 5.557 1.11363 5.51188 1.15315 5.47441L1.15515 5.47341V5.47041L1.15915 5.46841L1.16715 5.46041C1.19979 5.43039 1.23418 5.40234 1.27015 5.37641C1.64966 5.09401 2.1101 4.94147 2.58315 4.94141H2.59015C2.91015 4.94541 3.25815 5.02541 3.53715 5.22441C3.83215 5.43441 4.02215 5.76041 4.02215 6.17541C4.02215 6.62741 3.81515 6.94241 3.53415 7.16741C3.32015 7.34041 3.04415 7.47041 2.82015 7.57641C2.78415 7.59241 2.75015 7.60941 2.71715 7.62541C2.45015 7.75341 2.24915 7.86541 2.10715 8.01541C2.04571 8.07962 1.99596 8.15407 1.96015 8.23541H3.59515C3.7062 8.23353 3.81348 8.27572 3.8935 8.35275C3.97353 8.42977 4.01978 8.53536 4.02215 8.64641C4.02111 8.70156 4.00921 8.75598 3.98714 8.80654C3.96506 8.8571 3.93324 8.90281 3.8935 8.94107C3.85375 8.97933 3.80686 9.00939 3.7555 9.02952C3.70413 9.04965 3.64931 9.05947 3.59415 9.05841H1.45615C1.40099 9.05947 1.34616 9.04965 1.2948 9.02952C1.24344 9.00939 1.19654 8.97933 1.1568 8.94107C1.11705 8.90281 1.08523 8.8571 1.06316 8.80654C1.04109 8.75598 1.02919 8.70156 1.02815 8.64641C1.02815 8.13641 1.19815 7.75341 1.47415 7.46241C1.73315 7.18741 2.06615 7.01741 2.33415 6.88841C2.37715 6.86841 2.41915 6.84841 2.45815 6.82841C2.68915 6.71841 2.85815 6.63841 2.98715 6.53541C3.10715 6.43841 3.16715 6.34241 3.16715 6.17541C3.16715 6.02741 3.11015 5.94541 3.02715 5.88641C2.89278 5.80322 2.73714 5.76083 2.57915 5.76441C2.28171 5.76583 1.99347 5.86766 1.76115 6.05341L1.75615 6.05841C1.67421 6.13449 1.56637 6.17653 1.45455 6.17597C1.34274 6.17542 1.23533 6.13231 1.15415 6.05541L1.15315 6.05641ZM2.09315 11.9414C2.09525 11.8302 2.14139 11.7243 2.22144 11.6471C2.3015 11.5699 2.40892 11.5275 2.52015 11.5294C2.81415 11.5294 2.97615 11.4494 3.05715 11.3794C3.09322 11.3497 3.12192 11.312 3.141 11.2693C3.16008 11.2266 3.16903 11.1801 3.16715 11.1334C3.16115 10.9734 3.00915 10.7064 2.52015 10.7064C2.16815 10.7064 1.98515 10.7904 1.90215 10.8434C1.87402 10.8604 1.84844 10.8813 1.82615 10.9054L1.82315 10.9094C1.82662 10.9035 1.82996 10.8975 1.83315 10.8914V10.8924L1.83115 10.8944L1.82915 10.8984L1.82615 10.9044L1.82115 10.9124L1.82315 10.9094C1.76665 11.002 1.67766 11.0703 1.57355 11.1008C1.46944 11.1313 1.3577 11.1219 1.26015 11.0744C1.21061 11.0516 1.16621 11.0189 1.12959 10.9785C1.09298 10.9381 1.06491 10.8906 1.04707 10.8391C1.02924 10.7875 1.022 10.7329 1.02579 10.6785C1.02958 10.6241 1.04433 10.571 1.06915 10.5224V10.5204L1.07115 10.5174L1.07415 10.5114L1.08215 10.4984C1.10688 10.4555 1.13604 10.4153 1.16915 10.3784C1.22715 10.3114 1.31115 10.2324 1.42815 10.1584C1.66615 10.0054 2.01815 9.88241 2.52015 9.88241C3.40015 9.88241 3.99715 10.4384 4.02215 11.1024C4.03415 11.4054 3.92215 11.7084 3.68315 11.9424C3.92115 12.1744 4.03415 12.4774 4.02315 12.7804C3.99715 13.4444 3.40115 14.0004 2.52015 14.0004C2.01815 14.0004 1.66615 13.8784 1.42815 13.7254C1.30094 13.6443 1.19031 13.5398 1.10215 13.4174C1.09518 13.4066 1.08851 13.3956 1.08215 13.3844L1.07415 13.3714L1.07115 13.3664L1.07015 13.3634V13.3624L1.06915 13.3614C1.04414 13.3128 1.02921 13.2597 1.02526 13.2052C1.02132 13.1508 1.02843 13.096 1.04618 13.0444C1.06393 12.9927 1.09195 12.9452 1.12855 12.9046C1.16515 12.8641 1.20957 12.8313 1.25915 12.8084C1.35681 12.7606 1.46878 12.7511 1.57312 12.7816C1.67746 12.8121 1.76663 12.8805 1.82315 12.9734L1.82615 12.9774C1.83615 12.9874 1.85915 13.0124 1.90215 13.0404C1.98515 13.0934 2.16815 13.1774 2.52015 13.1774C3.00915 13.1774 3.16115 12.9094 3.16815 12.7494C3.16988 12.7029 3.16085 12.6565 3.14177 12.6141C3.1227 12.5716 3.09408 12.534 3.05815 12.5044C2.97615 12.4324 2.81415 12.3534 2.52015 12.3534C2.40892 12.3553 2.3015 12.313 2.22144 12.2357C2.14139 12.1585 2.09525 12.0526 2.09315 11.9414ZM6.49915 2.00041C6.36654 2.00041 6.23936 2.05309 6.1456 2.14685C6.05183 2.24062 5.99915 2.3678 5.99915 2.50041C5.99915 2.63301 6.05183 2.76019 6.1456 2.85396C6.23936 2.94773 6.36654 3.00041 6.49915 3.00041H12.4991C12.6318 3.00041 12.7589 2.94773 12.8527 2.85396C12.9465 2.76019 12.9991 2.63301 12.9991 2.50041C12.9991 2.3678 12.9465 2.24062 12.8527 2.14685C12.7589 2.05309 12.6318 2.00041 12.4991 2.00041H6.49915ZM6.49915 6.00041C6.36654 6.00041 6.23936 6.05309 6.1456 6.14685C6.05183 6.24062 5.99915 6.3678 5.99915 6.50041C5.99915 6.63302 6.05183 6.76019 6.1456 6.85396C6.23936 6.94773 6.36654 7.00041 6.49915 7.00041H12.4991C12.6318 7.00041 12.7589 6.94773 12.8527 6.85396C12.9465 6.76019 12.9991 6.63302 12.9991 6.50041C12.9991 6.3678 12.9465 6.24062 12.8527 6.14685C12.7589 6.05309 12.6318 6.00041 12.4991 6.00041H6.49915ZM6.49915 10.0004C6.36654 10.0004 6.23936 10.0531 6.1456 10.1469C6.05183 10.2406 5.99915 10.3678 5.99915 10.5004C5.99915 10.633 6.05183 10.7602 6.1456 10.854C6.23936 10.9477 6.36654 11.0004 6.49915 11.0004H12.4991C12.6318 11.0004 12.7589 10.9477 12.8527 10.854C12.9465 10.7602 12.9991 10.633 12.9991 10.5004C12.9991 10.3678 12.9465 10.2406 12.8527 10.1469C12.7589 10.0531 12.6318 10.0004 12.4991 10.0004H6.49915Z" fill="currentColor"/>
</svg>
