<svg width="20" height="20" viewBox="0 0 20 20" fill="none" xmlns="http://www.w3.org/2000/svg">
<path d="M2.56948 4.23671C2.82734 3.97885 3.17708 3.83398 3.54175 3.83398H5.62508C5.98975 3.83398 6.33949 3.97885 6.59735 4.23671C6.85522 4.49458 7.00008 4.84431 7.00008 5.20898V7.29232C7.00008 7.65699 6.85522 8.00673 6.59735 8.26459C6.33949 8.52245 5.98975 8.66732 5.62508 8.66732H3.54175C3.17708 8.66732 2.82734 8.52245 2.56948 8.26459C2.31161 8.00673 2.16675 7.65699 2.16675 7.29232V5.20898C2.16675 4.84431 2.31161 4.49458 2.56948 4.23671ZM2.74625 4.41349C2.53527 4.62447 2.41675 4.91062 2.41675 5.20898V7.29232C2.41675 7.59069 2.53527 7.87683 2.74625 8.08781C2.95723 8.29879 3.24338 8.41732 3.54175 8.41732H5.62508C5.92345 8.41732 6.2096 8.29879 6.42058 8.08781C6.63156 7.87683 6.75008 7.59069 6.75008 7.29232V5.20898C6.75008 4.91062 6.63156 4.62447 6.42058 4.41349C6.2096 4.20251 5.92345 4.08398 5.62508 4.08398H3.54175C3.24338 4.08398 2.95723 4.20251 2.74625 4.41349ZM9.28669 4.70393C9.31014 4.68049 9.34193 4.66732 9.37508 4.66732H17.7084C17.7416 4.66732 17.7734 4.68049 17.7968 4.70393C17.8202 4.72737 17.8334 4.75916 17.8334 4.79232C17.8334 4.82547 17.8202 4.85726 17.7968 4.88071C17.7734 4.90415 17.7416 4.91732 17.7084 4.91732H9.37508C9.34193 4.91732 9.31014 4.90415 9.28669 4.88071C9.26325 4.85726 9.25008 4.82547 9.25008 4.79232C9.25008 4.75917 9.26325 4.72737 9.28669 4.70393ZM9.28669 7.20393C9.31014 7.18049 9.34193 7.16732 9.37508 7.16732H15.2084C15.2416 7.16732 15.2734 7.18049 15.2968 7.20393L15.6504 6.85038L15.2968 7.20393C15.3202 7.22737 15.3334 7.25917 15.3334 7.29232C15.3334 7.32547 15.3202 7.35726 15.2968 7.3807L15.6504 7.73426L15.2968 7.38071C15.2734 7.40415 15.2416 7.41732 15.2084 7.41732H9.37508C9.34193 7.41732 9.31014 7.40415 9.28669 7.38071C9.26325 7.35726 9.25008 7.32547 9.25008 7.29232C9.25008 7.25917 9.26325 7.22737 9.28669 7.20393ZM2.56948 11.7367C2.82734 11.4789 3.17708 11.334 3.54175 11.334H5.62508C5.98975 11.334 6.33949 11.4789 6.59735 11.7367C6.85522 11.9946 7.00008 12.3443 7.00008 12.709V14.7923C7.00008 14.9729 6.96452 15.1517 6.89542 15.3185C6.82632 15.4853 6.72503 15.6369 6.59735 15.7646C6.46967 15.8923 6.31809 15.9936 6.15127 16.0627C5.98445 16.1318 5.80565 16.1673 5.62508 16.1673H3.54175C3.36118 16.1673 3.18238 16.1318 3.01556 16.0627C2.84874 15.9936 2.69716 15.8923 2.56948 15.7646C2.4418 15.6369 2.34051 15.4853 2.27141 15.3185C2.20231 15.1517 2.16675 14.9729 2.16675 14.7923V12.709C2.16675 12.3443 2.31161 11.9946 2.56948 11.7367ZM2.74625 11.9135C2.53527 12.1245 2.41675 12.4106 2.41675 12.709V14.7923C2.41675 15.0907 2.53527 15.3768 2.74625 15.5878C2.95723 15.7988 3.24338 15.9173 3.54175 15.9173H5.62508C5.92345 15.9173 6.2096 15.7988 6.42058 15.5878C6.63156 15.3768 6.75008 15.0907 6.75008 14.7923V12.709C6.75008 12.4106 6.63156 12.1245 6.42058 11.9135C6.2096 11.7025 5.92345 11.584 5.62508 11.584H3.54175C3.24338 11.584 2.95723 11.7025 2.74625 11.9135ZM9.28669 12.2039C9.31014 12.1805 9.34193 12.1673 9.37508 12.1673H17.7084C17.7416 12.1673 17.7734 12.1805 17.7968 12.2039C17.8202 12.2274 17.8334 12.2592 17.8334 12.2923C17.8334 12.3255 17.8202 12.3573 17.7968 12.3807C17.7734 12.4041 17.7416 12.4173 17.7084 12.4173H9.37508C9.34193 12.4173 9.31014 12.4041 9.28669 12.3807C9.26325 12.3573 9.25008 12.3255 9.25008 12.2923C9.25008 12.2592 9.26325 12.2274 9.28669 12.2039ZM9.28669 14.7039C9.31014 14.6805 9.34193 14.6673 9.37508 14.6673H15.2084C15.2416 14.6673 15.2734 14.6805 15.2968 14.7039C15.3202 14.7274 15.3334 14.7592 15.3334 14.7923C15.3334 14.8255 15.3202 14.8573 15.2968 14.8807C15.2734 14.9041 15.2416 14.9173 15.2084 14.9173H9.37508C9.34193 14.9173 9.31014 14.9041 9.28669 14.8807C9.26325 14.8573 9.25008 14.8255 9.25008 14.7923C9.25008 14.7592 9.26325 14.7274 9.28669 14.7039Z" fill="currentColor" stroke="currentColor"/>
</svg>
