<svg width="12" height="12" viewBox="0 0 12 12" fill="none" xmlns="http://www.w3.org/2000/svg">
<path d="M2 0C1.46957 0 0.960859 0.210714 0.585787 0.585787C0.210714 0.960859 0 1.46957 0 2V10C0 10.5304 0.210714 11.0391 0.585787 11.4142C0.960859 11.7893 1.46957 12 2 12H5.33333C5.51014 12 5.67971 11.9298 5.80474 11.8047C5.92976 11.6797 6 11.5101 6 11.3333C6 11.1565 5.92976 10.987 5.80474 10.8619C5.67971 10.7369 5.51014 10.6667 5.33333 10.6667H2C1.82319 10.6667 1.65362 10.5964 1.5286 10.4714C1.40357 10.3464 1.33333 10.1768 1.33333 10V2C1.33333 1.82319 1.40357 1.65362 1.5286 1.5286C1.65362 1.40357 1.82319 1.33333 2 1.33333H5.33333C5.51014 1.33333 5.67971 1.2631 5.80474 1.13807C5.92976 1.01305 6 0.843478 6 0.666667C6 0.489856 5.92976 0.320286 5.80474 0.195262C5.67971 0.0702379 5.51014 0 5.33333 0H2Z" fill="currentColor"/>
<path d="M8.19533 2.86121C8.32035 2.73623 8.48989 2.66602 8.66667 2.66602C8.84344 2.66602 9.01298 2.73623 9.138 2.86121L11.8047 5.52787C11.9296 5.65289 11.9999 5.82243 11.9999 5.99921C11.9999 6.17598 11.9296 6.34552 11.8047 6.47054L9.138 9.13721C9.01227 9.25865 8.84386 9.32584 8.66907 9.32432C8.49427 9.3228 8.32706 9.25269 8.20345 9.12909C8.07985 9.00548 8.00974 8.83827 8.00822 8.66347C8.0067 8.48868 8.07389 8.32027 8.19533 8.19454L9.724 6.66587H4.66667C4.48986 6.66587 4.32029 6.59564 4.19526 6.47061C4.07024 6.34559 4 6.17602 4 5.99921C4 5.8224 4.07024 5.65283 4.19526 5.5278C4.32029 5.40278 4.48986 5.33254 4.66667 5.33254H9.724L8.19533 3.80387C8.07035 3.67885 8.00014 3.50932 8.00014 3.33254C8.00014 3.15576 8.07035 2.98623 8.19533 2.86121Z" fill="currentColor"/>
</svg>
