<svg width="12" height="12" viewBox="0 0 12 12" fill="none" xmlns="http://www.w3.org/2000/svg">
<path d="M4.88603 9.06073H0.685547" stroke="currentColor" stroke-linecap="round" stroke-linejoin="round"/>
<path d="M6.75977 2.59979H10.9602" stroke="currentColor" stroke-linecap="round" stroke-linejoin="round"/>
<path fill-rule="evenodd" clip-rule="evenodd" d="M3.81687 2.56417C3.81687 1.7004 3.11143 1 2.24144 1C1.37146 1 0.666016 1.7004 0.666016 2.56417C0.666016 3.42794 1.37146 4.12834 2.24144 4.12834C3.11143 4.12834 3.81687 3.42794 3.81687 2.56417Z" stroke="currentColor" stroke-linecap="round" stroke-linejoin="round"/>
<path fill-rule="evenodd" clip-rule="evenodd" d="M11.3325 9.03682C11.3325 8.17305 10.6276 7.47266 9.75761 7.47266C8.88708 7.47266 8.18164 8.17305 8.18164 9.03682C8.18164 9.9006 8.88708 10.601 9.75761 10.601C10.6276 10.601 11.3325 9.9006 11.3325 9.03682Z" stroke="currentColor" stroke-linecap="round" stroke-linejoin="round"/>
</svg>
