<svg width="14" height="14" viewBox="0 0 14 14" fill="none" xmlns="http://www.w3.org/2000/svg">
<path d="M1.80001 7.80032H5.80001C5.89363 7.80029 5.98429 7.8331 6.05621 7.89304C6.12813 7.95297 6.17675 8.03623 6.19361 8.12832L6.20001 8.20033V12.2003C6.20019 12.3003 6.16294 12.3967 6.0956 12.4706C6.02826 12.5444 5.9357 12.5904 5.83615 12.5994C5.7366 12.6085 5.63728 12.5799 5.55774 12.5194C5.4782 12.4588 5.42421 12.3707 5.40641 12.2723L5.40001 12.2003V9.16512L1.28321 13.2835C1.21266 13.3544 1.11812 13.3963 1.01823 13.4009C0.918337 13.4055 0.820336 13.3726 0.74354 13.3085C0.666744 13.2445 0.616723 13.154 0.603334 13.0549C0.589945 12.9558 0.61416 12.8553 0.671207 12.7731L0.716807 12.7171L4.83361 8.60032H1.80001C1.70639 8.60036 1.61572 8.56755 1.5438 8.50761C1.47188 8.44768 1.42326 8.36442 1.40641 8.27233L1.40001 8.20033C1.39998 8.1067 1.43278 8.01604 1.49272 7.94412C1.55265 7.8722 1.63592 7.82358 1.72801 7.80673L1.80001 7.80032H5.80001H1.80001ZM13.2832 0.717124C13.3493 0.783409 13.3901 0.870797 13.3985 0.964064C13.4068 1.05733 13.3821 1.15057 13.3288 1.22752L13.2832 1.28352L9.16481 5.40032H12.2C12.2936 5.40029 12.3843 5.4331 12.4562 5.49304C12.5281 5.55297 12.5768 5.63623 12.5936 5.72832L12.6 5.80032C12.6 5.89395 12.5672 5.98461 12.5073 6.05653C12.4474 6.12845 12.3641 6.17707 12.272 6.19392L12.2 6.20032H8.18401L8.12881 6.19392L8.04721 6.16992L7.98641 6.13792L7.94241 6.10592L7.91681 6.08352L7.88721 6.04992L7.85361 6.00032L7.82961 5.95232L7.81361 5.90272L7.80881 5.88432C7.80289 5.85672 7.79994 5.82856 7.80001 5.80032L7.80401 5.85953L7.80161 5.83472L7.80001 1.80032C7.79982 1.70037 7.83707 1.60396 7.90441 1.5301C7.97176 1.45623 8.06432 1.41026 8.16386 1.40122C8.26341 1.39219 8.36273 1.42076 8.44227 1.4813C8.52181 1.54184 8.5758 1.62997 8.59361 1.72832L8.60001 1.80032V4.83392L12.7168 0.717124C12.754 0.679874 12.7981 0.65032 12.8467 0.630154C12.8953 0.609989 12.9474 0.599609 13 0.599609C13.0526 0.599609 13.1047 0.609989 13.1533 0.630154C13.2019 0.65032 13.246 0.679874 13.2832 0.717124Z" fill="currentColor"/>
</svg>
