<svg width="10" height="2" viewBox="0 0 10 2" fill="none" xmlns="http://www.w3.org/2000/svg">
<path d="M2 1C2 1.26522 1.89464 1.51957 1.70711 1.70711C1.51957 1.89464 1.26522 2 1 2C0.734784 2 0.48043 1.89464 0.292893 1.70711C0.105357 1.51957 0 1.26522 0 1C0 0.734784 0.105357 0.48043 0.292893 0.292893C0.48043 0.105357 0.734784 0 1 0C1.26522 0 1.51957 0.105357 1.70711 0.292893C1.89464 0.48043 2 0.734784 2 1Z" fill="currentColor"/>
<path d="M6 1C6 1.26522 5.89464 1.51957 5.70711 1.70711C5.51957 1.89464 5.26522 2 5 2C4.73478 2 4.48043 1.89464 4.29289 1.70711C4.10536 1.51957 4 1.26522 4 1C4 0.734784 4.10536 0.48043 4.29289 0.292893C4.48043 0.105357 4.73478 0 5 0C5.26522 0 5.51957 0.105357 5.70711 0.292893C5.89464 0.48043 6 0.734784 6 1Z" fill="currentColor"/>
<path d="M9 2C9.26522 2 9.51957 1.89464 9.70711 1.70711C9.89464 1.51957 10 1.26522 10 1C10 0.734784 9.89464 0.48043 9.70711 0.292893C9.51957 0.105357 9.26522 0 9 0C8.73478 0 8.48043 0.105357 8.29289 0.292893C8.10536 0.48043 8 0.734784 8 1C8 1.26522 8.10536 1.51957 8.29289 1.70711C8.48043 1.89464 8.73478 2 9 2Z" fill="currentColor"/>
</svg>
