<svg width="144" height="151" viewBox="0 0 144 151" fill="none" xmlns="http://www.w3.org/2000/svg">
<g clip-path="url(#clip0_1901_163864)">
<path d="M37.2809 69.3403L35.2809 61.8803C35.2509 61.7453 35.1709 61.6242 35.0609 61.5392C34.9509 61.4542 34.8109 61.4082 34.6709 61.4102H10.2709C10.1009 61.4102 9.9408 61.4783 9.8208 61.5983C9.7008 61.7183 9.63086 61.8802 9.63086 62.0502V150.26C9.63086 150.43 9.7008 150.593 9.8208 150.713C9.9408 150.833 10.1009 150.9 10.2709 150.9H134.401C134.571 150.9 134.731 150.833 134.851 150.713C134.971 150.593 135.041 150.43 135.041 150.26V70.4402C135.041 70.2722 134.971 70.1123 134.851 69.9943C134.731 69.8763 134.571 69.8102 134.401 69.8102H37.9009C37.7609 69.8092 37.6209 69.7632 37.5109 69.6782C37.4009 69.5942 37.3209 69.4753 37.2809 69.3403Z" fill="#4D61FC"/>
<path opacity="0.2" d="M37.2809 69.3403L35.2809 61.8803C35.2509 61.7453 35.1709 61.6242 35.0609 61.5392C34.9509 61.4542 34.8109 61.4082 34.6709 61.4102H10.2709C10.1009 61.4102 9.9408 61.4783 9.8208 61.5983C9.7008 61.7183 9.63086 61.8802 9.63086 62.0502V150.26C9.63086 150.43 9.7008 150.593 9.8208 150.713C9.9408 150.833 10.1009 150.9 10.2709 150.9H134.401C134.571 150.9 134.731 150.833 134.851 150.713C134.971 150.593 135.041 150.43 135.041 150.26V70.4402C135.041 70.2722 134.971 70.1123 134.851 69.9943C134.731 69.8763 134.571 69.8102 134.401 69.8102H37.9009C37.7609 69.8092 37.6209 69.7632 37.5109 69.6782C37.4009 69.5942 37.3209 69.4753 37.2809 69.3403Z" fill="black"/>
<path d="M10.0391 93.1508L87.859 117.611L119.269 17.7208L61.479 -0.449219L35.459 12.2908L10.0391 93.1508Z" fill="#DADDDF"/>
<path opacity="0.2" d="M61.481 -0.449219L35.4609 12.2908L55.501 18.5908L61.481 -0.449219Z" fill="black"/>
<g opacity="0.2">
<path opacity="0.2" d="M86.0688 96.8167L22.679 76.8906L21.8789 79.4566L85.2689 99.3826L86.0688 96.8167Z" fill="black"/>
<path opacity="0.2" d="M84.0397 103.297L20.6497 83.3711L19.8496 85.9371L83.2396 105.863L84.0397 103.297Z" fill="black"/>
</g>
<path d="M9.87965 150.898H134C134.09 150.897 134.18 150.878 134.26 150.841C134.34 150.803 134.41 150.75 134.47 150.683C134.53 150.616 134.58 150.537 134.6 150.452C134.63 150.367 134.64 150.277 134.63 150.188L126.15 77.0981C126.13 76.9441 126.06 76.8032 125.94 76.7002C125.82 76.5972 125.67 76.5391 125.52 76.5381H26.8797C26.7497 76.5361 26.6297 76.4971 26.5297 76.4261C26.4197 76.3551 26.3397 76.2551 26.2897 76.1381L23.4496 69.2281C23.3996 69.1101 23.3196 69.0082 23.2196 68.9372C23.1096 68.8652 22.9896 68.8271 22.8596 68.8281H0.479628C0.389628 68.8291 0.299618 68.8491 0.219618 68.8861C0.139618 68.9241 0.0596471 68.9791 -0.000352859 69.0471C-0.0603529 69.1151 -0.100358 69.1941 -0.130358 69.2811C-0.150358 69.3671 -0.160377 69.4581 -0.150377 69.5481L9.21962 150.338C9.23962 150.497 9.31959 150.643 9.43959 150.747C9.55959 150.85 9.71965 150.904 9.87965 150.898Z" fill="#4D61FC"/>
<path d="M69.2096 65.2769C73.5133 63.0392 78.3838 62.1282 83.2054 62.659C88.0269 63.1898 92.5828 65.1386 96.2969 68.259C100.01 71.3793 102.715 75.5308 104.07 80.1888C105.424 84.8468 105.366 89.8015 103.904 94.4265C102.442 99.0515 99.6416 103.139 95.8558 106.172C92.0706 109.205 87.4709 111.048 82.638 111.466C77.8056 111.885 72.9572 110.861 68.7067 108.524C64.4562 106.187 60.9944 102.642 58.7587 98.3371C55.7632 92.5669 55.1819 85.8429 57.1415 79.6441C59.1007 73.4447 63.4415 68.277 69.2096 65.2769ZM89.9051 105.084C93.4742 103.229 96.4134 100.357 98.3509 96.8313C100.288 93.3056 101.136 89.2846 100.788 85.277C100.44 81.269 98.9111 77.4543 96.3949 74.3154C93.8791 71.1766 90.4885 68.8542 86.6527 67.6425C82.817 66.4303 78.7078 66.3834 74.8447 67.5064C70.9821 68.6299 67.5388 70.8738 64.9514 73.9538C62.3639 77.0339 60.7478 80.8119 60.3073 84.8107C59.8667 88.8095 60.6224 92.849 62.4779 96.4181C64.9658 101.204 69.2529 104.806 74.3964 106.432C79.5403 108.057 85.1186 107.572 89.9051 105.084Z" fill="#21252B"/>
<path d="M104.879 132.709L90.4357 106.035L86.4637 108.099L100.649 135C100.709 135.113 100.79 135.213 100.888 135.294C100.986 135.375 101.099 135.436 101.221 135.473C101.343 135.51 101.472 135.522 101.598 135.509C101.725 135.496 101.848 135.458 101.96 135.397L104.492 133.994C104.713 133.873 104.877 133.671 104.95 133.431C105.022 133.191 104.997 132.931 104.879 132.709Z" fill="#21252B"/>
<path d="M101.732 134.4L87.5879 107.576L93.0094 105.652L106.736 131.671C106.852 131.893 106.877 132.15 106.806 132.389C106.734 132.628 106.572 132.83 106.354 132.951L103.037 134.782C102.927 134.844 102.805 134.884 102.679 134.898C102.553 134.913 102.426 134.902 102.304 134.866C102.183 134.831 102.069 134.771 101.971 134.691C101.873 134.611 101.792 134.512 101.732 134.4Z" fill="#3F4249"/>
<path opacity="0.3" d="M93.0092 105.664L94.7012 108.914C94.3091 109.146 93.9171 109.368 93.5096 109.579C92.2169 110.248 90.8669 110.801 89.4757 111.23L87.5774 107.588L93.0092 105.664Z" fill="black"/>
<path d="M70.5504 64.7533C74.8556 62.5208 79.7267 61.6144 84.5467 62.1499C89.3672 62.6853 93.9205 64.6378 97.631 67.7607C101.342 70.8836 104.043 75.0366 105.393 79.6946C106.744 84.3527 106.683 89.3068 105.218 93.9303C103.753 98.5537 100.95 102.639 97.1636 105.669C93.3768 108.7 88.7766 110.539 83.9447 110.956C79.1128 111.372 74.266 110.346 70.017 108.008C65.7675 105.669 62.3078 102.123 60.0737 97.8186C57.0787 92.0449 56.5 85.3173 58.4648 79.1164C60.4296 72.916 64.7766 67.7493 70.5504 64.7533ZM91.2459 104.561C94.8145 102.705 97.7527 99.8325 99.6892 96.3067C101.626 92.781 102.473 88.76 102.124 84.7524C101.776 80.7454 100.247 76.9313 97.7305 73.7929C95.2143 70.6545 91.8242 68.3327 87.9884 67.1205C84.1526 65.9088 80.0439 65.8619 76.1813 66.9854C72.3187 68.1083 68.876 70.3517 66.2885 73.4318C63.7011 76.5114 62.085 80.2894 61.6444 84.2877C61.2039 88.2859 61.9586 92.3255 63.8135 95.8946C65.0454 98.2654 66.7322 100.37 68.7775 102.088C70.8233 103.807 73.1869 105.105 75.7346 105.91C78.2818 106.715 80.9632 107.01 83.6244 106.779C86.2861 106.547 88.8756 105.794 91.2459 104.561Z" fill="#3F4249"/>
<path d="M59.1849 38.9314C60.0507 36.4712 61.5581 34.7388 63.707 33.7343C65.8739 32.7205 68.4394 32.6809 71.4036 33.6155C74.1903 34.4941 76.2159 35.9288 77.4805 37.9194C78.7588 39.9144 79.0405 42.0456 78.3255 44.3132C77.3995 47.2501 75.2172 49.1226 71.7786 49.9306C70.1944 50.2872 69.0599 50.7179 68.3751 51.2229C67.6902 51.7278 67.1863 52.4925 66.8633 53.517L66.4886 54.7054L61.7349 53.2066L62.1731 51.7454C62.547 50.2263 63.1937 49.056 64.1135 48.2347C65.0469 47.4177 66.3643 46.8118 68.0656 46.4171C69.5952 46.0434 70.7092 45.6062 71.4077 45.1056C72.1105 44.5913 72.6212 43.8287 72.94 42.8179C73.2845 41.7251 73.1705 40.7054 72.5979 39.759C72.0295 38.7988 71.1034 38.1163 69.8193 37.7115C68.508 37.298 67.3309 37.3399 66.2881 37.8371C65.2452 38.3343 64.4826 39.2051 64 40.4497L59.1849 38.9314ZM63.5121 63.431C62.7618 63.8102 61.9701 63.8684 61.1368 63.6057C60.3035 63.343 59.6815 62.839 59.2707 62.0937C58.8779 61.3391 58.8085 60.5588 59.0626 59.7529C59.3168 58.947 59.819 58.3544 60.5693 57.9752C61.3332 57.6004 62.1318 57.5443 62.9651 57.807C63.7984 58.0698 64.4136 58.5716 64.8107 59.3126C65.2078 60.0535 65.2793 60.827 65.0252 61.6329C64.7711 62.4388 64.2668 63.0382 63.5121 63.431Z" fill="black" fill-opacity="0.2"/>
</g>
<defs>
<clipPath id="clip0_1901_163864">
<rect width="143" height="151" fill="white" transform="translate(0.5)"/>
</clipPath>
</defs>
</svg>
