<svg width="302" height="234" viewBox="0 0 302 234" fill="none" xmlns="http://www.w3.org/2000/svg">
<path d="M122.219 142.512H0V218.184H122.219V142.512Z" fill="#D7DADC"/>
<path d="M118.776 145.988H3.47266V214.739H118.776V145.988Z" fill="#F2F2F2"/>
<path d="M118.59 145.988H3.47266V214.739H118.59V145.988Z" fill="#F2F2F2"/>
<path d="M130.844 142.512H122.223V218.184H130.844V142.512Z" fill="#AFB3B8"/>
<path d="M118.776 178.52H3.47266V182.21H118.776V178.52Z" fill="#D7DADC"/>
<path d="M34.5149 148.5H27.2891V178.517H34.5149V148.5Z" fill="#AFB3B8"/>
<path d="M53.8361 148.5H34.5156V178.517H53.8361V148.5Z" fill="#D7DADC"/>
<path d="M40.9337 151.941H36.8711V178.522H40.9337V151.941Z" fill="#AFB3B8"/>
<path d="M51.8188 151.941H40.9336V178.522H51.8188V151.941Z" fill="#D7DADC"/>
<path d="M53.341 178.523H47.2937L43.8203 153.465H49.8677L53.341 178.523Z" fill="#AFB3B8"/>
<path d="M53.3405 178.523H69.4668L65.9935 153.465H49.8672L53.3405 178.523Z" fill="#D7DADC"/>
<path d="M29.0913 214.741H23.044L19.5703 189.684H25.6177L29.0913 214.741Z" fill="#AFB3B8"/>
<path d="M29.0908 214.741H45.2171L41.7435 189.684H25.6172L29.0908 214.741Z" fill="#D7DADC"/>
<path d="M95.2079 206.957H58.1484V214.744H95.2079V206.957Z" fill="#D7DADC"/>
<path d="M84.2916 194.582H58.1484V200.877H84.2916V194.582Z" fill="#D7DADC"/>
<path d="M90.463 200.879H58.1484V206.951H90.463V200.879Z" fill="#D7DADC"/>
<path d="M88.7246 154.207H82.8633V178.527H88.7246V154.207Z" fill="#AFB3B8"/>
<path d="M104.388 154.207H88.7266V178.527H104.388V154.207Z" fill="#D7DADC"/>
<path d="M101.656 156.965H96.043V178.503H101.656V156.965Z" fill="#AFB3B8"/>
<path d="M111.27 156.965H101.656V178.503H111.27V156.965Z" fill="#D7DADC"/>
<path d="M84.2916 199.824H58.1484V200.872H84.2916V199.824Z" fill="#AFB3B8"/>
<path d="M90.463 205.902H58.1484V206.951H90.463V205.902Z" fill="#AFB3B8"/>
<path d="M95.2079 213.688H58.1484V214.736H95.2079V213.688Z" fill="#AFB3B8"/>
<path d="M128.796 218.215L130.13 232.946C130.152 233.073 130.147 233.203 130.113 233.33C130.08 233.454 130.02 233.572 129.938 233.671C129.855 233.774 129.752 233.854 129.635 233.91C129.519 233.966 129.391 233.997 129.261 234C129.083 233.997 128.909 233.938 128.765 233.833C128.62 233.727 128.512 233.581 128.455 233.411L124.609 218.215H128.796Z" fill="#D7DADC"/>
<path d="M128.3 226.805L126.687 226.402L124.609 218.215H128.827L130.13 232.977C130.168 233.169 130.14 233.37 130.05 233.544C129.959 233.718 129.813 233.857 129.633 233.938L128.3 226.805Z" fill="#AFB3B8"/>
<path d="M113.722 218.215L115.055 232.946C115.083 233.073 115.082 233.203 115.053 233.327C115.024 233.454 114.967 233.572 114.887 233.671C114.807 233.774 114.706 233.854 114.59 233.91C114.474 233.969 114.347 233.997 114.218 234C114.035 234 113.857 233.941 113.707 233.836C113.558 233.73 113.444 233.581 113.381 233.411L109.535 218.215H113.722Z" fill="#D7DADC"/>
<path d="M112.326 219.827L109.907 219.362L109.504 218.184H113.691L115.024 232.945C115.062 233.138 115.034 233.339 114.944 233.513C114.854 233.687 114.707 233.826 114.528 233.907L112.326 219.827Z" fill="#AFB3B8"/>
<path d="M22.5772 218.215L21.2747 232.946C21.2409 233.073 21.2369 233.206 21.2635 233.333C21.2899 233.46 21.3464 233.581 21.4276 233.684C21.5092 233.786 21.6134 233.87 21.7325 233.922C21.8512 233.978 21.9812 234.003 22.112 234C22.291 233.997 22.4643 233.938 22.6085 233.833C22.7527 233.727 22.861 233.581 22.9183 233.411L26.7949 218.215H22.5772Z" fill="#D7DADC"/>
<path d="M23.3211 226.061L21.8945 225.689L22.5768 218.215H26.7944L22.9179 233.411C22.8606 233.581 22.7523 233.727 22.6078 233.833C22.4636 233.938 22.2902 233.997 22.1116 234H22.0496L23.3211 226.061Z" fill="#AFB3B8"/>
<path d="M7.13096 218.215L5.79744 232.946C5.76984 233.073 5.77077 233.203 5.79961 233.327C5.82876 233.454 5.88551 233.572 5.96552 233.671C6.04585 233.774 6.14756 233.854 6.26324 233.91C6.37891 233.969 6.50606 233.997 6.63476 234C6.81463 234 6.99017 233.944 7.1353 233.839C7.28075 233.733 7.38774 233.581 7.44108 233.411L11.3176 218.215H7.13096Z" fill="#D7DADC"/>
<path d="M8.74506 219.486L6.91535 219.145L7.13243 218.215H11.3191L7.44255 233.411C7.38921 233.581 7.28222 233.733 7.13678 233.839C6.99164 233.944 6.81611 234 6.63624 234H6.57422L8.74506 219.486Z" fill="#AFB3B8"/>
<path d="M286.802 42.8086H222.824V46.0742H286.802V42.8086Z" fill="#AFB3B8"/>
<path d="M302.276 42.8086H286.832V46.0742H302.276V42.8086Z" fill="#D7DADC"/>
<path d="M248.685 10H242.234V42.8232H248.685V10Z" fill="#AFB3B8"/>
<path d="M265.926 10H248.684V42.8232H265.926V10Z" fill="#D7DADC"/>
<path d="M254.425 13.0703H250.797V42.8264H254.425V13.0703Z" fill="#AFB3B8"/>
<path d="M264.133 13.0703H254.426V42.8264H264.133V13.0703Z" fill="#D7DADC"/>
<path d="M265.493 42.8407H260.097L256.996 14.4336H262.392L265.493 42.8407Z" fill="#AFB3B8"/>
<path d="M265.496 42.8407H279.885L276.784 14.4336H262.395L265.496 42.8407Z" fill="#D7DADC"/>
<path opacity="0.15" d="M288.786 181.094V172.876H266.519C266.063 172.669 265.657 172.367 265.328 171.991C265 171.614 264.755 171.172 264.612 170.693C264.466 170.215 264.429 169.71 264.494 169.215C264.562 168.719 264.733 168.244 265 167.821C268.008 162.983 268.721 156.997 263.108 153.679C258.549 151.012 252.316 152.749 249.804 157.37C247.726 161.184 249.432 164.533 251.385 167.945C251.627 168.369 251.776 168.84 251.826 169.326C251.875 169.812 251.823 170.303 251.671 170.767C251.519 171.231 251.271 171.659 250.945 172.022C250.616 172.385 250.219 172.676 249.773 172.876H227.785V194.646C227.915 195.183 228.173 195.681 228.533 196.098C228.895 196.516 229.351 196.842 229.863 197.048C230.375 197.254 230.93 197.335 231.482 197.284C232.031 197.233 232.561 197.052 233.026 196.755C237.895 193.747 243.88 193.065 247.168 198.647C249.835 203.206 247.881 209.346 243.229 211.858C239.415 213.936 236.376 212.261 232.902 210.369C230.638 209.16 228.281 210.09 227.785 212.509V233.876H243.229V233.938H276.381V233.876H288.786V212.137C288.817 212.075 288.786 181.094 288.786 181.094Z" fill="black"/>
<path d="M288.786 181.094V172.876H266.519C266.063 172.669 265.657 172.367 265.328 171.991C265 171.614 264.755 171.172 264.612 170.693C264.466 170.215 264.429 169.71 264.494 169.215C264.562 168.719 264.733 168.244 265 167.821C268.008 162.983 268.721 156.997 263.108 153.679C258.549 151.012 252.316 152.749 249.804 157.37C247.726 161.184 249.432 164.533 251.385 167.945C251.627 168.369 251.776 168.84 251.826 169.326C251.875 169.812 251.823 170.303 251.671 170.767C251.519 171.231 251.271 171.659 250.945 172.022C250.616 172.385 250.219 172.676 249.773 172.876H227.785V194.646C227.915 195.183 228.173 195.681 228.533 196.098C228.895 196.516 229.351 196.842 229.863 197.048C230.375 197.254 230.93 197.335 231.482 197.284C232.031 197.233 232.561 197.052 233.026 196.755C237.895 193.747 243.88 193.065 247.168 198.647C249.835 203.206 247.881 209.346 243.229 211.858C239.415 213.936 236.376 212.261 232.902 210.369C230.638 209.16 228.281 210.09 227.785 212.509V233.876H243.229V233.938H276.381V233.876H288.786V212.137C288.817 212.075 288.786 181.094 288.786 181.094Z" fill="#4574F6"/>
<path d="M247.164 198.616C243.877 193.002 237.891 193.716 233.022 196.724C232.495 197.059 231.884 197.245 231.261 197.263C230.634 197.28 230.014 197.129 229.468 196.824C228.923 196.519 228.47 196.072 228.153 195.53C227.84 194.989 227.679 194.372 227.688 193.747V173.465H206.042C205.565 173.641 205.131 173.919 204.772 174.28C204.413 174.64 204.137 175.075 203.963 175.553C203.789 176.031 203.721 176.541 203.764 177.048C203.807 177.555 203.96 178.047 204.212 178.489C206.166 181.9 207.841 185.249 205.794 189.064C203.251 193.716 197.017 195.421 192.49 192.754C186.876 189.467 187.559 183.482 190.567 178.613C190.843 178.168 191.016 177.668 191.073 177.148C191.13 176.629 191.07 176.103 190.898 175.609C190.725 175.115 190.444 174.666 190.076 174.296C189.707 173.924 189.261 173.641 188.768 173.465H167.091V173.31H166.781V172.938H166.688V233.938H227.688V213.377C227.682 212.765 227.84 212.162 228.141 211.629C228.445 211.097 228.882 210.654 229.413 210.346C229.94 210.037 230.541 209.874 231.155 209.873C231.766 209.871 232.368 210.032 232.898 210.338C236.31 212.292 239.69 213.966 243.504 211.92C248.125 209.408 249.862 203.143 247.164 198.616Z" fill="#4574F6"/>
<path d="M288.785 172.225L288.878 112.496H227.877V133.305C227.877 136.065 222.264 142.206 219.938 140.748C215.1 137.709 211.689 132.561 208.371 138.174C205.704 142.702 207.44 148.935 212.061 151.478C215.876 153.525 219.101 148.377 222.512 146.423C224.838 145.09 227.877 150.238 227.877 152.936V173.497H249.245C249.762 173.354 250.243 173.095 250.646 172.74C251.049 172.384 251.366 171.942 251.57 171.445C251.778 170.949 251.868 170.412 251.834 169.876C251.803 169.339 251.648 168.817 251.384 168.349C249.431 164.969 247.725 161.588 249.803 157.774C252.315 153.153 258.548 151.416 263.107 154.114C268.72 157.402 268.007 163.387 264.999 168.256C264.71 168.723 264.534 169.253 264.487 169.801C264.437 170.349 264.521 170.9 264.726 171.41C264.93 171.921 265.253 172.375 265.669 172.738C266.081 173.101 266.574 173.36 267.107 173.497H288.785V172.225Z" fill="#4574F6"/>
<path opacity="0.15" d="M288.788 172.225V112.496H227.788V133.305C227.788 136.065 236.533 134.391 233.246 140.004C230.548 144.532 225.183 142.609 229.803 145.152C233.618 147.199 222.981 149.121 226.392 147.168C228.718 145.834 227.788 150.238 227.788 152.936V173.497H249.186C249.701 173.355 250.175 173.097 250.575 172.743C250.975 172.389 251.289 171.948 251.493 171.454C251.695 170.961 251.785 170.427 251.751 169.894C251.717 169.361 251.558 168.844 251.295 168.38C249.341 164.969 247.666 161.588 249.713 157.774C252.225 153.153 258.49 151.416 263.017 154.114C268.63 157.402 267.948 163.387 264.909 168.256C264.621 168.725 264.444 169.257 264.4 169.807C264.354 170.357 264.438 170.909 264.649 171.42C264.856 171.931 265.182 172.385 265.601 172.746C266.016 173.107 266.512 173.364 267.049 173.497H288.788V172.225Z" fill="black"/>
<path opacity="0.5" d="M288.786 181.094V172.876H266.519C266.063 172.669 265.657 172.367 265.328 171.991C265 171.614 264.755 171.172 264.612 170.693C264.466 170.215 264.429 169.71 264.494 169.215C264.562 168.719 264.733 168.244 265 167.821C268.008 162.983 268.721 156.997 263.108 153.679C258.549 151.012 252.316 152.749 249.804 157.37C247.726 161.184 249.432 164.533 251.385 167.945C251.627 168.369 251.776 168.84 251.826 169.326C251.875 169.812 251.823 170.303 251.671 170.767C251.519 171.231 251.271 171.659 250.945 172.022C250.616 172.385 250.219 172.676 249.773 172.876H227.785V194.646C227.915 195.183 228.173 195.681 228.533 196.098C228.895 196.516 229.351 196.842 229.863 197.048C230.375 197.254 230.93 197.335 231.482 197.284C232.031 197.233 232.561 197.052 233.026 196.755C237.895 193.747 243.88 193.065 247.168 198.647C249.835 203.206 247.881 209.346 243.229 211.858C239.415 213.936 236.376 212.261 232.902 210.369C230.638 209.16 228.281 210.09 227.785 212.509V233.876H243.229V233.938H276.381V233.876H288.786V181.094Z" fill="white"/>
<path d="M199.036 115.192C198.787 112.897 196.741 111.811 194.539 112.742C191.19 114.106 188.243 115.347 184.925 113.083C180.925 110.323 179.715 104.524 182.599 100.616C186.166 95.8093 191.593 96.9877 195.748 100.244C196.148 100.553 196.615 100.763 197.112 100.858C197.608 100.954 198.119 100.931 198.605 100.792C199.091 100.653 199.537 100.402 199.909 100.059C200.279 99.7162 200.565 99.2907 200.741 98.8174L201.982 87.0018L202.819 79.1248V78.8767L196.462 78.1944L149.323 73.2325L146.904 72.9844V73.2635L146.129 80.5203L144.826 93.1422L144.702 93.3283L143.09 108.741C143.107 108.815 143.127 108.887 143.152 108.958L141.043 128.868H141.322V129.023L148.579 129.799L161.201 131.132C161.636 131.337 162.019 131.637 162.322 132.011C162.625 132.384 162.84 132.821 162.95 133.29C163.06 133.758 163.063 134.244 162.959 134.714C162.855 135.183 162.646 135.623 162.348 136.001C159.123 140.157 157.914 145.584 162.72 149.15C166.659 152.034 172.52 151.073 175.28 147.072C177.544 143.754 176.304 140.529 174.846 137.21C174.661 136.78 174.572 136.314 174.583 135.845C174.595 135.377 174.708 134.916 174.914 134.495C175.12 134.074 175.415 133.702 175.778 133.406C176.141 133.109 176.563 132.894 177.017 132.776L196.958 134.884L197.795 126.697L199.036 115.192Z" fill="#4574F6"/>
<path opacity="0.5" d="M199.036 115.192C198.787 112.897 196.741 111.811 194.539 112.742C191.19 114.106 188.243 115.347 184.925 113.083C180.925 110.323 179.715 104.524 182.599 100.616C186.166 95.8093 191.593 96.9877 195.748 100.244C196.148 100.553 196.615 100.763 197.112 100.858C197.608 100.954 198.119 100.931 198.605 100.792C199.091 100.653 199.537 100.402 199.909 100.059C200.279 99.7162 200.565 99.2907 200.741 98.8174L201.982 87.0018L202.819 79.1248V78.8767L196.462 78.1944L149.323 73.2325L146.904 72.9844V73.2635L146.129 80.5203L144.826 93.1422L144.702 93.3283L143.09 108.741C143.107 108.815 143.127 108.887 143.152 108.958L141.043 128.868H141.322V129.023L148.579 129.799L161.201 131.132C161.636 131.337 162.019 131.637 162.322 132.011C162.625 132.384 162.84 132.821 162.95 133.29C163.06 133.758 163.063 134.244 162.959 134.714C162.855 135.183 162.646 135.623 162.348 136.001C159.123 140.157 157.914 145.584 162.72 149.15C166.659 152.034 172.52 151.073 175.28 147.072C177.544 143.754 176.304 140.529 174.846 137.21C174.661 136.78 174.572 136.314 174.583 135.845C174.595 135.377 174.708 134.916 174.914 134.495C175.12 134.074 175.415 133.702 175.778 133.406C176.141 133.109 176.563 132.894 177.017 132.776L196.958 134.884L197.795 126.697L199.036 115.192Z" fill="white"/>
<path d="M290.927 112.963C291.15 112.963 291.33 112.782 291.33 112.559C291.33 112.337 291.15 112.156 290.927 112.156C290.703 112.156 290.523 112.337 290.523 112.559C290.523 112.782 290.703 112.963 290.927 112.963Z" fill="white"/>
<path d="M285.993 173.186V172.876H263.726C263.267 172.672 262.861 172.372 262.526 171.997C262.194 171.622 261.946 171.18 261.8 170.701C261.652 170.222 261.611 169.717 261.676 169.22C261.741 168.723 261.912 168.246 262.176 167.821C265.215 162.983 265.897 156.997 260.284 153.679C255.756 151.012 249.523 152.749 247.011 157.37C244.933 161.184 246.639 164.533 248.561 167.945C248.803 168.369 248.952 168.84 249.002 169.326C249.051 169.812 248.999 170.303 248.847 170.767C248.695 171.231 248.447 171.659 248.121 172.022C247.792 172.385 247.395 172.676 246.949 172.876H224.992V194.646C225.122 195.183 225.38 195.681 225.74 196.098C226.102 196.516 226.558 196.842 227.07 197.048C227.582 197.254 228.137 197.335 228.689 197.284C229.238 197.233 229.768 197.052 230.233 196.755C235.071 193.747 241.087 193.065 244.375 198.647C247.042 203.206 245.057 209.346 240.436 211.858C236.622 213.936 233.552 212.261 230.109 210.369C227.814 209.16 225.488 210.09 224.992 212.509V233.876H240.405V233.938H273.557V233.876H285.993V173.186Z" fill="#4574F6"/>
<path d="M244.375 198.616C241.087 193.002 235.071 193.716 230.233 196.724C229.703 197.056 229.092 197.24 228.465 197.257C227.839 197.274 227.219 197.122 226.673 196.818C226.124 196.514 225.668 196.069 225.352 195.529C225.032 194.988 224.868 194.373 224.868 193.747V173.465H203.253C202.773 173.638 202.336 173.913 201.974 174.273C201.612 174.632 201.332 175.066 201.155 175.544C200.977 176.023 200.907 176.534 200.948 177.043C200.989 177.551 201.14 178.045 201.392 178.489C203.346 181.9 205.051 185.249 202.973 189.064C200.461 193.716 194.228 195.421 189.669 192.754C184.056 189.467 184.769 183.482 187.778 178.613C188.053 178.168 188.226 177.668 188.283 177.148C188.341 176.629 188.281 176.103 188.108 175.609C187.936 175.115 187.655 174.666 187.287 174.296C186.918 173.924 186.471 173.641 185.979 173.465H164.27V173.31H163.96V172.938H163.867V233.938H224.868V213.377C224.868 212.764 225.029 212.162 225.336 211.63C225.643 211.099 226.084 210.658 226.614 210.35C227.144 210.043 227.746 209.879 228.36 209.877C228.974 209.875 229.576 210.034 230.109 210.338C233.52 212.292 236.87 213.966 240.684 211.92C245.336 209.408 247.042 203.143 244.375 198.616Z" fill="#4574F6"/>
<path d="M285.962 172.225V112.496H224.962V133.305C224.962 133.932 224.797 134.547 224.478 135.087C224.161 135.628 223.706 136.073 223.157 136.377C222.611 136.681 221.991 136.833 221.364 136.816C220.738 136.799 220.127 136.615 219.596 136.282C214.759 133.243 208.774 132.561 205.455 138.174C202.788 142.702 204.494 148.935 209.146 151.478C212.96 153.525 216.309 151.85 219.721 149.897C220.254 149.593 220.856 149.434 221.47 149.436C222.084 149.438 222.685 149.601 223.216 149.909C223.746 150.217 224.186 150.658 224.493 151.189C224.8 151.72 224.962 152.323 224.962 152.936V173.497H246.329C246.847 173.354 247.327 173.095 247.731 172.74C248.134 172.384 248.45 171.942 248.655 171.445C248.863 170.949 248.953 170.412 248.918 169.876C248.887 169.339 248.732 168.817 248.469 168.349C246.515 164.969 244.809 161.588 246.887 157.774C249.399 153.153 255.633 151.416 260.191 154.114C265.773 157.402 265.091 163.387 262.083 168.256C261.795 168.723 261.618 169.253 261.571 169.801C261.522 170.349 261.605 170.9 261.81 171.41C262.015 171.921 262.337 172.375 262.753 172.738C263.165 173.101 263.658 173.36 264.192 173.497H285.962V172.225Z" fill="#4574F6"/>
<path d="M196.989 115.067C196.772 112.772 194.725 111.686 192.523 112.617C189.174 113.981 186.197 115.222 182.909 112.958C178.909 110.198 177.668 104.399 180.553 100.491C184.119 95.6843 189.546 96.8627 193.702 100.119C194.104 100.428 194.573 100.638 195.072 100.733C195.57 100.828 196.084 100.805 196.572 100.667C197.06 100.528 197.509 100.278 197.883 99.9348C198.256 99.5921 198.545 99.1666 198.726 98.6924L199.966 86.8768L200.772 78.9998V78.7517L194.415 78.0694L147.277 73.1075L144.889 72.8594V73.1385L144.113 80.3953L142.78 93.0172L142.687 93.2033L141.043 108.616L141.136 108.833L139.027 128.743H139.306V128.898L146.532 129.674L159.185 131.007C159.62 131.212 160.004 131.512 160.307 131.886C160.609 132.259 160.824 132.697 160.934 133.165C161.044 133.633 161.048 134.12 160.944 134.589C160.839 135.059 160.631 135.499 160.333 135.876C157.107 140.032 155.898 145.459 160.705 149.025C164.612 151.909 170.505 150.948 173.265 146.947C175.529 143.629 174.288 140.404 172.831 137.085C172.64 136.655 172.546 136.189 172.555 135.718C172.564 135.248 172.676 134.785 172.883 134.363C173.09 133.94 173.387 133.568 173.753 133.272C174.119 132.976 174.545 132.764 175.001 132.651L194.911 134.759L195.779 126.572L196.989 115.067Z" fill="#4574F6"/>
<path opacity="0.7" d="M285.993 172.876H263.726C263.267 172.672 262.861 172.372 262.526 171.997C262.194 171.622 261.946 171.18 261.8 170.701C261.652 170.222 261.611 169.717 261.676 169.22C261.741 168.723 261.912 168.246 262.176 167.821C265.215 162.983 265.897 156.997 260.284 153.679C255.756 151.012 249.523 152.749 247.011 157.37C244.933 161.184 246.639 164.533 248.561 167.945C248.803 168.369 248.952 168.84 249.002 169.326C249.051 169.812 248.999 170.303 248.847 170.767C248.695 171.231 248.447 171.659 248.121 172.022C247.792 172.385 247.395 172.676 246.949 172.876H224.992V194.646C225.122 195.183 225.38 195.681 225.74 196.098C226.102 196.516 226.558 196.842 227.07 197.048C227.582 197.254 228.137 197.335 228.689 197.284C229.238 197.233 229.768 197.052 230.233 196.755C235.071 193.747 241.087 193.065 244.375 198.647C247.042 203.206 245.057 209.346 240.436 211.858C236.622 213.936 233.552 212.261 230.109 210.369C227.814 209.16 225.488 210.09 224.992 212.509V233.876H240.405V233.938H273.557V233.876H285.993V172.876Z" fill="white"/>
<path opacity="0.7" d="M196.989 115.067C196.772 112.772 194.725 111.686 192.523 112.617C189.174 113.981 186.197 115.222 182.909 112.958C178.909 110.198 177.668 104.399 180.553 100.491C184.119 95.6843 189.546 96.8627 193.702 100.119C194.104 100.428 194.573 100.638 195.072 100.733C195.57 100.828 196.084 100.805 196.572 100.667C197.06 100.528 197.509 100.278 197.883 99.9348C198.256 99.5921 198.545 99.1666 198.726 98.6924L199.966 86.8768L200.772 78.9998V78.7517L194.415 78.0694L147.277 73.1075L144.889 72.8594V73.1385L144.113 80.3953L142.78 93.0172L142.687 93.2033L141.043 108.616L141.136 108.833L139.027 128.743H139.306V128.898L146.532 129.674L159.185 131.007C159.62 131.212 160.004 131.512 160.307 131.886C160.609 132.259 160.824 132.697 160.934 133.165C161.044 133.633 161.048 134.12 160.944 134.589C160.839 135.059 160.631 135.499 160.333 135.876C157.107 140.032 155.898 145.459 160.705 149.025C164.612 151.909 170.505 150.948 173.265 146.947C175.529 143.629 174.288 140.404 172.831 137.085C172.64 136.655 172.546 136.189 172.555 135.718C172.564 135.248 172.676 134.785 172.883 134.363C173.09 133.94 173.387 133.568 173.753 133.272C174.119 132.976 174.545 132.764 175.001 132.651L194.911 134.759L195.779 126.572L196.989 115.067Z" fill="white"/>
<path d="M165.047 72.5825L169.296 72.3344C169.394 72.3251 169.492 72.3434 169.581 72.3871C169.669 72.4311 169.743 72.4991 169.795 72.5828C169.847 72.6668 169.874 72.7636 169.873 72.8622C169.872 72.9608 169.844 73.0573 169.792 73.1407C169.597 73.4704 169.304 73.7306 168.954 73.885L165.047 72.5825Z" fill="#F39494"/>
<path d="M162.223 71.8061C162.223 71.8061 166.316 71.2789 166.533 71.3099C166.75 71.3409 167.432 72.0542 166.657 72.4884L164.641 72.6124L162.223 71.8061Z" fill="#F39494"/>
<path opacity="0.15" d="M166.041 72.5195C166.227 72.6126 169.638 73.3879 169.638 73.3879L169.111 73.8841L164.77 72.6436L166.041 72.5195Z" fill="black"/>
<path opacity="0.15" d="M162.905 71.7422L166.038 72.5175L165.541 72.5795L162.285 71.8042L162.905 71.7422Z" fill="black"/>
<path d="M173.202 75.7757C173.884 75.7447 173.791 74.7833 173.109 74.5663C170.07 73.5739 162.193 71.7752 161.789 71.7131C161.386 71.6511 153.695 70.9068 145.725 70.4727L145.539 78.4117C147.763 78.3113 149.991 78.3736 152.207 78.5978C153.168 78.7219 155.37 79.2181 156.548 79.9623C157.727 80.7066 159.836 81.544 161.045 81.73C161.171 81.7409 161.297 81.7062 161.399 81.6324C161.502 81.5582 161.574 81.45 161.603 81.3269C161.665 80.8617 161.696 80.1794 161.076 79.9003C160.456 79.6212 157.665 77.9156 158.037 77.0472C158.409 76.1789 161.107 75.5896 161.572 75.7137C162.037 75.8377 165.852 76.6441 165.914 76.8611C165.976 77.0782 169.139 80.6136 170.132 80.3655C170.243 80.3394 170.347 80.2867 170.434 80.212C170.521 80.1373 170.589 80.0424 170.631 79.936C170.674 79.8293 170.69 79.7143 170.679 79.6001C170.668 79.4857 170.628 79.3762 170.566 79.2801C169.853 78.2567 168.581 76.1789 167.961 75.3416C169.853 75.4966 172.458 75.8067 173.202 75.7757Z" fill="#F39494"/>
<path opacity="0.15" d="M167.929 75.3433C167.715 75.0949 167.436 74.9123 167.122 74.8161L163.742 73.7617L167.247 74.537C167.586 74.6282 167.883 74.8369 168.084 75.1263L168.208 75.3433H167.929Z" fill="black"/>
<path opacity="0.15" d="M170.193 79.5597C169.293 79.7767 166.688 76.9236 166.099 76.2104C166.007 76.1009 165.89 76.0156 165.758 75.9623L161.633 74.8768C161.168 74.7838 158.47 75.373 158.067 76.2414C158.045 76.3428 158.045 76.4476 158.067 76.549C158.088 76.6507 158.13 76.7465 158.191 76.8306C158.873 76.0863 161.137 75.5901 161.571 75.6831C162.006 75.7762 165.851 76.6445 165.913 76.8616C165.975 77.0787 169.138 80.6141 170.131 80.366C170.238 80.3384 170.337 80.2859 170.42 80.2134C170.504 80.1405 170.569 80.0496 170.611 79.9473C170.653 79.845 170.671 79.7342 170.663 79.6238C170.655 79.5137 170.621 79.4068 170.565 79.3116C170.476 79.4378 170.343 79.5262 170.193 79.5597Z" fill="black"/>
<path opacity="0.15" d="M161.107 80.9266C159.898 80.7405 157.634 79.8102 156.61 79.1589C155.587 78.5077 154.315 77.5153 153.106 77.1431C151.276 76.7279 149.398 76.561 147.524 76.6469L145.539 78.4146C147.763 78.3141 149.991 78.3765 152.207 78.6007C153.168 78.7247 155.37 79.2209 156.548 79.9652C157.727 80.7095 159.836 81.5468 161.076 81.7329C161.198 81.7425 161.32 81.7069 161.417 81.6324C161.514 81.558 161.581 81.4501 161.603 81.3298C161.65 81.0944 161.65 80.8519 161.603 80.6165C161.574 80.7207 161.507 80.8103 161.415 80.8677C161.323 80.925 161.214 80.9461 161.107 80.9266Z" fill="black"/>
<path d="M150.904 70.503L128.42 65.293L118.496 75.527L149.508 78.7832L150.904 70.503Z" fill="#4574F6"/>
<path d="M150.904 70.503L128.42 65.293L118.496 75.527L149.508 78.7832L150.904 70.503Z" fill="#4574F6"/>
<path d="M128.421 65.2986L125.01 39.2485C124.079 34.2866 120.668 33.3562 117.908 32.1467L114.559 30.9062L118.497 75.5326L128.421 65.2986Z" fill="#4574F6"/>
<path opacity="0.15" d="M122.47 71.5239L122.407 41.8764C122.128 40.3878 122.128 38.1239 119.709 36.8214L114.934 34.9297L118.5 75.6175L147.651 78.4086L148.023 76.2688L123.927 72.8265C123.745 72.8389 123.563 72.815 123.391 72.756C123.218 72.6968 123.059 72.6038 122.924 72.4825C122.788 72.3613 122.678 72.2137 122.599 72.049C122.522 71.8843 122.477 71.7057 122.47 71.5239Z" fill="black"/>
<path d="M150.904 70.5051L149.508 78.7853L147.523 78.9093L148.888 69.6367L150.904 70.5051Z" fill="#21252B"/>
<path d="M83.359 98.7268L77.8698 46.9986C77.4357 41.6645 81.7774 35.7412 86.8633 33.9736L99.6713 29.5078L109.533 30.5002L114.278 30.9344C114.371 31.0584 124.45 39.7418 124.388 39.5557L124.078 99.6572L83.359 98.7268Z" fill="#4574F6"/>
<path opacity="0.15" d="M105.133 34.4685L107.335 47.2765L106.559 34.4375L105.133 34.4685Z" fill="black"/>
<path d="M119.552 41.1943L119.924 40.8221C119.946 40.7924 119.957 40.7555 119.955 40.7182C119.952 40.681 119.936 40.646 119.91 40.6196C119.883 40.5933 119.848 40.5771 119.811 40.5743C119.774 40.5719 119.737 40.5827 119.707 40.6051L119.304 40.9772L118.932 40.6051C118.918 40.5874 118.901 40.5725 118.882 40.5619C118.862 40.5514 118.841 40.5452 118.818 40.5433C118.796 40.5418 118.774 40.5452 118.753 40.553C118.732 40.5607 118.714 40.5728 118.698 40.5886C118.682 40.6041 118.67 40.623 118.662 40.6438C118.654 40.6646 118.651 40.6869 118.653 40.7093C118.654 40.7313 118.661 40.753 118.671 40.7722C118.682 40.7917 118.697 40.8088 118.714 40.8221L119.087 41.1943L118.714 41.5664C118.697 41.5798 118.682 41.5968 118.671 41.6163C118.661 41.6359 118.654 41.6573 118.653 41.6796C118.651 41.7016 118.654 41.724 118.662 41.7447C118.67 41.7655 118.682 41.7844 118.698 41.8003C118.714 41.8158 118.732 41.8282 118.753 41.8359C118.774 41.8437 118.796 41.8468 118.818 41.8452C118.841 41.8437 118.862 41.8372 118.882 41.8266C118.901 41.8161 118.918 41.8012 118.932 41.7835L119.304 41.4114L119.707 41.7835C119.72 41.8012 119.737 41.8161 119.757 41.8266C119.776 41.8372 119.798 41.8437 119.82 41.8452C119.842 41.8468 119.864 41.8437 119.885 41.8359C119.906 41.8282 119.925 41.8158 119.941 41.8003C119.956 41.7844 119.968 41.7655 119.976 41.7447C119.984 41.724 119.987 41.7016 119.986 41.6796C119.984 41.6573 119.978 41.6359 119.967 41.6163C119.956 41.5968 119.942 41.5798 119.924 41.5664L119.552 41.1943Z" fill="white"/>
<path d="M109.692 51.987L110.188 51.8009C110.229 51.7845 110.262 51.7526 110.28 51.7116C110.297 51.671 110.298 51.6251 110.281 51.5839C110.265 51.5429 110.233 51.5097 110.192 51.4924C110.151 51.475 110.105 51.4744 110.064 51.4908L109.599 51.7079L109.382 51.2117C109.38 51.1912 109.372 51.1717 109.361 51.1546C109.348 51.1376 109.333 51.1239 109.314 51.1146C109.296 51.1056 109.275 51.101 109.254 51.1016C109.234 51.1025 109.214 51.1081 109.196 51.1187C109.174 51.1255 109.155 51.1367 109.138 51.1516C109.121 51.1667 109.108 51.185 109.099 51.2058C109.09 51.2263 109.086 51.2486 109.087 51.2713C109.087 51.2936 109.093 51.3156 109.103 51.3358L109.289 51.8009L108.793 52.018C108.731 52.049 108.669 52.1421 108.7 52.2041C108.731 52.2661 108.824 52.3281 108.917 52.2971L109.413 52.1111L109.599 52.6073C109.619 52.6454 109.651 52.6758 109.691 52.6925C109.73 52.7096 109.775 52.7124 109.816 52.7003C109.854 52.6804 109.885 52.6482 109.901 52.6085C109.918 52.5688 109.921 52.5248 109.909 52.4832L109.692 51.987Z" fill="white"/>
<path d="M90.4321 37.692L90.8973 37.5059C90.9904 37.4439 91.0214 37.3819 90.9904 37.2888C90.9882 37.2684 90.9808 37.2485 90.969 37.2318C90.9569 37.2147 90.941 37.2011 90.9227 37.1918C90.9041 37.1825 90.8837 37.1781 90.8629 37.1787C90.8424 37.1794 90.8223 37.1853 90.8043 37.1958L90.3081 37.4129L90.091 36.9167C90.091 36.8922 90.0851 36.868 90.0739 36.846C90.0628 36.8243 90.0467 36.8054 90.0268 36.7908C90.0067 36.7765 89.9837 36.7672 89.9595 36.7635C89.935 36.7598 89.9102 36.7619 89.887 36.7697C89.8637 36.7775 89.8426 36.7905 89.8252 36.8082C89.8082 36.8255 89.7955 36.8469 89.788 36.8705C89.7806 36.8941 89.779 36.9189 89.7831 36.9431C89.7874 36.9672 89.7973 36.9902 89.8119 37.0097L89.998 37.5059L89.5018 37.723C89.4717 37.7422 89.4491 37.7711 89.4376 37.8049C89.4264 37.839 89.427 37.8756 89.4398 37.9091C89.4422 37.9295 89.4497 37.9494 89.4615 37.9661C89.4732 37.9832 89.4891 37.9968 89.5077 38.0062C89.526 38.0155 89.5464 38.0198 89.5672 38.0192C89.588 38.0186 89.6082 38.0127 89.6258 38.0021L90.122 37.816L90.3081 38.3122C90.3326 38.3448 90.367 38.3687 90.4061 38.3798C90.4455 38.391 90.4873 38.3891 90.5252 38.3743C90.5456 38.3721 90.5655 38.3647 90.5822 38.3526C90.5993 38.3408 90.6129 38.325 90.6222 38.3063C90.6315 38.288 90.6359 38.2676 90.6353 38.2468C90.6347 38.226 90.6288 38.2059 90.6182 38.1882L90.4321 37.692Z" fill="white"/>
<path d="M122.532 53.325L123.028 53.1389C123.061 53.1144 123.085 53.08 123.096 53.0409C123.107 53.0015 123.105 52.9596 123.09 52.9218C123.059 52.8598 122.966 52.7978 122.904 52.8288L122.408 53.0459L122.222 52.5497C122.202 52.5115 122.17 52.4811 122.13 52.4644C122.09 52.4473 122.046 52.4445 122.005 52.4566C121.983 52.4631 121.964 52.4746 121.947 52.4895C121.93 52.5047 121.917 52.523 121.908 52.5438C121.899 52.5642 121.895 52.5866 121.896 52.6092C121.896 52.6315 121.902 52.6536 121.912 52.6737L122.098 53.1699L121.633 53.356C121.611 53.3625 121.591 53.374 121.575 53.3888C121.558 53.404 121.545 53.4223 121.536 53.4431C121.527 53.4636 121.523 53.4859 121.523 53.5086C121.524 53.5309 121.53 53.5529 121.54 53.5731C121.571 53.6351 121.664 53.6971 121.726 53.6351L122.222 53.449L122.439 53.9452C122.441 53.9657 122.449 53.9852 122.461 54.0023C122.472 54.0193 122.488 54.033 122.507 54.0423C122.525 54.0516 122.546 54.0559 122.566 54.0553C122.587 54.0547 122.607 54.0488 122.625 54.0382C122.646 54.0317 122.666 54.0203 122.683 54.0054C122.7 53.9902 122.713 53.9719 122.722 53.9511C122.73 53.9306 122.735 53.9083 122.734 53.8857C122.734 53.8633 122.728 53.8413 122.718 53.8212L122.532 53.325Z" fill="white"/>
<path d="M106.653 65.2007L107.149 64.9836C107.211 64.9526 107.273 64.8596 107.242 64.7975C107.235 64.7761 107.224 64.7563 107.209 64.7395C107.194 64.7231 107.175 64.7098 107.155 64.7008C107.134 64.6921 107.112 64.6878 107.09 64.6884C107.067 64.689 107.045 64.6946 107.025 64.7045L106.529 64.8906L106.343 64.3944C106.336 64.373 106.325 64.3531 106.31 64.3364C106.295 64.32 106.276 64.3066 106.256 64.2976C106.235 64.2889 106.213 64.2846 106.19 64.2852C106.168 64.2858 106.146 64.2914 106.125 64.3013C106.087 64.3212 106.057 64.3537 106.04 64.3931C106.023 64.4328 106.02 64.4772 106.032 64.5184L106.249 65.0146L105.753 65.2007C105.727 65.2202 105.708 65.2475 105.698 65.2785C105.689 65.3095 105.689 65.343 105.699 65.3737C105.71 65.4047 105.729 65.4314 105.756 65.4507C105.782 65.4696 105.814 65.4798 105.846 65.4798L106.343 65.2937L106.56 65.7899C106.562 65.8104 106.57 65.8302 106.581 65.847C106.593 65.864 106.609 65.8777 106.628 65.887C106.646 65.8963 106.667 65.9006 106.687 65.9C106.708 65.8994 106.728 65.8935 106.746 65.883C106.767 65.8764 106.787 65.8653 106.804 65.8501C106.82 65.8352 106.833 65.8166 106.842 65.7958C106.851 65.7753 106.855 65.753 106.855 65.7307C106.854 65.708 106.849 65.686 106.839 65.6659L106.653 65.2007Z" fill="white"/>
<path d="M104.759 58.4711L105.255 58.254C105.276 58.2516 105.296 58.2441 105.313 58.2323C105.33 58.2205 105.343 58.2047 105.353 58.1861C105.362 58.1675 105.366 58.1471 105.366 58.1266C105.365 58.1058 105.359 58.0856 105.348 58.068C105.342 58.0463 105.331 58.0267 105.316 58.01C105.301 57.9932 105.282 57.9799 105.262 57.9712C105.241 57.9622 105.219 57.9582 105.196 57.9588C105.174 57.9594 105.152 57.9647 105.131 57.9749L104.635 58.161L104.449 57.6648C104.425 57.6319 104.391 57.6081 104.351 57.5969C104.312 57.5857 104.27 57.5879 104.232 57.6028C104.17 57.6338 104.108 57.7268 104.17 57.7889L104.356 58.2851L103.86 58.5021C103.839 58.5043 103.82 58.5118 103.803 58.5235C103.786 58.5353 103.772 58.5515 103.763 58.5697C103.754 58.5884 103.749 58.6088 103.75 58.6293C103.751 58.6501 103.757 58.6702 103.767 58.6882C103.774 58.7096 103.785 58.7291 103.8 58.7459C103.815 58.7626 103.833 58.776 103.854 58.7847C103.875 58.7937 103.897 58.798 103.919 58.7974C103.942 58.7968 103.964 58.7912 103.984 58.7813L104.48 58.5952L104.666 59.0604C104.673 59.0818 104.684 59.1013 104.699 59.118C104.714 59.1348 104.733 59.1481 104.753 59.1568C104.774 59.1658 104.796 59.1701 104.819 59.1695C104.841 59.1686 104.863 59.1633 104.883 59.1534C104.945 59.1224 105.007 59.0294 104.976 58.9673L104.759 58.4711Z" fill="white"/>
<path d="M114.22 63.9586L114.716 63.7725C114.735 63.7629 114.751 63.7492 114.765 63.7328C114.778 63.7167 114.788 63.6978 114.794 63.6773C114.799 63.6568 114.801 63.6357 114.799 63.6147C114.796 63.5939 114.789 63.5734 114.778 63.5554C114.776 63.5349 114.768 63.5151 114.756 63.4984C114.745 63.4813 114.728 63.4677 114.71 63.4584C114.692 63.449 114.671 63.4447 114.65 63.4453C114.63 63.4459 114.61 63.4518 114.592 63.4624L114.095 63.6795L113.909 63.1833C113.901 63.1628 113.889 63.1442 113.874 63.1287C113.859 63.1129 113.84 63.1005 113.82 63.0918C113.8 63.0831 113.779 63.0785 113.756 63.0781C113.734 63.0778 113.713 63.0822 113.692 63.0902C113.672 63.0983 113.654 63.1104 113.638 63.1256C113.622 63.1411 113.61 63.1594 113.601 63.1795C113.592 63.1997 113.588 63.2214 113.587 63.2431C113.587 63.2651 113.591 63.2869 113.599 63.3073L113.816 63.7725L113.32 63.9896C113.299 63.9961 113.279 64.0073 113.262 64.0225C113.246 64.0373 113.232 64.056 113.224 64.0767C113.215 64.0972 113.21 64.1195 113.211 64.1419C113.212 64.1645 113.217 64.1865 113.227 64.2067C113.246 64.2368 113.275 64.2594 113.309 64.2709C113.343 64.282 113.38 64.2814 113.413 64.2687L113.909 64.0826L114.126 64.5788C114.157 64.6408 114.251 64.7029 114.313 64.6719C114.334 64.665 114.354 64.6539 114.371 64.639C114.387 64.6238 114.401 64.6055 114.409 64.5847C114.418 64.5642 114.422 64.5419 114.422 64.5193C114.421 64.4969 114.416 64.4749 114.406 64.4548L114.22 63.9586Z" fill="white"/>
<path d="M97.1912 50.0056L97.6874 49.8195C97.7287 49.8031 97.7615 49.7709 97.7789 49.7302C97.7963 49.6896 97.7969 49.6434 97.7804 49.6025C97.764 49.5612 97.7317 49.5283 97.6911 49.511C97.6505 49.4936 97.6046 49.493 97.5634 49.5094L97.0672 49.7265L96.8811 49.2303C96.8746 49.2089 96.8631 49.1891 96.8482 49.1723C96.833 49.1556 96.8147 49.1426 96.7939 49.1336C96.7735 49.1249 96.7511 49.1205 96.7285 49.1212C96.7062 49.1218 96.6842 49.1274 96.664 49.1373C96.6314 49.1615 96.6076 49.1962 96.5964 49.2353C96.5852 49.2744 96.5871 49.3162 96.602 49.3544L96.7881 49.8195L96.2919 50.0366C96.2537 50.0565 96.2233 50.0887 96.2066 50.1284C96.1895 50.1681 96.1867 50.2122 96.1988 50.2537C96.2233 50.2863 96.2578 50.3102 96.2968 50.3213C96.3362 50.3325 96.3781 50.3306 96.4159 50.3157L96.9121 50.1297L97.0982 50.6259C97.1146 50.6668 97.1469 50.7 97.1875 50.7173C97.2281 50.7347 97.274 50.7353 97.3153 50.7189C97.3565 50.7025 97.3894 50.6702 97.4067 50.6296C97.4241 50.589 97.4247 50.5427 97.4083 50.5018L97.1912 50.0056Z" fill="white"/>
<path d="M83.485 66.6881L83.9812 66.471C84.0017 66.4685 84.0215 66.4614 84.0383 66.4493C84.0553 66.4375 84.069 66.4217 84.0783 66.4031C84.0876 66.3848 84.0919 66.3643 84.0913 66.3435C84.0907 66.3228 84.0848 66.3026 84.0742 66.2849C84.0677 66.2635 84.0562 66.2437 84.0414 66.2269C84.0265 66.2102 84.0079 66.1972 83.9871 66.1882C83.9666 66.1795 83.9443 66.1751 83.9217 66.1758C83.8993 66.1764 83.8773 66.182 83.8571 66.1919L83.392 66.378L83.1749 65.9128C83.1749 65.8883 83.169 65.8641 83.1578 65.8421C83.1467 65.8204 83.1305 65.8014 83.1104 65.7869C83.0905 65.7726 83.0676 65.7633 83.0434 65.7596C83.0189 65.7559 82.9941 65.758 82.9708 65.7658C82.9476 65.7735 82.9265 65.7866 82.9091 65.8042C82.892 65.8216 82.879 65.843 82.8719 65.8666C82.8644 65.8898 82.8629 65.915 82.8669 65.9391C82.8713 65.9633 82.8812 65.9863 82.8958 66.0058L83.0818 66.502L82.5857 66.7191C82.5236 66.7501 82.4616 66.8431 82.4926 66.9052C82.5236 66.9672 82.6167 67.0292 82.7097 66.9982L83.2059 66.8121L83.392 67.3083C83.4165 67.3409 83.4509 67.3648 83.49 67.3759C83.5294 67.3871 83.5712 67.3852 83.6091 67.3703C83.6295 67.3679 83.6494 67.3607 83.6661 67.3486C83.6832 67.3369 83.6968 67.321 83.7061 67.3024C83.7154 67.2841 83.7198 67.2637 83.7191 67.2429C83.7185 67.2221 83.7126 67.202 83.7021 67.1843L83.485 66.6881Z" fill="white"/>
<path d="M84.5389 75.3699L85.035 75.1838C85.0564 75.177 85.0763 75.1658 85.093 75.1509C85.1098 75.1357 85.1228 75.1171 85.1318 75.0967C85.1405 75.0759 85.1448 75.0536 85.1442 75.0312C85.1436 75.0089 85.138 74.9866 85.1281 74.9667C85.1083 74.9283 85.076 74.8982 85.0363 74.8811C84.9966 74.8644 84.9526 74.8616 84.911 74.8737L84.4458 75.0908L84.2287 74.5946C84.2266 74.5738 84.2191 74.5543 84.2074 74.5372C84.1953 74.5205 84.1794 74.5068 84.1611 74.4975C84.1425 74.4882 84.1221 74.4836 84.1013 74.4845C84.0808 74.4851 84.0607 74.491 84.0427 74.5015C84.0213 74.5081 84.0014 74.5192 83.9847 74.5344C83.9682 74.5493 83.9549 74.5679 83.9459 74.5884C83.9372 74.6092 83.9329 74.6315 83.9335 74.6538C83.9341 74.6765 83.9397 74.6985 83.9496 74.7186L84.1357 75.2148L83.6395 75.4009C83.6014 75.4204 83.5713 75.453 83.5542 75.4927C83.5372 75.5324 83.5344 75.5764 83.5465 75.618C83.6085 75.68 83.6705 75.742 83.7636 75.711L84.2597 75.4939L84.4458 75.9901C84.4623 76.0311 84.4945 76.0639 84.5351 76.0816C84.5758 76.099 84.622 76.0996 84.6629 76.0832C84.7042 76.0667 84.737 76.0345 84.7544 75.9939C84.7718 75.9529 84.7724 75.907 84.756 75.8661L84.5389 75.3699Z" fill="white"/>
<path d="M86.3719 89.1428L86.868 88.9567C86.9062 88.9369 86.9366 88.9043 86.9533 88.8649C86.9704 88.8253 86.9732 88.7809 86.9611 88.7397C86.9546 88.7183 86.9434 88.6984 86.9282 88.6817C86.9133 88.6649 86.8947 88.6519 86.8739 88.6429C86.8535 88.6342 86.8311 88.6299 86.8085 88.6305C86.7862 88.6311 86.7641 88.6367 86.744 88.6466L86.2478 88.8327L86.0617 88.3365C86.0375 88.3036 86.0028 88.2801 85.9637 88.2689C85.9243 88.2577 85.8828 88.2596 85.8446 88.2745C85.809 88.2884 85.7795 88.3151 85.7625 88.3495C85.7451 88.384 85.7414 88.4236 85.7516 88.4605L85.9687 88.9567L85.4725 89.1428C85.4511 89.1493 85.4312 89.1608 85.4145 89.1757C85.3981 89.1906 85.3847 89.2092 85.3757 89.23C85.3671 89.2504 85.3627 89.2728 85.3633 89.2954C85.364 89.3177 85.3695 89.3397 85.3795 89.3599C85.4105 89.4219 85.5035 89.4839 85.5655 89.4529L86.0617 89.2669L86.2788 89.7631C86.2993 89.7934 86.3297 89.8155 86.3647 89.8254C86.3998 89.8356 86.4373 89.8328 86.4705 89.8183C86.5037 89.8034 86.5309 89.7773 86.5468 89.7444C86.5629 89.7116 86.5669 89.6744 86.5579 89.639L86.3719 89.1428Z" fill="white"/>
<path d="M92.5082 86.6619L93.0044 86.4758C93.0258 86.4693 93.0456 86.4578 93.0624 86.4429C93.0791 86.4277 93.0922 86.4094 93.1012 86.3887C93.1098 86.3682 93.1142 86.3459 93.1136 86.3232C93.1129 86.3009 93.1074 86.2789 93.0974 86.2587C93.0878 86.2398 93.0742 86.2233 93.0577 86.21C93.0416 86.1964 93.0227 86.1868 93.0022 86.1809C92.9821 86.175 92.9607 86.1734 92.9396 86.1762C92.9188 86.179 92.8987 86.1858 92.8804 86.1967L92.3842 86.3827L92.1981 85.8866C92.1916 85.8652 92.1801 85.8453 92.1652 85.8286C92.15 85.8118 92.1317 85.7988 92.1109 85.7898C92.0905 85.7811 92.0681 85.7768 92.0455 85.7774C92.0232 85.778 92.0012 85.7836 91.981 85.7935C91.9481 85.818 91.9246 85.8524 91.9134 85.8915C91.9019 85.9309 91.9041 85.9728 91.919 86.0106L92.1051 86.5068L91.6089 86.6929C91.5676 86.7093 91.5347 86.7416 91.5174 86.7822C91.5 86.8228 91.4994 86.8687 91.5158 86.91C91.5323 86.9512 91.5645 86.9841 91.6051 87.0014C91.6458 87.0188 91.6917 87.0194 91.7329 87.003L92.2291 86.7859L92.4152 87.2821C92.4232 87.3026 92.4353 87.3209 92.4508 87.3367C92.466 87.3525 92.4843 87.3649 92.5045 87.3736C92.5246 87.3823 92.5464 87.3869 92.5681 87.3869C92.5901 87.3872 92.6118 87.3832 92.6322 87.3751C92.6527 87.3671 92.671 87.355 92.6868 87.3395C92.7027 87.3243 92.7151 87.306 92.7237 87.2858C92.7324 87.2657 92.7371 87.244 92.7371 87.2223C92.7374 87.2002 92.7334 87.1785 92.7253 87.158L92.5082 86.6619Z" fill="white"/>
<path d="M100.697 85.3295L101.193 85.1434C101.232 85.1235 101.262 85.0913 101.279 85.0516C101.296 85.0119 101.298 84.9679 101.286 84.9263C101.28 84.9049 101.269 84.8851 101.253 84.8683C101.238 84.8519 101.22 84.8385 101.199 84.8296C101.179 84.8209 101.156 84.8165 101.134 84.8171C101.111 84.8178 101.089 84.8233 101.069 84.8333L100.573 85.0504L100.387 84.5542C100.37 84.5132 100.339 84.4804 100.298 84.4627C100.257 84.4453 100.211 84.4447 100.17 84.4611C100.129 84.4776 100.096 84.5098 100.078 84.5504C100.061 84.5911 100.06 84.6373 100.077 84.6782L100.294 85.1434L99.7977 85.3605C99.7772 85.363 99.7576 85.3704 99.7406 85.3822C99.7235 85.394 99.7099 85.4098 99.7006 85.4284C99.6916 85.4467 99.6869 85.4672 99.6876 85.4879C99.6885 85.5087 99.6944 85.5289 99.7046 85.5466C99.7115 85.568 99.7226 85.5878 99.7375 85.6045C99.7527 85.6213 99.771 85.6343 99.7918 85.6433C99.8126 85.652 99.8349 85.6563 99.8572 85.6557C99.8795 85.6551 99.9015 85.6495 99.9217 85.6396L100.418 85.4535L100.604 85.9497C100.624 85.9879 100.656 86.0182 100.696 86.0353C100.735 86.052 100.78 86.0548 100.821 86.0427C100.851 86.0158 100.872 85.9813 100.882 85.9429C100.894 85.9047 100.894 85.8641 100.883 85.8257L100.697 85.3295Z" fill="white"/>
<path d="M96.6033 93.4236L97.0994 93.2375C97.1407 93.2211 97.1736 93.1888 97.1909 93.1482C97.2083 93.1076 97.2089 93.0614 97.1925 93.0204C97.176 92.9792 97.1441 92.9463 97.1032 92.9289C97.0625 92.9116 97.0166 92.911 96.9754 92.9274L96.4792 93.1445L96.2931 92.6483C96.2866 92.6269 96.2754 92.607 96.2603 92.5903C96.2454 92.5735 96.2268 92.5605 96.206 92.5515C96.1855 92.5428 96.1632 92.5385 96.1406 92.5391C96.1182 92.5397 96.0962 92.5453 96.076 92.5552C96.0379 92.5751 96.0075 92.6074 95.9908 92.647C95.9737 92.6867 95.9709 92.7308 95.983 92.7723L96.2001 93.2375L95.7039 93.4546C95.6834 93.4568 95.6639 93.4642 95.6468 93.476C95.6298 93.4881 95.6161 93.5039 95.6068 93.5222C95.5975 93.5408 95.5932 93.5613 95.5938 93.582C95.5944 93.6025 95.6003 93.6227 95.6109 93.6407C95.6177 93.6621 95.6289 93.6819 95.6437 93.6987C95.6589 93.7151 95.6772 93.7284 95.698 93.7374C95.7185 93.7461 95.7408 93.7505 95.7634 93.7498C95.7858 93.7492 95.8078 93.7436 95.828 93.7337L96.3241 93.5476L96.5102 94.0438C96.53 94.082 96.5626 94.1121 96.602 94.1291C96.6417 94.1462 96.686 94.149 96.7273 94.1369C96.7893 94.0748 96.8513 93.9818 96.7893 93.9198L96.6033 93.4236Z" fill="white"/>
<path d="M105.438 92.6194L105.934 92.4333C105.973 92.4134 106.003 92.3809 106.02 92.3415C106.037 92.3018 106.04 92.2578 106.027 92.2162C106.021 92.1948 106.01 92.175 105.995 92.1582C105.98 92.1418 105.961 92.1285 105.94 92.1195C105.92 92.1108 105.898 92.1064 105.875 92.107C105.853 92.1077 105.831 92.1132 105.81 92.1232L105.314 92.3093L105.128 91.8131C105.104 91.7805 105.069 91.7566 105.03 91.7455C104.991 91.7343 104.949 91.7362 104.911 91.751C104.875 91.765 104.846 91.792 104.829 91.8261C104.812 91.8605 104.808 91.9002 104.818 91.9371L105.035 92.4333L104.539 92.6194C104.518 92.6262 104.498 92.6373 104.481 92.6522C104.464 92.6674 104.451 92.6857 104.442 92.7065C104.433 92.727 104.429 92.7493 104.43 92.772C104.43 92.7943 104.436 92.8163 104.446 92.8365C104.477 92.8985 104.57 92.9605 104.632 92.9295L105.128 92.7434L105.314 93.2396C105.339 93.2725 105.373 93.296 105.412 93.3072C105.452 93.3187 105.493 93.3165 105.531 93.3016C105.552 93.2995 105.572 93.292 105.588 93.2802C105.605 93.2681 105.619 93.2523 105.628 93.234C105.638 93.2154 105.642 93.195 105.641 93.1742C105.641 93.1537 105.635 93.1335 105.624 93.1156L105.438 92.6194Z" fill="white"/>
<path d="M114.528 93.5464L115.024 93.3293C115.054 93.3104 115.077 93.2812 115.088 93.2474C115.099 93.2133 115.099 93.1767 115.086 93.1432C115.084 93.1228 115.076 93.1032 115.064 93.0862C115.052 93.0691 115.037 93.0554 115.018 93.0461C115 93.0371 114.979 93.0325 114.958 93.0331C114.938 93.034 114.918 93.0396 114.9 93.0502L114.404 93.2363L114.186 92.7401C114.167 92.71 114.138 92.6873 114.105 92.6759C114.071 92.6647 114.034 92.6653 114 92.678C113.98 92.6805 113.96 92.6879 113.943 92.6997C113.926 92.7115 113.913 92.7274 113.903 92.746C113.894 92.7643 113.89 92.7847 113.89 92.8055C113.891 92.8263 113.897 92.8464 113.907 92.8641L114.093 93.3603L113.628 93.5774C113.602 93.5969 113.583 93.6242 113.573 93.6552C113.564 93.6862 113.564 93.7197 113.574 93.7504C113.585 93.7814 113.604 93.8081 113.631 93.8273C113.657 93.8463 113.689 93.8565 113.721 93.8565L114.218 93.6704L114.435 94.1356C114.454 94.1616 114.481 94.1809 114.512 94.1905C114.543 94.2004 114.577 94.2001 114.608 94.1896C114.639 94.1793 114.665 94.1598 114.685 94.1334C114.703 94.1068 114.714 94.0751 114.714 94.0426L114.528 93.5464Z" fill="white"/>
<path d="M121.968 73.9789L122.465 73.7619C122.527 73.7309 122.589 73.6378 122.527 73.5758C122.524 73.555 122.517 73.5355 122.505 73.5184C122.493 73.5017 122.477 73.488 122.459 73.4787C122.44 73.4694 122.42 73.4648 122.399 73.4657C122.379 73.4663 122.359 73.4722 122.341 73.4828L121.844 73.6688L121.658 73.1726C121.634 73.1398 121.6 73.1159 121.56 73.1047C121.521 73.0936 121.479 73.0957 121.441 73.1106C121.421 73.1128 121.401 73.1202 121.384 73.132C121.367 73.1438 121.353 73.1599 121.344 73.1782C121.335 73.1968 121.33 73.2173 121.331 73.2378C121.332 73.2585 121.338 73.2787 121.348 73.2967L121.565 73.7929L121.069 74.01C121.045 74.01 121.02 74.0155 120.998 74.0267C120.977 74.0382 120.958 74.0543 120.943 74.0741C120.929 74.094 120.92 74.1173 120.916 74.1415C120.912 74.1656 120.914 74.1907 120.922 74.214C120.93 74.2373 120.943 74.2584 120.96 74.2754C120.978 74.2928 121 74.3055 121.023 74.3129C121.046 74.3201 121.071 74.3219 121.095 74.3176C121.12 74.3136 121.143 74.3036 121.162 74.2891L121.658 74.103L121.875 74.5682C121.875 74.5927 121.881 74.6169 121.892 74.6386C121.904 74.6606 121.92 74.6795 121.94 74.6938C121.96 74.708 121.983 74.7177 122.007 74.7214C122.031 74.7251 122.056 74.7229 122.079 74.7152C122.103 74.7074 122.124 74.6941 122.141 74.6767C122.158 74.659 122.171 74.6376 122.179 74.6144C122.186 74.5908 122.187 74.566 122.183 74.5418C122.179 74.5176 122.169 74.4947 122.154 74.4751L121.968 73.9789Z" fill="white"/>
<path d="M112.852 70.6888L113.349 70.5028C113.369 70.4947 113.388 70.4826 113.403 70.4671C113.419 70.4519 113.431 70.4336 113.44 70.4135C113.449 70.3933 113.453 70.3716 113.453 70.3499C113.454 70.3279 113.45 70.3062 113.442 70.2857C113.433 70.2652 113.421 70.2469 113.406 70.2311C113.391 70.2153 113.372 70.2029 113.352 70.1942C113.332 70.1855 113.31 70.1809 113.289 70.1809C113.267 70.1806 113.245 70.1846 113.224 70.1927L112.728 70.4097L112.542 69.9135C112.526 69.8723 112.494 69.8394 112.453 69.8221C112.412 69.8047 112.366 69.8041 112.325 69.8205C112.284 69.8369 112.251 69.8692 112.234 69.9098C112.216 69.9504 112.216 69.9963 112.232 70.0376L112.449 70.5338L111.953 70.7198C111.932 70.7264 111.912 70.7378 111.895 70.7527C111.878 70.7679 111.865 70.7862 111.856 70.807C111.848 70.8275 111.843 70.8498 111.844 70.8724C111.844 70.8948 111.85 70.9168 111.86 70.9369C111.88 70.9751 111.912 71.0055 111.952 71.0222C111.991 71.0393 112.036 71.0421 112.077 71.03L112.542 70.8129L112.759 71.3091C112.766 71.3305 112.777 71.3503 112.792 71.3671C112.807 71.3838 112.826 71.3969 112.846 71.4058C112.867 71.4145 112.889 71.4189 112.912 71.4182C112.934 71.4176 112.956 71.412 112.976 71.4021C113.009 71.3776 113.033 71.3432 113.044 71.3041C113.055 71.2647 113.053 71.2229 113.038 71.185L112.852 70.6888Z" fill="white"/>
<path d="M120.017 77.4516L120.514 77.2345C120.576 77.2035 120.638 77.1105 120.607 77.0484C120.6 77.027 120.589 77.0072 120.574 76.9904C120.559 76.9737 120.54 76.9607 120.519 76.9517C120.499 76.9427 120.477 76.9387 120.454 76.9393C120.432 76.9399 120.41 76.9455 120.389 76.9554L119.893 77.1415L119.707 76.6453C119.683 76.6124 119.648 76.5888 119.609 76.5774C119.57 76.5662 119.528 76.5684 119.49 76.5833C119.428 76.6143 119.366 76.7073 119.397 76.7693L119.614 77.2655L119.118 77.4826C119.097 77.4848 119.078 77.4922 119.061 77.504C119.044 77.5158 119.03 77.5319 119.021 77.5502C119.012 77.5688 119.007 77.5893 119.008 77.6101C119.008 77.6305 119.014 77.6507 119.025 77.6687C119.032 77.6901 119.043 77.7099 119.058 77.7264C119.073 77.7431 119.091 77.7564 119.112 77.7651C119.133 77.7741 119.155 77.7785 119.178 77.7778C119.2 77.7772 119.222 77.7716 119.242 77.7617L119.738 77.5756L119.924 78.0408C119.931 78.0622 119.942 78.0821 119.957 78.0985C119.972 78.1153 119.991 78.1286 120.011 78.1373C120.032 78.1463 120.054 78.1506 120.077 78.15C120.099 78.1494 120.121 78.1438 120.141 78.1339C120.171 78.1146 120.194 78.0858 120.206 78.0517C120.217 78.0179 120.216 77.981 120.203 77.9478L120.017 77.4516Z" fill="white"/>
<path d="M101.411 64.115L101.907 63.9289C101.929 63.9221 101.948 63.9109 101.965 63.896C101.982 63.8808 101.995 63.8626 102.004 63.8418C102.013 63.8213 102.017 63.799 102.016 63.7763C102.016 63.754 102.01 63.732 102 63.7118C101.98 63.6737 101.948 63.6433 101.908 63.6266C101.869 63.6095 101.824 63.6067 101.783 63.6188L101.287 63.8359L101.101 63.3397C101.094 63.3183 101.083 63.2984 101.068 63.2817C101.053 63.265 101.034 63.2519 101.014 63.2429C100.993 63.2343 100.971 63.2299 100.949 63.2305C100.926 63.2311 100.904 63.2367 100.884 63.2467C100.846 63.2665 100.815 63.2988 100.798 63.3384C100.781 63.3781 100.779 63.4222 100.791 63.4637L101.008 63.9599L100.512 64.146C100.49 64.1525 100.47 64.1637 100.454 64.1789C100.437 64.1938 100.424 64.2124 100.415 64.2328C100.406 64.2536 100.402 64.2759 100.402 64.2983C100.403 64.3209 100.409 64.3429 100.419 64.3631C100.438 64.4012 100.471 64.4313 100.51 64.4484C100.55 64.4654 100.594 64.4682 100.636 64.4561L101.132 64.239L101.318 64.7352C101.325 64.7566 101.336 64.7765 101.351 64.7932C101.366 64.8097 101.384 64.823 101.405 64.832C101.425 64.8407 101.448 64.845 101.47 64.8444C101.493 64.8438 101.515 64.8382 101.535 64.8283C101.554 64.8183 101.57 64.805 101.584 64.7886C101.597 64.7724 101.607 64.7535 101.613 64.7331C101.619 64.7126 101.62 64.6915 101.617 64.6704C101.615 64.6493 101.608 64.6292 101.597 64.6112L101.411 64.115Z" fill="white"/>
<path d="M111.796 43.4337L112.323 43.2166C112.367 43.2023 112.404 43.1719 112.427 43.1319C112.45 43.0919 112.457 43.0445 112.447 42.9995C112.422 42.9586 112.384 42.9275 112.339 42.9108C112.294 42.8937 112.245 42.8922 112.199 42.9064L111.672 43.1235L111.455 42.5653C111.435 42.5269 111.403 42.4968 111.363 42.4797C111.323 42.463 111.279 42.4602 111.238 42.4723C111.197 42.4974 111.166 42.5355 111.149 42.5805C111.132 42.6252 111.131 42.6745 111.145 42.7204L111.362 43.2476L110.803 43.4647C110.765 43.4845 110.735 43.5168 110.718 43.5565C110.701 43.5962 110.699 43.6402 110.71 43.6817C110.721 43.7041 110.735 43.7246 110.753 43.7413C110.771 43.7584 110.792 43.7714 110.815 43.7801C110.838 43.7887 110.863 43.7928 110.887 43.7918C110.912 43.7909 110.936 43.785 110.959 43.7748L111.486 43.5577L111.703 44.1159C111.723 44.1541 111.755 44.1841 111.795 44.2012C111.834 44.2183 111.879 44.2207 111.92 44.209C111.943 44.1987 111.963 44.1845 111.98 44.1665C111.996 44.1485 112.01 44.1274 112.018 44.1044C112.027 44.0812 112.031 44.0567 112.03 44.0319C112.029 44.0074 112.023 43.9832 112.013 43.9609L111.796 43.4337Z" fill="white"/>
<path opacity="0.15" d="M121.602 96.925L124.703 76.457L124.083 96.925H121.602Z" fill="black"/>
<path d="M132.422 81.918L137.57 82.011C137.832 82.0138 138.088 82.0876 138.312 82.2238C138.536 82.3602 138.719 82.5547 138.841 82.7863L139.431 83.8097L137.043 84.3989L132.422 81.918Z" fill="#F39494"/>
<path d="M146.376 88.2725L139.43 83.6207C138.828 83.2445 138.168 82.9723 137.476 82.8144C137.476 82.8144 130.622 81.5429 130.529 81.4809L120.574 76.9531L121.132 87.0631L125.691 88.6757L141.073 93.8547C141.218 93.9201 141.382 93.9276 141.532 93.8758C141.682 93.8237 141.806 93.7164 141.88 93.5756C141.918 93.5083 141.944 93.4342 141.954 93.3573C141.964 93.2804 141.959 93.2022 141.938 93.1272C141.918 93.0524 141.884 92.982 141.836 92.9206C141.789 92.8592 141.73 92.8077 141.662 92.7693L136.421 89.8542L142.5 93.2035C142.58 93.2518 142.67 93.2832 142.763 93.2953C142.856 93.3074 142.951 93.2999 143.042 93.2739C143.132 93.2475 143.216 93.2028 143.288 93.143C143.36 93.0828 143.419 93.0084 143.461 92.9244C143.537 92.7823 143.569 92.6208 143.553 92.4604C143.536 92.3001 143.472 92.1484 143.368 92.025L143.895 92.4282C144.047 92.5342 144.232 92.5804 144.415 92.5575C144.599 92.5345 144.767 92.4443 144.888 92.3041C144.952 92.2334 145.002 92.1506 145.034 92.0604C145.066 91.9704 145.079 91.8746 145.074 91.7791C145.068 91.6836 145.043 91.5902 145 91.5046C144.958 91.419 144.898 91.3427 144.826 91.2807L138.809 85.7916L145.663 89.482C145.742 89.5254 145.83 89.5524 145.919 89.562C146.009 89.5713 146.1 89.563 146.186 89.5369C146.273 89.5109 146.354 89.4681 146.423 89.4107C146.493 89.3533 146.551 89.2826 146.593 89.2029C146.686 89.05 146.716 88.8673 146.675 88.6934C146.634 88.5194 146.527 88.3681 146.376 88.2725Z" fill="#F39494"/>
<g opacity="0.15">
<path opacity="0.15" d="M142.844 91.8717C142.89 91.8813 142.937 91.8776 142.981 91.8611C143.025 91.8447 143.064 91.8162 143.092 91.7786C143.128 91.725 143.142 91.6592 143.131 91.5954C143.119 91.5318 143.083 91.475 143.03 91.4375L137.665 87.654C137.541 87.592 137.386 87.592 137.324 87.716C137.288 87.7697 137.274 87.8354 137.285 87.8993C137.297 87.9629 137.333 88.0197 137.386 88.0572L142.782 91.8407L142.844 91.8717Z" fill="black"/>
</g>
<g opacity="0.15">
<path opacity="0.15" d="M141.227 92.6429C141.28 92.6562 141.337 92.6513 141.388 92.6289C141.438 92.6063 141.48 92.5675 141.506 92.5188C141.523 92.4903 141.533 92.459 141.538 92.4261C141.542 92.3935 141.539 92.3604 141.531 92.3287C141.522 92.2971 141.507 92.2673 141.487 92.2413C141.467 92.2155 141.442 92.1938 141.413 92.1777L136.203 89.2626C136.144 89.2362 136.078 89.2312 136.016 89.248C135.954 89.265 135.899 89.3029 135.862 89.3556C135.845 89.3838 135.834 89.4155 135.83 89.448C135.826 89.4806 135.828 89.5138 135.837 89.5457C135.846 89.5773 135.86 89.6071 135.881 89.6329C135.901 89.6589 135.926 89.6806 135.955 89.6967L141.165 92.5809L141.227 92.6429Z" fill="black"/>
</g>
<path opacity="0.15" d="M141.571 93.1729L127.46 87.9939L121.289 86.6914V87.3116L125.941 88.8623L140.765 93.8552C141.075 94.0103 141.726 93.7312 141.571 93.1729Z" fill="black"/>
<path opacity="0.15" d="M91.9506 72.364L78.1192 47.1201L77.8711 46.9961C77.8711 47.2752 78.1812 47.6784 78.3053 47.9265C79.4217 50.5935 85.9652 65.9755 89.6867 72.7671C91.2683 75.6513 92.4468 77.2949 94.3695 78.6284C95.4168 79.3612 96.5661 79.9359 97.7809 80.3341L124.389 89.4827V88.2422L97.4707 77.7601C96.2209 77.303 95.0825 76.5853 94.1311 75.655C93.1793 74.7249 92.4362 73.6029 91.9506 72.364Z" fill="black"/>
<path d="M103.301 67.371L93.098 48.0195L77.8711 46.9961L92.7259 73.6665C93.7493 76.0854 97.2537 77.2949 99.7036 78.1942L123.49 88.0251L123.8 78.2253L103.301 67.371Z" fill="#4574F6"/>
<path opacity="0.15" d="M104.792 67.3385L93.4102 48.3281L103.179 67.4626L124.112 78.5339L104.792 67.3385Z" fill="black"/>
<path d="M125.101 78.8149L123.458 88.2736L121.008 87.3743L122.931 77.6055L125.101 78.8149Z" fill="#21252B"/>
<path d="M97.4415 16.6966L96.3561 9.68789C95.7048 6.05948 99.4573 4.13672 101.721 4.13672H109.567C111.986 4.13672 114.839 6.02846 113.63 10.1221L112.917 16.3245L97.4415 16.6966Z" fill="#1A1A1A"/>
<path opacity="0.2" d="M115.832 33.1336C115.088 34.064 113.165 36.4519 111.986 37.6924C111.397 38.3126 110.343 38.2816 109.629 37.5994L107.614 35.6766C106.745 34.8393 105.35 34.9323 104.854 35.8937L103.396 38.5607C102.993 39.3671 101.876 39.6462 100.915 39.15L93.162 34.6532C92.6989 34.3772 92.2893 34.0199 91.9525 33.5988C91.8284 34.3741 92.3246 35.1804 93.162 35.5836L100.915 40.0493C101.876 40.5145 102.993 40.2354 103.427 39.4291L104.854 36.731C105.381 35.7697 106.776 35.6766 107.645 36.5139L109.66 38.4367C110.343 39.0879 111.428 39.119 112.017 38.4987C113.165 37.2272 115.212 34.7152 115.987 33.7849C116.173 33.5058 116.328 33.0096 116.111 32.7305L115.832 33.1336Z" fill="#231F20"/>
<path d="M96.9422 28.2963L94.027 29.3818C93.6859 29.5058 92.4454 29.94 92.3524 30.6843L92.1353 32.1418C92.0112 32.9171 91.9492 34.2196 91.9492 34.2196L100.912 39.4607C101.873 39.9259 102.99 39.6468 103.424 38.8404L104.85 36.1734C105.346 35.212 106.773 35.119 107.641 35.9563L109.626 37.8791C110.339 38.5613 111.394 38.5923 111.983 37.9721C113.161 36.7006 116.17 32.8241 116.17 32.8241C116.17 32.8241 114.061 29.5058 112.944 28.8856L108.541 27.6761C104.943 26.6527 100.881 26.8388 96.9422 28.2963Z" fill="#21252B"/>
<path d="M111.336 13.6298C111.336 13.6298 98.5587 5.59767 98.1245 15.3975L97.9384 17.9715L97.0391 30.7795C97.0391 31.2447 100.45 33.5396 100.45 33.5396C101.361 34.0702 102.368 34.4129 103.414 34.5471C104.459 34.6811 105.521 34.6045 106.536 34.3211C107.551 34.0376 108.498 33.5535 109.323 32.8973C110.148 32.2408 110.832 31.4258 111.336 30.5004C111.395 30.4163 111.437 30.3214 111.46 30.2213L110.56 23.0575C110.741 22.3054 110.834 21.5357 110.839 20.7626C110.963 17.0101 111.336 13.6298 111.336 13.6298Z" fill="#FC9D9D"/>
<path d="M112.759 6.65044C112.759 6.65044 117.256 25.6919 107.549 26.9634C99.0827 28.0798 98.1523 14.9307 98.1523 14.9307L98.4935 6.40234L112.759 6.65044Z" fill="#FC9D9D"/>
<path opacity="0.15" d="M97.847 18.5289C97.847 18.5289 98.6843 18.5909 99.1184 18.2188L97.7539 20.3276L97.847 18.5289Z" fill="black"/>
<path d="M98.3399 13.4453C98.3399 13.4453 97.7197 11.6466 95.859 12.4839C93.9982 13.3213 94.1223 18.2832 97.7507 18.5313C99.6424 18.6864 99.2703 17.6009 98.9602 16.1434L98.3399 13.4453Z" fill="#FC9D9D"/>
<path opacity="0.3" d="M95.7049 13.8146C95.8482 13.7023 96.0126 13.6195 96.1884 13.5717C96.3642 13.5237 96.5478 13.5113 96.7283 13.5355C97.0694 13.6418 97.3647 13.8605 97.5656 14.1557C97.7765 14.5824 97.903 15.0457 97.9378 15.5202L97.9998 15.9544C97.9998 16.1095 97.9378 16.2025 97.8137 16.2025C97.6897 16.2025 97.5656 16.1405 97.5656 16.0164L97.5036 15.5823C97.4803 15.198 97.3631 14.8256 97.1625 14.4968C96.9764 14.2487 96.8213 14.0627 96.6663 14.0627C96.5416 14.0292 96.4101 14.0286 96.2851 14.0614C96.1598 14.094 96.0454 14.1585 95.953 14.2487C95.829 14.2797 95.7049 14.2798 95.6429 14.1557C95.5809 14.0317 95.6429 13.8456 95.7049 13.8146Z" fill="black"/>
<path opacity="0.15" d="M111.21 28.4833L110.9 25.4131C110.063 26.2504 107.737 27.4599 105.101 26.8707C103.783 26.515 102.597 25.7818 101.69 24.7618C101.649 24.7336 101.6 24.7188 101.55 24.7188C101.5 24.7188 101.452 24.7336 101.41 24.7618C101.38 24.796 101.363 24.84 101.363 24.8859C101.363 24.9315 101.38 24.9758 101.41 25.01C102.582 26.332 104.188 27.1901 105.938 27.4289C106.702 27.9477 107.562 28.3081 108.468 28.4892C109.373 28.6703 110.306 28.6684 111.21 28.4833Z" fill="black"/>
<g opacity="0.3">
<path opacity="0.3" d="M108.235 23.1199L107.025 23.2439C106.964 23.2325 106.907 23.2027 106.863 23.1583C106.819 23.114 106.789 23.0576 106.777 22.9958C106.783 22.9289 106.81 22.8653 106.855 22.8147C106.9 22.7645 106.959 22.7301 107.025 22.7167L108.173 22.6237C108.207 22.6184 108.241 22.6212 108.274 22.6318C108.306 22.6423 108.336 22.6606 108.36 22.6848C108.384 22.709 108.402 22.7384 108.413 22.771C108.423 22.8036 108.426 22.838 108.421 22.8718C108.483 22.9028 108.359 23.0579 108.235 23.1199Z" fill="black"/>
</g>
<g opacity="0.3">
<path opacity="0.3" d="M108.636 21.9701C106.496 22.2802 105.535 21.1638 105.225 20.5745C105.198 20.5237 105.189 20.4651 105.2 20.4083C105.212 20.3519 105.242 20.3007 105.287 20.2644C105.343 20.2396 105.406 20.2322 105.467 20.2433C105.528 20.2545 105.584 20.2833 105.628 20.3265C105.938 20.9157 106.993 22.0941 109.536 21.2568C109.566 21.2413 109.599 21.2323 109.633 21.2301C109.667 21.228 109.701 21.2329 109.733 21.2447C109.765 21.2562 109.794 21.2745 109.819 21.2977C109.844 21.3213 109.863 21.3495 109.877 21.3809C109.939 21.5359 109.877 21.629 109.753 21.722C109.629 21.815 109.008 21.8771 108.636 21.9701Z" fill="black"/>
</g>
<path d="M105.225 16.3279C105.653 16.3279 106 15.9806 106 15.5526C106 15.1244 105.653 14.7773 105.225 14.7773C104.796 14.7773 104.449 15.1244 104.449 15.5526C104.449 15.9806 104.796 16.3279 105.225 16.3279Z" fill="#21252B"/>
<path d="M105.538 15.4893C105.641 15.4893 105.724 15.4062 105.724 15.3033C105.724 15.2006 105.641 15.1172 105.538 15.1172C105.435 15.1172 105.352 15.2006 105.352 15.3033C105.352 15.4062 105.435 15.4893 105.538 15.4893Z" fill="white"/>
<path d="M111.209 16.699C111.637 16.699 111.984 16.352 111.984 15.9237C111.984 15.4955 111.637 15.1484 111.209 15.1484C110.781 15.1484 110.434 15.4955 110.434 15.9237C110.434 16.352 110.781 16.699 111.209 16.699Z" fill="#21252B"/>
<path d="M111.549 15.8565C111.652 15.8565 111.735 15.7734 111.735 15.6704C111.735 15.5678 111.652 15.4844 111.549 15.4844C111.447 15.4844 111.363 15.5678 111.363 15.6704C111.363 15.7734 111.447 15.8565 111.549 15.8565Z" fill="white"/>
<g opacity="0.3">
<path opacity="0.3" d="M109.26 20.0161L108.236 20.1092C108.081 20.1092 107.988 20.0161 107.988 19.9231C107.988 19.83 108.05 19.675 108.174 19.675L109.198 19.582C109.259 19.5779 109.319 19.5618 109.374 19.5348C109.428 19.5078 109.477 19.47 109.518 19.4238C109.558 19.3779 109.589 19.3242 109.609 19.2662C109.628 19.2079 109.636 19.1469 109.632 19.0858C109.616 18.9595 109.553 18.8442 109.455 18.7635C109.357 18.6826 109.232 18.6426 109.105 18.6516C108.981 18.6516 108.857 18.5896 108.857 18.4655C108.857 18.3415 108.919 18.2174 109.043 18.2174C109.288 18.1994 109.531 18.2763 109.721 18.432C109.912 18.5877 110.035 18.8107 110.066 19.0547C110.079 19.171 110.068 19.2892 110.034 19.4012C110 19.5134 109.944 19.6176 109.868 19.7076C109.793 19.7975 109.7 19.871 109.596 19.924C109.491 19.977 109.377 20.0084 109.26 20.0161Z" fill="black"/>
</g>
<path d="M114.066 0.974738C111.306 -0.979023 105.817 0.385509 102.839 1.75004C102.901 0.881702 102.343 0.974738 102.343 0.974738C97.1021 2.37028 98.4667 6.5259 98.4667 6.5259H98.5287C97.9705 7.70436 97.2572 10.2473 97.9395 14.8371C97.9395 14.8371 99.8312 11.0226 99.8622 8.04549C102.188 9.0999 108.887 10.5885 113.073 9.19294C113.477 11.7049 113.756 14.8371 113.756 14.8371C114.117 12.67 114.106 10.4573 113.725 8.29359C113.984 8.11279 114.223 7.90501 114.438 7.67335C114.438 7.67335 118.004 3.76583 114.066 0.974738Z" fill="#1A1A1A"/>
<path opacity="0.19" d="M115.426 15.7054C115.426 16.357 115.233 16.9939 114.87 17.5351C114.507 18.0763 113.992 18.4977 113.389 18.7455C112.787 18.9933 112.124 19.0566 111.486 18.9272C110.847 18.7979 110.262 18.4816 109.804 18.0189C109.345 17.5559 109.034 16.9673 108.911 16.3275C108.788 15.688 108.857 15.0259 109.111 14.4258C109.364 13.8257 109.791 13.3147 110.335 12.9571C110.88 12.5995 111.519 12.4122 112.17 12.4181C113.036 12.4265 113.865 12.7763 114.474 13.3919C115.084 14.0075 115.426 14.8389 115.426 15.7054Z" fill="white"/>
<path opacity="0.19" d="M107.395 15.7054C107.395 16.357 107.201 16.9939 106.839 17.5351C106.476 18.0763 105.961 18.4977 105.358 18.7455C104.756 18.9933 104.093 19.0566 103.455 18.9272C102.816 18.7979 102.231 18.4816 101.772 18.0189C101.314 17.5559 101.003 16.9673 100.88 16.3275C100.756 15.688 100.826 15.0259 101.079 14.4258C101.333 13.8257 101.759 13.3147 102.304 12.9571C102.849 12.5995 103.487 12.4122 104.139 12.4181C105.005 12.4265 105.833 12.7763 106.443 13.3919C107.053 14.0075 107.395 14.8389 107.395 15.7054Z" fill="white"/>
<path d="M107.395 15.7054C107.395 16.357 107.201 16.9939 106.839 17.5351C106.476 18.0763 105.961 18.4977 105.358 18.7455C104.756 18.9933 104.093 19.0566 103.455 18.9272C102.816 18.7979 102.231 18.4816 101.772 18.0189C101.314 17.5559 101.003 16.9673 100.88 16.3275C100.756 15.688 100.826 15.0259 101.079 14.4258C101.333 13.8257 101.759 13.3147 102.304 12.9571C102.849 12.5995 103.487 12.4122 104.139 12.4181C105.005 12.4265 105.833 12.7763 106.443 13.3919C107.053 14.0075 107.395 14.8389 107.395 15.7054Z" stroke="#1A1A1A" stroke-width="0.428208" stroke-linecap="round" stroke-linejoin="round"/>
<path d="M115.426 15.7054C115.426 16.357 115.233 16.9939 114.87 17.5351C114.507 18.0763 113.992 18.4977 113.389 18.7455C112.787 18.9933 112.124 19.0566 111.486 18.9272C110.847 18.7979 110.262 18.4816 109.804 18.0189C109.345 17.5559 109.034 16.9673 108.911 16.3275C108.788 15.688 108.857 15.0259 109.111 14.4258C109.364 13.8257 109.791 13.3147 110.335 12.9571C110.88 12.5995 111.519 12.4122 112.17 12.4181C113.036 12.4265 113.865 12.7763 114.474 13.3919C115.084 14.0075 115.426 14.8389 115.426 15.7054Z" stroke="#1A1A1A" stroke-width="0.428208" stroke-linecap="round" stroke-linejoin="round"/>
<path d="M107.395 15.7076C107.395 15.7076 108.17 14.9944 108.883 15.7076" stroke="#1A1A1A" stroke-width="0.428208" stroke-linecap="round" stroke-linejoin="round"/>
<path d="M100.849 15.7065L97.9961 14.6211" stroke="#1A1A1A" stroke-width="0.428208" stroke-miterlimit="10"/>
<path d="M116.824 212.539H127.182L127.43 218.462C127.464 219.231 127.671 219.982 128.036 220.658C128.401 221.334 128.915 221.92 129.539 222.37L137.137 227.797L118.158 227.332L116.824 212.539Z" fill="#FB9C9C"/>
<path opacity="0.15" d="M120.917 224.884L118.188 226L128.112 221.286C127.568 219.872 127.315 218.365 127.367 216.852H117.227V218.185L123.429 218.495C124.08 218.557 124.297 219.581 124.235 220.263V220.387C124.149 221.37 123.793 222.31 123.208 223.1C122.623 223.894 121.83 224.512 120.917 224.884Z" fill="black"/>
<path d="M83.9492 212.508L94.0592 212.477L92.4775 226.928H83.9492V212.508Z" fill="#FB9C9C"/>
<path opacity="0.15" d="M92.4468 226.864L93.5942 216.816L83.9805 216.754L84.1355 217.994L90.2759 218.956C90.5563 218.984 90.8165 219.114 91.01 219.319C91.2035 219.523 91.317 219.79 91.3303 220.072L91.5474 224.538L92.4468 226.864Z" fill="black"/>
<path d="M83.3594 98.5977L124.109 99.2489L127.955 216.816H116.821L106.556 120.399C106.526 120.101 106.385 119.824 106.161 119.623C105.938 119.423 105.647 119.312 105.347 119.314C105.041 119.304 104.743 119.411 104.513 119.612C104.283 119.814 104.138 120.095 104.106 120.399L94.4617 216.816H83.3594V98.5977Z" fill="#3F4249"/>
<path d="M83.1128 214.398H95.1145L94.8974 216.817H83.0508L83.1128 214.398Z" fill="#3F4249"/>
<path opacity="0.15" d="M90.5833 214.398H95.1111L94.894 216.817L90.2422 216.755L90.5833 214.398Z" fill="black"/>
<path d="M116.297 214.398H128.174L128.299 216.817H116.545L116.297 214.398Z" fill="#3F4249"/>
<path opacity="0.15" d="M128.173 214.398L126.746 214.367L126.87 216.817H128.297L128.173 214.398Z" fill="black"/>
<path opacity="0.2" d="M90.5859 214.399L98.5871 124.464C98.9592 121.518 101.564 119.316 104.634 119.316H105.441C105.132 119.315 104.834 119.428 104.605 119.635C104.375 119.841 104.231 120.126 104.2 120.433L94.6485 214.399H90.5859Z" fill="black"/>
<path d="M121.289 101.422L127.057 214.368H128.174L124.204 101.422H121.289Z" fill="#32353A"/>
<path d="M83.0516 232.233H93.4096C93.6407 232.233 93.8664 232.161 94.0553 232.028C94.2442 231.895 94.3868 231.705 94.464 231.488C94.4907 231.693 94.5009 231.901 94.495 232.109V232.45C94.491 232.589 94.4597 232.726 94.4029 232.85C94.3462 232.977 94.2652 233.092 94.1645 233.185C94.0637 233.281 93.9449 233.355 93.8156 233.405C93.6859 233.454 93.5479 233.476 93.4096 233.473H83.0516C82.913 233.476 82.7753 233.454 82.6456 233.405C82.516 233.355 82.3975 233.281 82.2967 233.185C82.196 233.092 82.115 232.977 82.0583 232.85C82.0015 232.726 81.9702 232.589 81.9662 232.45V232.326C81.9609 232.056 81.9714 231.786 81.9972 231.519C82.0713 231.736 82.2143 231.926 82.4047 232.053C82.5948 232.183 82.8221 232.245 83.0516 232.233Z" fill="black"/>
<path d="M84.5735 221.252L84.8216 221.004C85.8097 220.08 87.1162 219.575 88.4686 219.59C89.8214 219.609 91.1146 220.148 92.0785 221.097L92.2025 221.252C92.6823 221.73 92.9601 222.375 92.9778 223.051V224.137C92.9617 224.757 93.056 225.377 93.2569 225.966L94.1563 228.912C94.3802 229.613 94.4949 230.345 94.4974 231.083V231.455C94.4813 231.738 94.3557 232.004 94.1473 232.194C93.9386 232.386 93.6638 232.488 93.381 232.479H83.0539C82.9128 232.488 82.7717 232.466 82.6387 232.42C82.5053 232.373 82.3831 232.299 82.2789 232.203C82.1751 232.107 82.091 231.992 82.0324 231.865C81.9738 231.735 81.9415 231.598 81.9375 231.455V231.3C81.9459 230.435 82.0926 229.576 82.3717 228.757L83.4261 225.904C83.645 225.244 83.7601 224.552 83.7672 223.857V223.02C83.7979 222.35 84.0869 221.715 84.5735 221.252Z" fill="#3F4249"/>
<path opacity="0.4" d="M91.3016 223.611C91.5243 223.611 91.7047 223.431 91.7047 223.208C91.7047 222.985 91.5243 222.805 91.3016 222.805C91.0789 222.805 90.8984 222.985 90.8984 223.208C90.8984 223.431 91.0789 223.611 91.3016 223.611Z" fill="#231F20"/>
<path opacity="0.4" d="M91.1141 225.162C91.3368 225.162 91.5172 224.982 91.5172 224.759C91.5172 224.535 91.3368 224.355 91.1141 224.355C90.8914 224.355 90.7109 224.535 90.7109 224.759C90.7109 224.982 90.8914 225.162 91.1141 225.162Z" fill="#231F20"/>
<path opacity="0.4" d="M90.9891 226.31C91.2118 226.31 91.3922 226.13 91.3922 225.907C91.3922 225.684 91.2118 225.504 90.9891 225.504C90.7664 225.504 90.5859 225.684 90.5859 225.907C90.5859 226.13 90.7664 226.31 90.9891 226.31Z" fill="#231F20"/>
<path opacity="0.4" d="M91.1766 228.138C91.3993 228.138 91.5798 227.958 91.5798 227.735C91.5798 227.512 91.3993 227.332 91.1766 227.332C90.9539 227.332 90.7734 227.512 90.7734 227.735C90.7734 227.958 90.9539 228.138 91.1766 228.138Z" fill="#231F20"/>
<path opacity="0.4" d="M91.1766 229.72C91.3993 229.72 91.5798 229.541 91.5798 229.317C91.5798 229.094 91.3993 228.914 91.1766 228.914C90.9539 228.914 90.7734 229.094 90.7734 229.317C90.7734 229.541 90.9539 229.72 91.1766 229.72Z" fill="#231F20"/>
<path opacity="0.4" d="M86.3094 230.06C86.5321 230.06 86.7126 229.88 86.7126 229.657C86.7126 229.434 86.5321 229.254 86.3094 229.254C86.0867 229.254 85.9062 229.434 85.9062 229.657C85.9062 229.88 86.0867 230.06 86.3094 230.06Z" fill="#231F20"/>
<path opacity="0.4" d="M86.2469 228.572C86.4696 228.572 86.6501 228.392 86.6501 228.169C86.6501 227.945 86.4696 227.766 86.2469 227.766C86.0242 227.766 85.8438 227.945 85.8438 228.169C85.8438 228.392 86.0242 228.572 86.2469 228.572Z" fill="#231F20"/>
<path opacity="0.4" d="M86.1844 226.619C86.4071 226.619 86.5876 226.439 86.5876 226.216C86.5876 225.992 86.4071 225.812 86.1844 225.812C85.9617 225.812 85.7812 225.992 85.7812 226.216C85.7812 226.439 85.9617 226.619 86.1844 226.619Z" fill="#231F20"/>
<path opacity="0.4" d="M86.3094 224.756C86.5321 224.756 86.7126 224.576 86.7126 224.352C86.7126 224.129 86.5321 223.949 86.3094 223.949C86.0867 223.949 85.9062 224.129 85.9062 224.352C85.9062 224.576 86.0867 224.756 86.3094 224.756Z" fill="#231F20"/>
<path opacity="0.4" d="M86.368 223.298C86.5907 223.298 86.7712 223.119 86.7712 222.895C86.7712 222.672 86.5907 222.492 86.368 222.492C86.1453 222.492 85.9648 222.672 85.9648 222.895C85.9648 223.119 86.1453 223.298 86.368 223.298Z" fill="#231F20"/>
<path d="M91.1741 223.115C91.1741 223.115 89.4064 221.254 86.3672 222.805" stroke="white" stroke-miterlimit="10" stroke-linecap="round"/>
<path d="M91.1155 224.663C91.1155 224.663 89.3478 222.772 86.3086 224.353" stroke="white" stroke-miterlimit="10" stroke-linecap="round"/>
<path d="M90.9905 225.844C90.5253 225.503 88.2304 224.759 86.1836 226.185" stroke="white" stroke-miterlimit="10" stroke-linecap="round"/>
<path d="M91.022 227.704C91.022 227.704 89.0372 226.091 86.2461 228.045" stroke="white" stroke-miterlimit="10" stroke-linecap="round"/>
<path d="M91.1743 229.256C91.1743 229.256 89.1895 227.613 86.3984 229.597" stroke="white" stroke-miterlimit="10" stroke-linecap="round"/>
<path d="M116.976 232.322L144.701 232.384C144.756 232.253 144.798 232.12 144.825 231.98C144.887 232.309 144.897 232.641 144.856 232.973C144.849 233.221 144.749 233.457 144.577 233.633C144.405 233.813 144.173 233.919 143.926 233.934L117.875 233.872C117.623 233.863 117.383 233.761 117.204 233.581C117.026 233.404 116.922 233.162 116.914 232.911L116.976 232.322Z" fill="black"/>
<path d="M143.181 229.195C138.25 226.993 134.219 225.163 130.528 221.845C129.691 221.1 129.04 220.542 127.954 220.449L123.767 223.023C123.519 223.191 123.225 223.278 122.925 223.271C122.626 223.265 122.335 223.169 122.093 222.992L117.627 220.635C116.883 220.573 116.263 221.535 116.325 222.31L116.976 232.327L144.701 232.389C145.29 231.179 144.049 229.567 143.181 229.195Z" fill="#3F4249"/>
<path opacity="0.4" d="M138.348 229.688C138.639 229.688 138.875 229.464 138.875 229.191C138.875 228.919 138.639 228.695 138.348 228.695C138.056 228.695 137.82 228.919 137.82 229.191C137.82 229.464 138.056 229.688 138.348 229.688Z" fill="#231F20"/>
<path opacity="0.4" d="M135.308 228.852C135.6 228.852 135.836 228.629 135.836 228.356C135.836 228.083 135.6 227.859 135.308 227.859C135.017 227.859 134.781 228.083 134.781 228.356C134.781 228.629 135.017 228.852 135.308 228.852Z" fill="#231F20"/>
<path opacity="0.4" d="M132.762 227.114C133.053 227.114 133.289 226.89 133.289 226.617C133.289 226.344 133.053 226.121 132.762 226.121C132.47 226.121 132.234 226.344 132.234 226.617C132.234 226.89 132.47 227.114 132.762 227.114Z" fill="#231F20"/>
<path opacity="0.4" d="M130.344 225.317C130.635 225.317 130.871 225.093 130.871 224.82C130.871 224.547 130.635 224.324 130.344 224.324C130.052 224.324 129.816 224.547 129.816 224.82C129.816 225.093 130.052 225.317 130.344 225.317Z" fill="#231F20"/>
<path opacity="0.4" d="M128.172 223.145C128.463 223.145 128.699 222.921 128.699 222.649C128.699 222.376 128.463 222.152 128.172 222.152C127.881 222.152 127.645 222.376 127.645 222.649C127.645 222.921 127.881 223.145 128.172 223.145Z" fill="#231F20"/>
<path d="M139.305 228.017L138.964 228.947C138.94 229.009 138.904 229.065 138.858 229.112C138.813 229.158 138.758 229.198 138.697 229.223C138.637 229.248 138.571 229.264 138.505 229.264C138.44 229.264 138.374 229.251 138.313 229.226C138.251 229.202 138.195 229.167 138.149 229.121C138.102 229.074 138.066 229.019 138.042 228.957C138.019 228.895 138.009 228.829 138.012 228.764C138.017 228.696 138.034 228.634 138.065 228.575L138.561 227.676L139.305 228.017Z" fill="white"/>
<path d="M136.608 226.743L135.957 228.139C135.928 228.198 135.886 228.254 135.836 228.297C135.785 228.34 135.726 228.371 135.662 228.393C135.599 228.412 135.531 228.421 135.465 228.415C135.398 228.409 135.334 228.387 135.275 228.356C135.219 228.328 135.169 228.288 135.129 228.238C135.089 228.188 135.059 228.133 135.041 228.071C135.024 228.009 135.019 227.947 135.027 227.881C135.035 227.819 135.057 227.76 135.089 227.705L135.802 226.371L136.608 226.743Z" fill="white"/>
<path d="M134.345 225.317L133.477 226.495C133.434 226.551 133.381 226.598 133.321 226.632C133.26 226.666 133.193 226.687 133.124 226.697C133.055 226.706 132.985 226.7 132.917 226.681C132.85 226.663 132.787 226.632 132.732 226.588H132.701C132.626 226.504 132.58 226.399 132.569 226.287C132.558 226.176 132.582 226.064 132.639 225.968L133.477 224.852L134.345 225.317Z" fill="white"/>
<path d="M132.111 223.828L130.994 224.883C130.908 224.966 130.791 225.016 130.669 225.016C130.547 225.016 130.43 224.966 130.343 224.883C130.293 224.836 130.253 224.78 130.227 224.718C130.201 224.653 130.189 224.588 130.192 224.52C130.195 224.452 130.213 224.383 130.244 224.324C130.276 224.262 130.32 224.21 130.374 224.169L131.491 223.332L132.111 223.828Z" fill="white"/>
<path d="M129.939 221.875C129.939 221.906 129.287 222.402 128.853 222.743C128.755 222.815 128.636 222.846 128.516 222.833C128.396 222.824 128.284 222.768 128.202 222.681C128.163 222.629 128.136 222.567 128.123 222.502C128.109 222.436 128.11 222.368 128.125 222.306C128.14 222.241 128.168 222.179 128.208 222.126C128.248 222.074 128.299 222.03 128.357 221.999L129.659 221.379L129.939 221.875Z" fill="white"/>
<path d="M83.207 96.7734H124.174L124.205 101.425H83.3931L83.3621 98.7272L83.207 96.7734Z" fill="#21252B"/>
<path d="M83.0508 96.7734H124.173L124.204 101.425H83.2679L83.2058 98.7272L83.0508 96.7734Z" fill="#1A1A1A"/>
<path d="M111.367 96.7734H102.684V101.413H111.367V96.7734Z" fill="#61656D"/>
<path d="M110.866 96.7734H103.113V101.413H110.866V96.7734Z" fill="#DADDDF"/>
</svg>
