<svg width="651" height="403" viewBox="0 0 651 403" fill="none" xmlns="http://www.w3.org/2000/svg">
<g clip-path="url(#clip0_1253_201807)">
<path d="M257.148 100.529V204.621C257.148 208.163 257.48 211.538 258.145 214.748L333.848 61.8477C325.547 55.6497 316.084 52.5508 305.459 52.5508C292.067 52.5508 280.667 57.2546 271.26 66.6621C261.852 75.959 257.148 87.248 257.148 100.529ZM380.332 101.027V204.123C380.332 224.488 373.027 241.919 358.418 256.418C343.809 270.806 326.156 278 305.459 278C284.652 278 266.999 270.806 252.5 256.418C237.891 241.919 230.586 224.488 230.586 204.123V101.027C230.586 80.6628 237.891 63.2865 252.5 48.8984C267.109 34.3997 284.762 27.1504 305.459 27.1504C326.156 27.1504 343.809 34.3997 358.418 48.8984C373.027 63.2865 380.332 80.6628 380.332 101.027ZM351.611 85.9199L274.58 241.477C283.324 248.892 293.617 252.6 305.459 252.6C318.63 252.6 329.974 247.896 339.492 238.488C348.9 229.191 353.659 217.902 353.77 204.621V100.529C353.77 95.3275 353.05 90.4577 351.611 85.9199Z" fill="#14295E"/>
<path d="M334.38 83.0532C334.38 83.0532 341.443 84.0208 373.877 83.3503C382.654 88.6836 420.688 85.2932 435.683 83.876C453.016 87.0913 461.587 78.6951 453.884 74.1617C451.515 72.7598 447.591 71.7313 441.9 71.5179C442.273 53.476 397.648 47.556 385.214 73.8798C378.639 68.5465 364.909 69.0417 364.003 76.257C351.309 73.9255 341.283 76.5541 336.688 79.3046C334.25 80.7522 333.343 82.2379 334.38 83.0532Z" fill="white"/>
<path opacity="0.08" d="M334.38 83.0516C334.38 83.0516 341.443 84.0192 373.877 83.3487C382.654 88.6821 420.689 85.2916 435.683 83.8744C453.016 87.0897 461.588 78.6935 453.885 74.1602C453.946 75.2885 453.563 76.3963 452.818 77.2459C451.058 79.2573 447.744 80.0954 444.719 79.8363C441.775 79.4828 438.936 78.5289 436.376 77.0325C435.195 76.266 433.87 75.7479 432.483 75.5087C429.915 75.2573 427.698 76.8801 425.893 78.3811C424.369 75.9735 420.628 74.6706 417.458 75.463C414.289 76.2554 412.125 79.0668 412.544 81.7335C406.334 80.6211 400.003 83.5925 393.679 83.1201C386.464 82.5715 379.965 77.6268 372.879 78.8839C371.089 79.1963 369.435 79.9049 367.637 80.2021C365.852 80.4108 364.052 80.4596 362.258 80.3468C356.475 80.2402 350.693 80.9792 344.925 80.6896C342.125 80.5746 339.351 80.1114 336.666 79.3106C334.251 80.7506 333.344 82.2363 334.38 83.0516Z" fill="#21252B"/>
<path d="M285.345 250.369C282.625 295.406 286.32 343.071 284.012 388.161L300.096 390.24L300.736 381.051L300.857 381.097C303.905 338.43 312.027 292.617 316.004 249.844L285.345 250.369Z" fill="#FC9D9D"/>
<path d="M301.97 367.68H284.675C284.56 374.537 284.362 381.394 284.012 388.16L291.501 389.127L300.225 388.365L300.736 381.028L300.857 381.074C301.177 376.64 301.566 372.167 301.985 367.672L301.97 367.68Z" fill="white"/>
<path d="M283.683 382.131L283.63 383.715C283.616 385.064 283.374 386.401 282.913 387.67L280.94 393.209C280.396 394.777 280.118 396.425 280.117 398.085V398.359C280.126 398.63 280.189 398.896 280.302 399.142C280.414 399.389 280.575 399.61 280.775 399.794C280.974 399.977 281.207 400.12 281.462 400.212C281.717 400.305 281.988 400.345 282.258 400.332H301.946C302.49 400.348 303.019 400.151 303.419 399.782C303.819 399.414 304.059 398.902 304.087 398.359V397.651C304.087 396.215 303.863 394.788 303.424 393.422L301.725 387.776C301.352 386.624 301.167 385.42 301.176 384.211V382.131C301.166 380.821 300.657 379.564 299.751 378.618L299.477 378.291C297.67 376.45 295.207 375.4 292.628 375.368C290.049 375.337 287.562 376.327 285.71 378.123L285.222 378.618C284.305 379.566 283.758 380.813 283.683 382.131Z" fill="#4574F6"/>
<path opacity="0.6" d="M280.117 396.828H304.033C304.078 397.1 304.096 397.376 304.087 397.651V398.36C304.078 398.631 304.016 398.897 303.903 399.144C303.79 399.39 303.63 399.611 303.43 399.795C303.23 399.979 302.996 400.121 302.742 400.213C302.487 400.305 302.217 400.347 301.946 400.333H282.258C281.714 400.35 281.185 400.152 280.785 399.784C280.385 399.415 280.145 398.904 280.117 398.36V396.836V396.828Z" fill="black"/>
<path d="M296.684 383.008C296.732 382.889 296.737 382.757 296.697 382.635C296.656 382.513 296.573 382.41 296.463 382.345C295.191 381.722 293.795 381.398 292.379 381.398C290.963 381.398 289.567 381.722 288.295 382.345C288.236 382.373 288.184 382.413 288.141 382.462C288.098 382.511 288.065 382.568 288.044 382.63C288.024 382.691 288.016 382.757 288.021 382.822C288.026 382.886 288.044 382.95 288.074 383.008C288.102 383.066 288.14 383.118 288.189 383.161C288.237 383.204 288.294 383.237 288.355 383.257C288.415 383.278 288.48 383.286 288.545 383.281C288.609 383.277 288.672 383.258 288.729 383.229C289.86 382.691 291.097 382.412 292.348 382.412C293.6 382.412 294.837 382.691 295.967 383.229C296.033 383.27 296.111 383.289 296.188 383.282C296.287 383.282 296.384 383.257 296.471 383.209C296.558 383.161 296.631 383.091 296.684 383.008Z" fill="white"/>
<path d="M296.68 385.529C296.729 385.411 296.733 385.28 296.692 385.16C296.652 385.04 296.569 384.938 296.459 384.874C295.189 384.248 293.791 383.922 292.375 383.922C290.959 383.922 289.561 384.248 288.291 384.874C288.175 384.931 288.086 385.033 288.045 385.156C288.004 385.279 288.012 385.413 288.07 385.529C288.128 385.645 288.23 385.734 288.352 385.776C288.475 385.817 288.61 385.808 288.726 385.75C289.855 385.21 291.092 384.928 292.345 384.928C293.597 384.928 294.834 385.21 295.964 385.75C296.029 385.792 296.107 385.811 296.185 385.804C296.284 385.803 296.381 385.778 296.467 385.73C296.554 385.682 296.627 385.613 296.68 385.529Z" fill="white"/>
<path d="M296.684 388C296.732 387.881 296.737 387.749 296.697 387.627C296.656 387.505 296.573 387.402 296.463 387.337C295.191 386.714 293.795 386.391 292.379 386.391C290.963 386.391 289.567 386.714 288.295 387.337C288.236 387.365 288.184 387.405 288.141 387.453C288.098 387.503 288.065 387.56 288.044 387.622C288.024 387.684 288.016 387.748 288.021 387.814C288.026 387.879 288.044 387.942 288.074 388C288.102 388.058 288.14 388.11 288.189 388.153C288.237 388.196 288.294 388.229 288.355 388.25C288.415 388.27 288.48 388.278 288.545 388.273C288.609 388.268 288.672 388.25 288.729 388.221C289.86 387.683 291.097 387.404 292.348 387.404C293.6 387.404 294.837 387.683 295.967 388.221C296.033 388.263 296.111 388.281 296.188 388.274C296.287 388.274 296.384 388.248 296.471 388.2C296.558 388.153 296.631 388.084 296.684 388Z" fill="white"/>
<path d="M377.812 389.767L364.859 380.037C363.824 379.237 362.971 378.227 362.356 377.072C361.741 375.918 361.38 374.645 361.293 373.34L363.335 282.049C363.335 281.554 363.335 281.066 363.29 280.571L361.004 249.668L329.004 253.249L334.909 288.754V289.516C334.205 304.549 335.306 319.612 338.185 334.384L338.672 336.914C340.356 345.744 342.322 357.546 343.64 368.418L345.339 388.952L377.812 389.767Z" fill="#FC9D9D"/>
<path d="M343.683 368.396L345.382 388.929L377.809 389.767L364.857 380.038C363.822 379.238 362.969 378.227 362.354 377.072C361.739 375.917 361.377 374.646 361.291 373.341L361.725 367.68L343.676 368.396" fill="white"/>
<path opacity="0.15" d="M346.57 377.286C346.883 380.92 351.972 383.244 355.393 384.615L360.284 386.558L345.389 388.189L343.865 370.086C342.555 358.756 340.475 346.185 338.7 336.89L338.212 334.36C335.333 319.588 334.233 304.525 334.936 289.491V288.73L331.332 263.762L337.427 263L340.475 288.143C340.475 288.143 338.189 317.095 343.126 339.67C343.126 339.67 345.107 357.956 346.174 370.086C346.342 372.036 346.479 373.827 346.585 375.35L346.57 377.286Z" fill="black"/>
<path d="M345.133 381.401L352.394 383.687C352.914 383.849 353.466 383.876 354 383.765C354.533 383.655 355.029 383.41 355.442 383.054L361.178 378.163C361.805 377.626 362.598 377.321 363.422 377.302C364.247 377.282 365.053 377.549 365.704 378.056L378.657 388.106L388.867 391.473C390.333 391.97 391.607 392.911 392.513 394.167C393.418 395.421 393.909 396.928 393.918 398.475C393.916 398.907 393.744 399.321 393.438 399.626C393.133 399.932 392.719 400.104 392.287 400.106H347.03C346.518 400.108 346.01 400.009 345.537 399.814C345.063 399.619 344.633 399.332 344.27 398.97C343.908 398.608 343.62 398.179 343.425 397.706C343.229 397.233 343.128 396.725 343.129 396.212V382.879C343.134 382.639 343.194 382.402 343.304 382.189C343.415 381.975 343.573 381.789 343.767 381.646C343.96 381.504 344.184 381.407 344.421 381.364C344.658 381.322 344.902 381.335 345.133 381.401Z" fill="#4574F6"/>
<path opacity="0.6" d="M343.18 396.82H393.702C393.854 397.35 393.926 397.899 393.915 398.451C393.913 398.882 393.74 399.296 393.435 399.601C393.129 399.907 392.716 400.079 392.284 400.081H347.027C346.104 400.079 345.211 399.751 344.507 399.154C343.803 398.557 343.333 397.731 343.18 396.82Z" fill="black"/>
<path d="M365.755 383.241L368.498 380.292C368.571 380.213 368.611 380.11 368.611 380.003C368.611 379.895 368.571 379.792 368.498 379.713C368.421 379.636 368.317 379.594 368.208 379.594C368.1 379.594 367.996 379.636 367.919 379.713L365.176 382.662C365.104 382.74 365.062 382.844 365.062 382.951C365.062 383.058 365.104 383.162 365.176 383.241C365.249 383.308 365.344 383.345 365.443 383.348C365.554 383.338 365.661 383.301 365.755 383.241Z" fill="white"/>
<path d="M367.905 384.906L370.64 381.957C370.716 381.88 370.76 381.777 370.76 381.668C370.76 381.56 370.716 381.456 370.64 381.378C370.562 381.306 370.458 381.266 370.351 381.266C370.243 381.266 370.14 381.306 370.061 381.378L367.326 384.327C367.25 384.404 367.207 384.508 367.207 384.616C367.207 384.725 367.25 384.829 367.326 384.906C367.396 384.973 367.489 385.011 367.585 385.013C367.698 385.002 367.808 384.965 367.905 384.906Z" fill="white"/>
<path d="M370.077 386.61L372.812 383.661C372.888 383.584 372.931 383.48 372.931 383.372C372.931 383.263 372.888 383.159 372.812 383.082C372.733 383.009 372.63 382.969 372.523 382.969C372.415 382.969 372.311 383.009 372.233 383.082L369.498 386.031C369.422 386.108 369.379 386.211 369.379 386.32C369.379 386.429 369.422 386.532 369.498 386.61C369.569 386.675 369.661 386.713 369.757 386.717C369.873 386.723 369.988 386.685 370.077 386.61Z" fill="white"/>
<path d="M317.29 265.285L282.547 265.231L284.551 219.007C284.755 214.309 284.605 209.602 284.101 204.927C283.088 195.441 283.339 186.808 283.865 176.507L284.855 171.57L353.686 178.915L363.095 260.309L328.528 263.89L321.427 217.285L317.29 265.285Z" fill="#21252B"/>
<g opacity="0.3">
<path opacity="0.3" d="M322.188 218.057L321.426 218.042L321.807 183.848H325.563V204.602L323.292 209.082L322.607 208.731L324.801 204.419V184.61H322.569L322.188 218.057Z" fill="black"/>
</g>
<path opacity="0.3" d="M288.78 265.287L290.502 232.83C290.765 228.199 290.765 223.556 290.502 218.925C289.8 207.193 290.205 195.42 291.713 183.763L283.332 177.668V188.335C282.989 193.477 283.469 197.005 283.751 202.156C284.694 210.418 284.949 218.743 284.513 227.047L282.57 265.287H288.78Z" fill="black"/>
<g opacity="0.3">
<path opacity="0.3" d="M353.499 196.616C346.269 189.987 344.257 180.616 344.234 180.563L344.996 180.41C344.996 180.502 346.985 189.553 354.032 196.052L353.499 196.616Z" fill="black"/>
</g>
<path opacity="0.3" d="M328.531 263.89L333.536 263.128L326.763 222.328C325.894 216.126 321.43 218.046 321.43 218.046L328.531 263.89Z" fill="black"/>
<path d="M273.309 122.473L274.071 115.22L280.409 138.557L282.695 184.226L303.076 185.605C320.699 186.902 338.401 184.589 355.099 178.809C353.667 148.02 348.242 106.847 348.242 106.847L346.345 94.1609L370.726 81.9705L360.822 58.9609L349.881 61.46C344.806 62.1 332.685 64.4162 332.685 64.4162L312.524 65.3076L287.183 64.1648L260.135 73.8333C251.259 78.2676 251.26 90.9534 251.26 90.9534L248.844 119.906L273.309 122.473Z" fill="#4574F6"/>
<path d="M273.778 201.664L271.141 157.855L271.027 157.908L270.166 144.262L271.782 122.472L250.372 119.973L250.067 142.693C249.943 144.226 250.062 145.768 250.418 147.264L253.686 166.373L263.591 204.468L273.778 201.664Z" fill="#FC9D9D"/>
<path d="M396.927 56.7209C387.83 42.7476 346.405 22.3438 346.405 22.3438L338.191 29.0942L370.748 56.7209L360.843 59.0066L370.748 82.0161L390.229 72.2942C401.071 66.8847 396.927 56.7209 396.927 56.7209Z" fill="#FC9D9D"/>
<path d="M283.941 216.804L258.692 210.714C258.336 210.628 257.978 210.847 257.892 211.203L254.987 223.246C254.902 223.602 255.121 223.96 255.476 224.046L280.726 230.136C281.082 230.222 281.44 230.002 281.525 229.647L284.43 217.603C284.516 217.247 284.297 216.889 283.941 216.804Z" fill="#21252B"/>
<path opacity="0.3" d="M283.941 216.804L258.692 210.714C258.336 210.628 257.978 210.847 257.892 211.203L254.987 223.246C254.902 223.602 255.121 223.96 255.476 224.046L280.726 230.136C281.082 230.222 281.44 230.002 281.525 229.647L284.43 217.603C284.516 217.247 284.297 216.889 283.941 216.804Z" fill="black"/>
<path d="M283.078 216.585L257.828 210.495C257.472 210.409 257.114 210.628 257.029 210.984L254.124 223.027C254.039 223.383 254.257 223.741 254.613 223.827L279.863 229.917C280.218 230.003 280.576 229.784 280.663 229.428L283.567 217.384C283.653 217.029 283.434 216.671 283.078 216.585Z" fill="#21252B"/>
<path opacity="0.4" d="M281.363 218.96C281.525 218.809 281.626 218.605 281.648 218.385C281.67 218.165 281.612 217.944 281.485 217.764C281.42 217.681 281.34 217.613 281.248 217.562C281.156 217.512 281.055 217.481 280.95 217.472C280.846 217.463 280.741 217.475 280.641 217.508C280.542 217.541 280.45 217.594 280.373 217.665C280.209 217.815 280.108 218.02 280.086 218.241C280.065 218.462 280.127 218.682 280.258 218.861C280.322 218.943 280.402 219.011 280.494 219.06C280.585 219.11 280.686 219.14 280.789 219.149C280.892 219.159 280.997 219.146 281.096 219.114C281.194 219.082 281.285 219.029 281.363 218.96Z" fill="black"/>
<path d="M281.515 219.038C281.681 218.89 281.785 218.685 281.808 218.464C281.83 218.242 281.769 218.02 281.637 217.842C281.573 217.761 281.493 217.693 281.401 217.643C281.31 217.594 281.209 217.563 281.106 217.554C281.002 217.544 280.898 217.556 280.799 217.589C280.7 217.622 280.61 217.674 280.532 217.743C280.371 217.894 280.269 218.098 280.247 218.318C280.224 218.538 280.282 218.759 280.41 218.939C280.474 219.021 280.555 219.089 280.646 219.138C280.737 219.188 280.838 219.218 280.941 219.227C281.045 219.236 281.149 219.224 281.247 219.192C281.346 219.159 281.437 219.107 281.515 219.038Z" fill="#3F4249"/>
<path opacity="0.5" d="M281.349 218.811C281.449 218.711 281.51 218.581 281.523 218.442C281.535 218.302 281.498 218.163 281.418 218.049C281.377 217.988 281.323 217.937 281.259 217.9C281.197 217.864 281.126 217.841 281.053 217.834C280.98 217.828 280.907 217.838 280.838 217.863C280.769 217.888 280.708 217.928 280.656 217.98C280.557 218.078 280.495 218.209 280.483 218.348C280.47 218.487 280.507 218.627 280.587 218.742C280.629 218.802 280.683 218.852 280.746 218.89C280.809 218.926 280.879 218.949 280.952 218.956C281.025 218.962 281.099 218.953 281.167 218.928C281.236 218.903 281.298 218.862 281.349 218.811Z" fill="black"/>
<path opacity="0.4" d="M281.353 218.377C281.36 218.256 281.324 218.136 281.251 218.039C281.179 217.941 281.075 217.873 280.956 217.844H281.048C281.116 217.844 281.183 217.857 281.245 217.884C281.308 217.911 281.365 217.95 281.411 217.999C281.459 218.049 281.495 218.107 281.519 218.171C281.543 218.234 281.554 218.302 281.551 218.369C281.548 218.51 281.494 218.644 281.401 218.747C281.307 218.851 281.179 218.917 281.04 218.933H280.934C281.059 218.907 281.169 218.836 281.246 218.734C281.323 218.632 281.361 218.505 281.353 218.377Z" fill="black"/>
<path opacity="0.4" d="M281.363 218.96C281.525 218.809 281.626 218.605 281.648 218.385C281.67 218.165 281.612 217.944 281.485 217.764C281.42 217.681 281.34 217.613 281.248 217.562C281.156 217.512 281.055 217.481 280.95 217.472C280.846 217.463 280.741 217.475 280.641 217.508C280.542 217.541 280.45 217.594 280.373 217.665C280.209 217.815 280.108 218.02 280.086 218.241C280.065 218.462 280.127 218.682 280.258 218.861C280.322 218.943 280.402 219.011 280.494 219.06C280.585 219.11 280.686 219.14 280.789 219.149C280.892 219.159 280.997 219.146 281.096 219.114C281.194 219.082 281.285 219.029 281.363 218.96Z" fill="black"/>
<path d="M281.515 219.038C281.681 218.89 281.785 218.685 281.808 218.464C281.83 218.242 281.769 218.02 281.637 217.842C281.573 217.761 281.493 217.693 281.401 217.643C281.31 217.594 281.209 217.563 281.106 217.554C281.002 217.544 280.898 217.556 280.799 217.589C280.7 217.622 280.61 217.674 280.532 217.743C280.371 217.894 280.269 218.098 280.247 218.318C280.224 218.538 280.282 218.759 280.41 218.939C280.474 219.021 280.555 219.089 280.646 219.138C280.737 219.188 280.838 219.218 280.941 219.227C281.045 219.236 281.149 219.224 281.247 219.192C281.346 219.159 281.437 219.107 281.515 219.038Z" fill="#3F4249"/>
<path opacity="0.5" d="M281.349 218.811C281.449 218.711 281.51 218.581 281.523 218.442C281.535 218.302 281.498 218.163 281.418 218.049C281.377 217.988 281.323 217.937 281.259 217.9C281.197 217.864 281.126 217.841 281.053 217.834C280.98 217.828 280.907 217.838 280.838 217.863C280.769 217.888 280.708 217.928 280.656 217.98C280.557 218.078 280.495 218.209 280.483 218.348C280.47 218.487 280.507 218.627 280.587 218.742C280.629 218.802 280.683 218.852 280.746 218.89C280.809 218.926 280.879 218.949 280.952 218.956C281.025 218.962 281.099 218.953 281.167 218.928C281.236 218.903 281.298 218.862 281.349 218.811Z" fill="black"/>
<path opacity="0.4" d="M281.353 218.377C281.36 218.256 281.324 218.136 281.251 218.039C281.179 217.941 281.075 217.873 280.956 217.844H281.048C281.116 217.844 281.183 217.857 281.245 217.884C281.308 217.911 281.365 217.95 281.411 217.999C281.459 218.049 281.495 218.107 281.519 218.171C281.543 218.234 281.554 218.302 281.551 218.369C281.548 218.51 281.494 218.644 281.401 218.747C281.307 218.851 281.179 218.917 281.04 218.933H280.934C281.059 218.907 281.169 218.836 281.246 218.734C281.323 218.632 281.361 218.505 281.353 218.377Z" fill="black"/>
<g opacity="0.3">
<path opacity="0.3" d="M272.463 97.427C272.387 97.4324 272.312 97.4095 272.251 97.3638C272.191 97.3173 272.15 97.2503 272.136 97.1756C271.477 93.7706 270.142 90.5326 268.209 87.6533C266.276 84.7741 263.784 82.3124 260.882 80.4137C260.846 80.3931 260.814 80.3665 260.788 80.3337C260.763 80.301 260.744 80.2628 260.734 80.2232C260.723 80.1836 260.72 80.1417 260.725 80.1006C260.73 80.0595 260.744 80.0198 260.764 79.9832C260.784 79.9474 260.811 79.9162 260.844 79.8903C260.877 79.8652 260.915 79.8461 260.955 79.8354C260.994 79.8248 261.036 79.8217 261.077 79.8263C261.118 79.8316 261.158 79.8453 261.195 79.8651C264.171 81.8072 266.727 84.3261 268.712 87.2732C270.697 90.2202 272.072 93.536 272.753 97.0233C272.761 97.0636 272.762 97.1048 272.754 97.1451C272.747 97.1855 272.731 97.2244 272.708 97.2587C272.686 97.2922 272.656 97.3219 272.622 97.344C272.587 97.3668 272.549 97.3821 272.509 97.389L272.463 97.427Z" fill="black"/>
</g>
<path opacity="0.2" d="M282.719 184.23L293.127 185.076V183.552L288.814 141.541C288.508 138.601 287.709 135.735 286.452 133.061L274.955 102.09L272.418 96.3828L272.989 98.3866C274.224 103.766 274.986 111.385 274.513 115.362L274.909 117.51L280.487 138.562L282.719 184.23Z" fill="black"/>
<path d="M337.848 16.9791L335.143 15.6915L328.194 12.1944L321.55 12.1562C321.379 12.189 321.227 12.2866 321.125 12.4283C321.023 12.57 320.979 12.7452 321.002 12.9182C321.063 13.6801 321.398 14.8153 322.846 14.5639L318.008 14.0915C317.829 14.077 317.65 14.1182 317.496 14.2096C317.342 14.301 317.22 14.4382 317.147 14.602L316.964 15.021C316.667 15.6915 318.274 16.6667 318.99 16.7886L319.371 16.8572L315.097 16.2934C314.993 16.3071 314.892 16.3429 314.802 16.3986C314.712 16.4534 314.635 16.5265 314.574 16.6134C314.514 16.7003 314.473 16.7985 314.453 16.9022C314.433 17.0058 314.434 17.1117 314.457 17.2153C314.517 17.7105 314.691 18.186 314.968 18.602C315.242 18.7544 311.92 18.4801 310.648 18.381C310.585 18.3734 310.522 18.3818 310.463 18.4031C310.405 18.4252 310.351 18.4603 310.309 18.506C310.265 18.5517 310.234 18.6073 310.216 18.6675C310.198 18.7277 310.194 18.7909 310.206 18.8534C310.335 19.6153 311.067 21.1391 314.518 21.6801C319.333 22.442 321.291 21.9696 321.291 21.9696L324.941 23.6534L324.392 25.901L319.196 24.9258L318.922 27.8896C319.63 28.3848 325.467 30.0763 325.467 30.0763C325.467 30.0763 333.497 31.6001 335.859 30.922C338.221 30.2439 339.95 29.6725 339.95 29.6725L347.288 22.9372L337.848 16.9791Z" fill="#FC9D9D"/>
<path opacity="0.15" d="M325.742 22.8927C325.742 22.8927 330.314 21.1936 332.653 18.5117" stroke="black" stroke-width="0.457143" stroke-miterlimit="10" stroke-linecap="round"/>
<path opacity="0.15" d="M319.469 25.1618L326.775 26.5637C326.775 26.5637 330.585 23.5999 333.876 24.9866" stroke="black" stroke-width="0.457143" stroke-miterlimit="10" stroke-linecap="round"/>
<path opacity="0.15" d="M315.332 19.0057C315.332 19.0057 320.376 19.7676 322.562 18.7695C322.562 18.7695 323.393 20.2933 326.113 20.6743" stroke="black" stroke-width="0.457143" stroke-miterlimit="10" stroke-linecap="round"/>
<path opacity="0.15" d="M319.379 16.8281C321.122 16.982 322.877 16.982 324.621 16.8281C325.604 18.006 326.939 18.8365 328.43 19.1977" stroke="black" stroke-width="0.457143" stroke-miterlimit="10" stroke-linecap="round"/>
<path opacity="0.15" d="M322.258 14.6719C323.788 14.9987 325.369 15.014 326.905 14.7176L329.877 16.7747" stroke="black" stroke-width="0.457143" stroke-miterlimit="10" stroke-linecap="round"/>
<path opacity="0.15" d="M325.236 12.3828C325.212 15.4563 324.875 18.52 324.23 21.5257L323.888 23.1104L321.305 21.9219L321.35 12.459L325.236 12.3828Z" fill="black"/>
<path opacity="0.15" d="M324.479 26.0502V29.8597L320.555 28.5188L321.126 25.2578L324.479 26.0502Z" fill="black"/>
<path opacity="0.15" d="M396.856 56.7695C397.755 65.2876 380.155 72.2819 380.155 72.2819L368.43 76.6705L370.715 82.0038L390.197 72.2819C400.666 67.0933 397.161 57.5086 396.856 56.7695Z" fill="black"/>
<path opacity="0.2" d="M370.745 82.0013L346.403 94.1613L343.797 85.9023L368.452 76.668L370.745 82.0013Z" fill="black"/>
<g opacity="0.3">
<path opacity="0.3" d="M346.405 94.4708C346.337 94.4723 346.27 94.451 346.215 94.4113C346.16 94.3717 346.12 94.3146 346.1 94.2498C346.1 94.1279 342.603 82.5089 341.361 80.025C341.323 79.9489 341.318 79.862 341.345 79.782C341.372 79.702 341.43 79.6357 341.506 79.5984C341.542 79.5801 341.583 79.5695 341.624 79.5672C341.665 79.5641 341.706 79.5702 341.745 79.5839C341.784 79.5969 341.82 79.6182 341.851 79.6456C341.881 79.6731 341.906 79.7058 341.925 79.7431C343.197 82.2727 346.565 93.587 346.702 94.067C346.725 94.1478 346.716 94.2346 346.677 94.3093C346.636 94.3832 346.568 94.4388 346.488 94.4632L346.405 94.4708Z" fill="black"/>
</g>
<g opacity="0.3">
<path opacity="0.3" d="M313.863 155.759C313.794 155.756 313.727 155.732 313.672 155.69C313.617 155.647 313.578 155.589 313.559 155.522C313.547 155.481 313.544 155.439 313.549 155.397C313.555 155.355 313.568 155.315 313.59 155.279C313.611 155.243 313.639 155.211 313.674 155.186C313.707 155.161 313.746 155.143 313.787 155.134C313.917 155.134 327.021 151.461 333.17 140.147C333.186 140.104 333.211 140.066 333.244 140.034C333.277 140.002 333.315 139.977 333.358 139.961C333.401 139.945 333.447 139.939 333.492 139.942C333.538 139.946 333.582 139.959 333.623 139.981C333.662 140.003 333.697 140.033 333.725 140.069C333.752 140.106 333.771 140.148 333.781 140.193C333.791 140.237 333.791 140.283 333.782 140.328C333.772 140.373 333.753 140.415 333.726 140.452C327.44 152.01 314.084 155.69 313.917 155.743L313.863 155.759Z" fill="black"/>
</g>
<g opacity="0.15">
<path opacity="0.15" d="M266.729 144.584C266.668 144.584 266.607 144.508 266.585 144.386C266.564 144.316 266.561 144.242 266.575 144.17C266.59 144.099 266.622 144.032 266.668 143.975C267.819 142.999 270.15 143.914 270.249 143.975C270.348 144.036 270.394 144.18 270.379 144.348C270.364 144.516 270.28 144.63 270.188 144.599C270.097 144.569 267.849 143.677 266.79 144.599C266.769 144.602 266.747 144.596 266.729 144.584Z" fill="black"/>
</g>
<path d="M273.545 201.387L278.223 209.372L281.141 216.229L276.73 215.124C276.73 215.124 276.478 223.383 274.101 224.412C273.385 224.724 271.236 223.916 271.457 222.179C271.143 222.477 270.765 222.7 270.352 222.832C269.939 222.964 269.501 223.001 269.073 222.941C267.747 222.667 267.427 221.806 267.549 220.16C267.549 220.16 266.924 221.41 265.08 220.632C263.968 220.16 264.25 218.484 264.25 218.484C264.25 218.484 262.238 218.659 261.964 217.615C261.673 215.911 261.636 214.172 261.857 212.457L263.061 206.682L263.511 202.949L273.545 201.387Z" fill="#FC9D9D"/>
<path opacity="0.15" d="M264.285 218.512C264.626 217.357 264.847 216.17 264.94 214.969" stroke="black" stroke-width="0.464762" stroke-miterlimit="10" stroke-linecap="round"/>
<path opacity="0.15" d="M267.508 220.097C267.939 218.743 268.22 217.345 268.347 215.93" stroke="black" stroke-width="0.464762" stroke-miterlimit="10" stroke-linecap="round"/>
<path opacity="0.15" d="M271.457 222.184C271.935 220.478 272.266 218.735 272.448 216.973" stroke="black" stroke-width="0.464762" stroke-miterlimit="10" stroke-linecap="round"/>
<path opacity="0.15" d="M257.572 165.478L253.381 145.364L253.564 120.472L250.372 119.992L250.067 142.712C249.943 144.245 250.062 145.787 250.418 147.284L253.686 166.392L263.393 204L261.999 211.954L261.755 213.531L261.839 216.533C261.922 218.674 262.776 218.385 262.776 218.385V212.96L264.924 203.573L257.572 165.478Z" fill="black"/>
<path opacity="0.2" d="M248.848 119.978L251.263 91.0258C251.263 91.0258 251.263 78.34 260.139 73.9057L261.191 73.5781C256.215 78.0048 256.017 85.6391 256.017 85.6391L253.564 120.496L248.848 119.978Z" fill="black"/>
<path d="M285.086 25.3937L288.804 45.5918L288.134 64.3575L298.671 68.3195C302.148 69.6215 305.794 70.4215 309.497 70.6966H310.054C310.572 70.7301 311.091 70.6486 311.573 70.4573C312.056 70.2669 312.49 69.9712 312.845 69.5918C313.199 69.2132 313.466 68.7606 313.625 68.2661C313.784 67.7724 313.831 67.249 313.764 66.7347L312.286 54.4832L318.381 54.2928C318.589 54.3042 318.798 54.3042 319.006 54.2928C322.93 54.0718 325.139 53.3937 325.162 47.0014L324.728 39.329L326.922 37.8813C326.967 37.8577 327.008 37.8265 327.044 37.7899C327.323 37.556 327.502 37.2238 327.543 36.8627C327.584 36.5008 327.484 36.1366 327.265 35.8471L322.762 30.3994L322.648 29.9956L322.755 29.0737C323.172 25.1979 322.529 21.2825 320.895 17.7442L319.28 14.2852L285.086 25.3937Z" fill="#FC9D9D"/>
<path d="M319.554 19.1919L310.556 20.9519C306.289 23.9995 312.94 28.6091 302.624 30.811C302.434 31.9919 303.965 36.6243 301.984 36.9062C300.46 37.2795 300.308 35.2072 300.087 34.1786L294.388 36.0681C295.272 43.2224 292.712 45.15 288.834 46.7348C283.104 37.1652 270.662 16.1291 287.5 12.4948C289.138 12.5862 289.71 10.7424 290.167 10.1253C291.691 6.0643 298.83 3.39762 303.698 5.18048C305.372 6.24714 307.281 6.88717 309.258 7.04564C311.236 7.20336 313.222 6.87419 315.043 6.08715C324.277 2.56715 329.352 16.2967 319.554 19.1919Z" fill="black"/>
<path d="M302.19 43.9779L300.217 34.5379C300.119 34.0427 299.924 33.5726 299.643 33.1535C299.361 32.7352 298.999 32.3764 298.578 32.0983C298.158 31.8202 297.685 31.629 297.189 31.5353C296.694 31.4415 296.184 31.4469 295.691 31.5512C294.702 31.7791 293.84 32.3848 293.29 33.2389C292.741 34.0922 292.548 35.1276 292.75 36.1227L293.139 37.9894C293.335 38.9783 293.727 39.9185 294.29 40.755C294.853 41.5916 295.576 42.3078 296.418 42.8625C297.26 43.4179 298.204 43.7996 299.195 43.9878C300.186 44.1752 301.204 44.1638 302.19 43.9551V43.9779Z" fill="#FC9D9D"/>
<g opacity="0.3">
<path opacity="0.3" d="M299.22 36.8375L298.892 35.268C298.754 34.612 298.363 34.0375 297.804 33.668C297.245 33.2985 296.563 33.1644 295.905 33.2947C295.542 33.3655 295.198 33.5164 294.9 33.7366C294.603 33.9568 294.358 34.241 294.183 34.5671V34.6356C294.151 34.705 294.132 34.7797 294.129 34.8558C294.126 34.9313 294.139 35.0075 294.165 35.0791C294.193 35.1499 294.234 35.2147 294.286 35.2696C294.34 35.3244 294.403 35.3678 294.473 35.3976C294.542 35.4326 294.616 35.4532 294.693 35.4577C294.769 35.4615 294.846 35.4501 294.918 35.4227C294.99 35.3953 295.055 35.3534 295.11 35.2993C295.165 35.2452 295.207 35.1796 295.235 35.108C295.319 34.913 295.45 34.7408 295.616 34.6082C295.782 34.4756 295.978 34.3857 296.187 34.3461C296.373 34.3073 296.564 34.3057 296.751 34.3408C296.937 34.3758 297.114 34.4474 297.273 34.5518C297.432 34.6562 297.569 34.7903 297.675 34.9473C297.781 35.1042 297.856 35.281 297.894 35.4661L298.222 37.0432C298.261 37.1895 298.353 37.316 298.479 37.3983C298.606 37.4813 298.758 37.5149 298.907 37.4928C298.975 37.4776 299.038 37.4463 299.093 37.4029C299.147 37.3587 299.191 37.3038 299.221 37.2406C299.251 37.1773 299.266 37.1088 299.266 37.0387C299.266 36.9694 299.25 36.9008 299.22 36.8375Z" fill="#21252B"/>
</g>
<path opacity="0.15" d="M313.115 59.6964L307.065 55.6431C306.945 55.5425 306.853 55.4137 306.796 55.269C306.739 55.1242 306.718 54.9673 306.737 54.8126C306.764 54.5703 306.886 54.3486 307.076 54.1954C307.265 54.0431 307.508 53.9715 307.751 53.9974L312.254 54.4241L313.115 59.6964Z" fill="black"/>
<path d="M312.196 54.626L307.754 53.9937C300.044 53.7423 300.219 34.5346 300.219 34.5346L302.893 33.4375C303.358 41.6127 306.2 45.1556 306.2 45.1556C309.629 49.8108 313.057 48.7899 315.259 47.1975C316.577 46.2375 317.583 44.1956 318.238 42.687C320.204 38.1156 324.752 40.0585 324.752 40.0585L325.141 46.9918C325.141 53.3842 322.909 54.0623 318.985 54.2832C318.776 54.2947 318.568 54.2947 318.36 54.2832" fill="black"/>
<path opacity="0.15" d="M291.852 45.1631L297.055 43.2888C296.151 42.6778 295.331 41.9501 294.617 41.125C294.45 41.9494 294.121 42.7319 293.645 43.4252C293.17 44.1193 292.56 44.7105 291.852 45.1631Z" fill="black"/>
<path d="M319.896 32.9223C320.678 32.7791 321.183 31.9547 321.023 31.0816C320.863 30.2077 320.099 29.6164 319.316 29.7597C318.534 29.9029 318.029 30.7273 318.19 31.6004C318.35 32.4743 319.113 33.0656 319.896 32.9223Z" fill="black"/>
<path d="M320.264 30.7193C320.382 30.7193 320.477 30.6202 320.477 30.4983C320.477 30.3764 320.382 30.2773 320.264 30.2773C320.147 30.2773 320.051 30.3764 320.051 30.4983C320.051 30.6202 320.147 30.7193 320.264 30.7193Z" fill="white"/>
<path d="M325.055 44.2748C323.822 44.2252 322.589 44.3639 321.398 44.6862C321.333 44.7068 321.264 44.7045 321.2 44.6793C321.138 44.655 321.085 44.6092 321.051 44.5513C321.018 44.4927 321.005 44.4241 321.015 44.357C321.025 44.29 321.059 44.2291 321.108 44.1833C322.169 43.1121 323.511 42.3616 324.979 42.0195L325.055 44.2748Z" fill="white"/>
<path d="M321.872 25.7367C321.788 26.0643 320.348 26.1862 318.649 26.6586C316.95 27.131 315.678 27.7481 315.404 27.5195C315.282 27.4053 315.465 27.07 315.967 26.6738C316.649 26.155 317.425 25.774 318.253 25.5538C319.102 25.3138 319.988 25.2315 320.866 25.31C321.552 25.3938 321.91 25.5767 321.872 25.7367Z" fill="black"/>
<path opacity="0.15" d="M370.746 56.7227C370.746 56.7227 374.761 60.3341 377.809 61.8579" stroke="black" stroke-width="0.761905" stroke-miterlimit="10" stroke-linecap="round"/>
<path opacity="0.2" d="M296.727 285.795C296.727 285.795 301.984 285.696 304.087 283.867" stroke="black" stroke-width="0.761905" stroke-miterlimit="10"/>
<path opacity="0.2" d="M356.535 285.6C356.535 285.6 361.328 285.699 362.333 284.633" stroke="black" stroke-width="0.761905" stroke-miterlimit="10"/>
<path opacity="0.15" d="M284.323 380.951L287.835 376.547L288.018 291.488L288.78 265.286L284.696 264.715C283.424 303.023 285.756 342.795 284.323 380.951Z" fill="black"/>
<g opacity="0.3">
<path opacity="0.3" d="M286.553 201.22L286.324 200.458C295.254 197.692 297.479 186.142 297.494 186.027L298.256 186.164C298.225 186.317 295.924 198.309 286.553 201.22Z" fill="black"/>
</g>
<path d="M465.467 368.53C462.298 364.72 458.694 360.987 455.936 356.896C455.326 355.989 452.164 350.183 454.778 350.892C457.391 351.6 459.692 355.989 460.797 358.122C461.901 360.256 463.082 362.381 464.096 364.56C464.613 365.491 465.044 366.468 465.383 367.478C465.383 367.608 465.688 368.781 465.467 368.53C463.082 365.688 465.863 368.995 465.467 368.53Z" fill="#4574F6"/>
<path d="M478.241 400.144C478.203 398.796 477.998 397.457 477.632 396.16C476.868 393.526 475.665 391.04 474.074 388.807C470.752 384.038 466.127 379.543 460.611 377.493C459.333 376.997 458 376.656 456.641 376.48C456.001 376.411 454.02 376.106 453.525 376.67C453.03 377.234 453.655 377.112 454.142 377.318C455.115 377.753 456.052 378.263 456.946 378.842C465.327 383.992 475.232 390.011 477.449 400.175L478.241 400.144Z" fill="#4574F6"/>
<path opacity="0.2" d="M478.241 400.144C478.203 398.796 477.998 397.457 477.632 396.16C476.868 393.526 475.665 391.04 474.074 388.807C470.752 384.038 466.127 379.543 460.611 377.493C459.333 376.997 458 376.656 456.641 376.48C456.001 376.411 454.02 376.106 453.525 376.67C453.03 377.234 453.655 377.112 454.142 377.318C455.115 377.753 456.052 378.263 456.946 378.842C465.327 383.992 475.232 390.011 477.449 400.175L478.241 400.144Z" fill="black"/>
<path d="M480.073 400.146C479.593 392.352 477.276 384.847 474.739 377.51C473.589 374.173 472.454 370.79 471.021 367.552C469.292 363.635 467.174 359.834 465.101 356.123C464.118 354.355 463.105 352.611 462.008 350.912C461.513 350.15 461.002 349.388 460.484 348.626C460.271 348.344 459.25 347.392 459.242 347.056C459.242 346.561 459.707 346.973 460.004 347.14C460.698 347.579 461.358 348.071 461.977 348.611C463.473 349.923 464.84 351.375 466.061 352.946C468.705 356.259 470.872 359.927 472.499 363.841C473.993 367.728 475.283 371.69 476.362 375.712C477.769 380.347 478.88 385.068 479.684 389.845C480.033 391.984 480.272 394.141 480.4 396.306C480.446 397.22 480.461 398.135 480.454 399.049C480.454 399.27 480.553 399.91 480.454 400.077C480.37 400.07 480.103 400.618 480.073 400.146Z" fill="#4574F6"/>
<path opacity="0.2" d="M480.073 400.146C479.593 392.352 477.276 384.847 474.739 377.51C473.589 374.173 472.454 370.79 471.021 367.552C469.292 363.635 467.174 359.834 465.101 356.123C464.118 354.355 463.105 352.611 462.008 350.912C461.513 350.15 461.002 349.388 460.484 348.626C460.271 348.344 459.25 347.392 459.242 347.056C459.242 346.561 459.707 346.973 460.004 347.14C460.698 347.579 461.358 348.071 461.977 348.611C463.473 349.923 464.84 351.375 466.061 352.946C468.705 356.259 470.872 359.927 472.499 363.841C473.993 367.728 475.283 371.69 476.362 375.712C477.769 380.347 478.88 385.068 479.684 389.845C480.033 391.984 480.272 394.141 480.4 396.306C480.446 397.22 480.461 398.135 480.454 399.049C480.454 399.27 480.553 399.91 480.454 400.077C480.37 400.07 480.103 400.618 480.073 400.146Z" fill="black"/>
<path d="M479.815 400.146H480.455C480.455 399.719 480.371 399.27 480.356 398.934C480.279 397.047 480.083 395.167 479.769 393.304C479.113 389.236 477.896 385.28 476.15 381.548C472.897 374.691 468.097 368.466 461.339 364.862C460.699 364.527 453.186 361.197 452.958 362.211C452.828 362.698 455.426 364.115 455.838 364.413C457.171 365.38 458.489 366.386 459.769 367.46C465.4 372.032 470.809 377.075 474.36 383.46C477.128 388.666 478.974 394.31 479.815 400.146Z" fill="#4574F6"/>
<path d="M483.356 400.143H483.661C483.661 399.656 483.661 399.16 483.661 398.673C483.661 397.294 483.661 395.915 483.6 394.536C483.524 391.435 483.371 388.326 483.082 385.241C482.564 379.549 481.954 373.873 479.981 368.479C479.538 367.237 479.029 366.018 478.457 364.83C478.351 364.624 477.566 362.818 477.322 363.176C477.238 363.305 477.429 363.983 477.452 364.136C477.535 364.654 477.627 365.172 477.711 365.66C477.924 366.917 478.145 368.166 478.381 369.416C479.425 375.016 480.796 380.547 481.665 386.178C482.366 390.833 482.892 395.481 483.356 400.143Z" fill="#4574F6"/>
<path opacity="0.2" d="M483.356 400.143H483.661C483.661 399.656 483.661 399.16 483.661 398.673C483.661 397.294 483.661 395.915 483.6 394.536C483.524 391.435 483.371 388.326 483.082 385.241C482.564 379.549 481.954 373.873 479.981 368.479C479.538 367.237 479.029 366.018 478.457 364.83C478.351 364.624 477.566 362.818 477.322 363.176C477.238 363.305 477.429 363.983 477.452 364.136C477.535 364.654 477.627 365.172 477.711 365.66C477.924 366.917 478.145 368.166 478.381 369.416C479.425 375.016 480.796 380.547 481.665 386.178C482.366 390.833 482.892 395.481 483.356 400.143Z" fill="white"/>
<path d="M488.241 384.085C487.85 380.841 487.969 377.556 488.591 374.348C488.868 372.449 489.327 370.581 489.963 368.771C490.659 367.078 491.546 365.47 492.606 363.979C493.018 363.369 493.429 362.76 493.826 362.142C493.94 361.96 494.587 360.619 494.747 360.619C495.441 360.542 494.648 363.666 494.511 364.146C493.949 365.859 493.201 367.504 492.279 369.053C491.356 370.712 490.647 372.481 490.168 374.318C489.617 376.225 489.17 378.16 488.827 380.116C488.683 380.992 488.568 381.868 488.507 382.752C488.549 383.099 488.549 383.449 488.507 383.796C488.523 383.651 488.286 384.626 488.241 384.085Z" fill="#4574F6"/>
<path opacity="0.2" d="M488.241 384.085C487.85 380.841 487.969 377.556 488.591 374.348C488.868 372.449 489.327 370.581 489.963 368.771C490.659 367.078 491.546 365.47 492.606 363.979C493.018 363.369 493.429 362.76 493.826 362.142C493.94 361.96 494.587 360.619 494.747 360.619C495.441 360.542 494.648 363.666 494.511 364.146C493.949 365.859 493.201 367.504 492.279 369.053C491.356 370.712 490.647 372.481 490.168 374.318C489.617 376.225 489.17 378.16 488.827 380.116C488.683 380.992 488.568 381.868 488.507 382.752C488.549 383.099 488.549 383.449 488.507 383.796C488.523 383.651 488.286 384.626 488.241 384.085Z" fill="black"/>
<path d="M486.404 358.237C486.548 359.693 486.655 361.155 486.769 362.618C487.272 369.178 487.531 375.761 487.455 382.329C487.379 387.662 487.226 394.588 487.386 400.165H487.897C487.897 399.121 487.897 397.955 487.897 397.506C487.988 395.875 488.049 393.635 488.171 392.013C488.461 388.34 488.811 384.683 489.063 381.011C489.497 374.641 489.885 368.249 488.506 361.963C488.212 360.563 487.827 359.184 487.356 357.834C487.127 357.178 486.868 356.538 486.594 355.906C486.525 355.754 486.32 355.007 486.099 355.258C485.878 355.51 486.144 356.089 486.167 356.279C486.259 356.912 486.343 357.559 486.404 358.237Z" fill="#4574F6"/>
<path d="M491.545 400.901C491.895 397.854 492.307 393.846 492.589 392.452C493.389 388.398 494.311 384.376 495.393 380.391C497.13 373.998 499.804 367.804 502.524 361.777C503.233 360.208 503.941 358.631 504.688 357.077C504.886 356.68 506.212 354.494 505.45 354.532C505.069 354.532 504.132 355.644 503.827 355.926C503.202 356.501 502.61 357.109 502.052 357.747C500.952 358.963 499.956 360.267 499.072 361.648C495.323 367.477 493.846 374.219 492.581 380.939C491.479 387.547 490.749 394.212 490.395 400.901H491.545Z" fill="#4574F6"/>
<path d="M522.571 349.492C521.809 349.431 520.491 350.14 519.828 350.414C518.913 350.786 518.018 351.206 517.146 351.671C515.479 352.569 513.891 353.607 512.4 354.772C505.085 360.441 500.819 368.821 497.306 377.187C494.579 383.686 491.379 393.187 491.211 400.905H492.026C492.026 400.441 492.026 400.075 492.026 400.022C492.102 399.029 492.239 398.041 492.438 397.065C492.921 394.678 493.583 392.33 494.419 390.041C496.159 385.3 498.213 380.681 500.567 376.212C504.758 368.235 510.265 361.023 516.857 354.879C518.441 353.355 520.118 351.983 521.839 350.65C522.38 350.254 523.721 349.583 522.571 349.492Z" fill="#4574F6"/>
<path opacity="0.2" d="M522.571 349.492C521.809 349.431 520.491 350.14 519.828 350.414C518.913 350.786 518.018 351.206 517.146 351.671C515.479 352.569 513.891 353.607 512.4 354.772C505.085 360.441 500.819 368.821 497.306 377.187C494.579 383.686 491.379 393.187 491.211 400.905H492.026C492.026 400.441 492.026 400.075 492.026 400.022C492.102 399.029 492.239 398.041 492.438 397.065C492.921 394.678 493.583 392.33 494.419 390.041C496.159 385.3 498.213 380.681 500.567 376.212C504.758 368.235 510.265 361.023 516.857 354.879C518.441 353.355 520.118 351.983 521.839 350.65C522.38 350.254 523.721 349.583 522.571 349.492Z" fill="white"/>
<path d="M522.778 372.132C522.298 371.492 519.425 371.819 518.755 371.88C517.543 372.008 516.347 372.263 515.189 372.642C508.736 374.691 503.89 379.803 499.791 384.977C496.53 389.091 493.002 395.347 491.555 400.909H492.538C492.698 400.203 492.896 399.506 493.132 398.821C493.845 397.198 494.699 395.64 495.684 394.165C497.683 391.15 499.981 388.342 502.541 385.784C507.055 381.282 512.223 377.489 517.871 374.532C519.063 373.896 520.301 373.352 521.574 372.901C521.909 372.779 523.159 372.65 522.778 372.132Z" fill="#4574F6"/>
<path opacity="0.2" d="M522.778 372.132C522.298 371.492 519.425 371.819 518.755 371.88C517.543 372.008 516.347 372.263 515.189 372.642C508.736 374.691 503.89 379.803 499.791 384.977C496.53 389.091 493.002 395.347 491.555 400.909H492.538C492.698 400.203 492.896 399.506 493.132 398.821C493.845 397.198 494.699 395.64 495.684 394.165C497.683 391.15 499.981 388.342 502.541 385.784C507.055 381.282 512.223 377.489 517.871 374.532C519.063 373.896 520.301 373.352 521.574 372.901C521.909 372.779 523.159 372.65 522.778 372.132Z" fill="black"/>
<path d="M193.499 393.024C193.499 393.024 193.925 380.94 187.236 377.268C180.546 373.595 131.525 371.66 131.525 371.66L107.602 388.277L108.866 401.093H193.506L193.499 393.024Z" fill="#3F4249"/>
<path d="M166.776 399.38C166.989 397.59 167.233 395.197 167.393 394.374C167.873 391.974 168.422 389.582 169.062 387.22C170.178 383.438 171.59 379.749 173.283 376.188C173.702 375.258 174.121 374.329 174.57 373.407C174.685 373.17 175.462 371.883 175.027 371.883C174.799 371.883 174.265 372.538 174.067 372.706C173.698 373.048 173.347 373.409 173.016 373.788C172.364 374.499 171.773 375.263 171.248 376.073C169.031 379.532 168.147 383.525 167.401 387.502C166.745 391.419 166.313 395.369 166.105 399.334L166.776 399.38Z" fill="#4574F6"/>
<path d="M185.176 368.906C184.607 368.992 184.058 369.177 183.553 369.455C183.009 369.681 182.478 369.935 181.961 370.217C180.973 370.747 180.032 371.361 179.149 372.053C174.814 375.413 172.292 380.381 170.205 385.341C168.582 389.181 166.685 394.811 166.57 399.382H167.05C167.05 399.108 167.05 398.895 167.05 398.857C167.106 398.265 167.2 397.677 167.332 397.097C167.619 395.683 168.012 394.292 168.506 392.937C169.534 390.125 170.751 387.386 172.147 384.739C174.634 380.021 177.898 375.756 181.801 372.121C182.746 371.23 183.736 370.4 184.757 369.607C185.054 369.356 185.847 368.96 185.176 368.906Z" fill="#4574F6"/>
<path opacity="0.2" d="M185.176 368.906C184.607 368.992 184.058 369.177 183.553 369.455C183.009 369.681 182.478 369.935 181.961 370.217C180.973 370.747 180.032 371.361 179.149 372.053C174.814 375.413 172.292 380.381 170.205 385.341C168.582 389.181 166.685 394.811 166.57 399.382H167.05C167.05 399.108 167.05 398.895 167.05 398.857C167.106 398.265 167.2 397.677 167.332 397.097C167.619 395.683 168.012 394.292 168.506 392.937C169.534 390.125 170.751 387.386 172.147 384.739C174.634 380.021 177.898 375.756 181.801 372.121C182.746 371.23 183.736 370.4 184.757 369.607C185.054 369.356 185.847 368.96 185.176 368.906Z" fill="white"/>
<path d="M185.292 382.327C185.01 381.946 183.303 382.137 182.907 382.175C182.187 382.249 181.477 382.399 180.789 382.625C176.979 383.836 174.092 386.868 171.646 389.939C169.439 392.746 167.789 395.951 166.785 399.379H167.334C167.429 398.961 167.546 398.55 167.684 398.145C168.112 397.181 168.622 396.256 169.208 395.379C170.39 393.598 171.745 391.94 173.254 390.426C175.93 387.756 178.994 385.505 182.343 383.752C183.051 383.379 183.785 383.056 184.538 382.785C184.774 382.708 185.513 382.617 185.292 382.327Z" fill="#4574F6"/>
<path opacity="0.2" d="M185.292 382.327C185.01 381.946 183.303 382.137 182.907 382.175C182.187 382.249 181.477 382.399 180.789 382.625C176.979 383.836 174.092 386.868 171.646 389.939C169.439 392.746 167.789 395.951 166.785 399.379H167.334C167.429 398.961 167.546 398.55 167.684 398.145C168.112 397.181 168.622 396.256 169.208 395.379C170.39 393.598 171.745 391.94 173.254 390.426C175.93 387.756 178.994 385.505 182.343 383.752C183.051 383.379 183.785 383.056 184.538 382.785C184.774 382.708 185.513 382.617 185.292 382.327Z" fill="black"/>
<path d="M143.713 378.945C143.713 378.945 151.782 374.976 158.128 359.608C163.362 346.953 161.801 339.486 159.004 338.374C155.096 336.835 136.429 362.877 143.713 378.945Z" fill="#4574F6"/>
<path opacity="0.15" d="M143.713 378.945C143.713 378.945 151.782 374.976 158.128 359.608C163.362 346.953 161.801 339.486 159.004 338.374C155.096 336.835 136.429 362.877 143.713 378.945Z" fill="black"/>
<path d="M139.781 384.339C144.543 378.427 150.836 367.737 153.191 356.613" stroke="black" stroke-width="0.464762" stroke-linecap="round" stroke-linejoin="round"/>
<path d="M129.436 349.699C129.436 349.699 138.198 347.664 147.866 334.141C155.836 323.002 156.011 315.375 153.542 313.661C150.114 311.283 126.022 332.403 129.436 349.699Z" fill="#4574F6"/>
<path opacity="0.15" d="M129.436 349.699C129.436 349.699 138.198 347.664 147.866 334.141C155.836 323.002 156.011 315.375 153.542 313.661C150.114 311.283 126.022 332.403 129.436 349.699Z" fill="black"/>
<path d="M126.953 358.624C127.159 348.095 136.69 340.217 144.317 330.898" stroke="black" stroke-width="0.464762" stroke-linecap="round" stroke-linejoin="round"/>
<path d="M117.049 348.334C117.049 348.334 108.058 348.25 95.6695 337.165C85.4676 328.022 83.639 320.616 85.6733 318.406C88.4771 315.313 116.584 330.688 117.049 348.334Z" fill="#4574F6"/>
<path opacity="0.15" d="M117.049 348.334C117.049 348.334 108.058 348.25 95.6695 337.165C85.4676 328.022 83.639 320.616 85.6733 318.406C88.4771 315.313 116.584 330.688 117.049 348.334Z" fill="black"/>
<path d="M124.711 353.476C124.711 353.476 113.146 347.571 102.723 333.148" stroke="black" stroke-width="0.464762" stroke-linecap="round" stroke-linejoin="round"/>
<path d="M127.349 369.185C127.349 369.185 119.996 374.359 103.471 372.568C89.8479 371.09 84.0498 366.138 84.4231 363.151C84.9184 358.999 116.72 355.121 127.349 369.185Z" fill="#4574F6"/>
<path opacity="0.15" d="M127.349 369.185C127.349 369.185 119.996 374.359 103.471 372.568C89.8479 371.09 84.0498 366.138 84.4231 363.151C84.9184 358.999 116.72 355.121 127.349 369.185Z" fill="black"/>
<path d="M135.672 374.864C128.99 368.731 122.262 366.14 106.895 365.203" stroke="black" stroke-width="0.464762" stroke-linecap="round" stroke-linejoin="round"/>
<path d="M120.166 326.819C120.166 326.819 114.513 319.825 115.198 303.2C115.762 289.486 120.311 283.39 123.32 283.558C127.48 283.802 133.492 315.276 120.166 326.819Z" fill="#4574F6"/>
<path opacity="0.15" d="M120.166 326.819C120.166 326.819 114.513 319.825 115.198 303.2C115.762 289.486 120.311 283.39 123.32 283.558C127.48 283.802 133.492 315.276 120.166 326.819Z" fill="black"/>
<path d="M139.784 393.001C140.664 388.719 140.185 384.267 138.412 380.27C133.254 369.123 123.936 357.093 121.742 342.838C120.919 337.451 118.252 323.363 122.778 306.137" stroke="black" stroke-width="0.464762" stroke-linecap="round" stroke-linejoin="round"/>
<path d="M181.047 400.907C181.047 400.907 181.123 400.412 175.218 392.374C169.313 384.336 144.132 386.462 141.755 386.789C139.378 387.117 136.422 400.907 136.422 400.907H181.047Z" fill="#868A91"/>
<path d="M649.471 403.172H1.00605C0.870914 403.208 0.732031 403.196 0.600004 403.137C0.467354 403.078 0.344686 402.972 0.240061 402.829C0.135436 402.687 0.0519725 402.508 -0.00594503 402.308C-0.0638626 402.107 -0.09375 401.889 -0.09375 401.668C-0.09375 401.448 -0.0638626 401.229 -0.00594503 401.029C0.0519725 400.828 0.135436 400.65 0.240061 400.508C0.344686 400.364 0.467354 400.259 0.600004 400.2C0.732031 400.141 0.870914 400.129 1.00605 400.165H649.471C649.608 400.129 649.745 400.141 649.875 400.2C650.012 400.259 650.131 400.364 650.237 400.508C650.342 400.65 650.423 400.828 650.486 401.029C650.542 401.229 650.573 401.448 650.573 401.668C650.573 401.889 650.542 402.107 650.486 402.308C650.423 402.508 650.342 402.687 650.237 402.829C650.131 402.972 650.012 403.078 649.875 403.137C649.745 403.196 649.608 403.208 649.471 403.172Z" fill="#B2B6BB"/>
<path d="M129.84 216.74H17.7793L29.4004 190.178L129.84 38.7715L156.402 27.1504V190.178H181.139L169.518 216.74H156.402V266.379L129.84 278V216.74ZM129.84 190.178V83.5957L59.1172 190.178H129.84Z" fill="#14295E"/>
<path d="M541.84 216.74H429.779L441.4 190.178L541.84 38.7715L568.402 27.1504V190.178H593.139L581.518 216.74H568.402V266.379L541.84 278V216.74ZM541.84 190.178V83.5957L471.117 190.178H541.84Z" fill="#14295E"/>
</g>
<defs>
<clipPath id="clip0_1253_201807">
<rect width="651" height="403" fill="white"/>
</clipPath>
</defs>
</svg>
