<svg width="20" height="20" viewBox="0 0 20 20" fill="none" xmlns="http://www.w3.org/2000/svg">
<path d="M6.35625 3H6.7098L6.82765 2.66667C6.92248 2.39847 7.09815 2.16628 7.33045 2.00211C7.56276 1.83793 7.84027 1.74985 8.12474 1.75H8.125L11.875 1.75L11.8753 1.75C12.1597 1.74985 12.4372 1.83793 12.6695 2.00211C12.9019 2.16629 13.0775 2.39847 13.1723 2.66667L13.2902 3H13.6438H14.375C14.7397 3 15.0894 3.14487 15.3473 3.40273C15.6051 3.66059 15.75 4.01033 15.75 4.375V8.43754L15.5 8.7302V4.375C15.5 4.07663 15.3815 3.79048 15.1705 3.5795C14.9595 3.36853 14.6734 3.25 14.375 3.25H13.6438H13.2902L13.1723 3.58333C13.0775 3.85153 12.9019 4.08372 12.6695 4.24789C12.4372 4.41207 12.1597 4.50015 11.8753 4.5H11.875H8.125H8.12474C7.84027 4.50015 7.56276 4.41207 7.33045 4.24789C7.09815 4.08372 6.92248 3.85153 6.82765 3.58333L6.7098 3.25H6.35625H5.625C5.32663 3.25 5.04048 3.36853 4.82951 3.57951C4.61853 3.79048 4.5 4.07663 4.5 4.375V16.875C4.5 17.1734 4.61853 17.4595 4.8295 17.6705C5.04048 17.8815 5.32663 18 5.625 18H7.30364L7.33288 18.0271C7.40024 18.0895 7.48327 18.1661 7.57467 18.25H5.625C5.26033 18.25 4.91059 18.1051 4.65273 17.8473C4.39487 17.5894 4.25 17.2397 4.25 16.875V4.375C4.25 4.01033 4.39487 3.66059 4.65273 3.40273C4.91059 3.14487 5.26033 3 5.625 3H6.35625ZM8.125 2C7.82663 2 7.54048 2.11853 7.3295 2.32951C7.11853 2.54048 7 2.82663 7 3.125C7 3.42337 7.11853 3.70952 7.3295 3.9205C7.54048 4.13147 7.82663 4.25 8.125 4.25H11.875C12.1734 4.25 12.4595 4.13147 12.6705 3.9205C12.8815 3.70952 13 3.42337 13 3.125C13 2.82663 12.8815 2.54048 12.6705 2.32951C12.4595 2.11853 12.1734 2 11.875 2H8.125Z" fill="currentColor" stroke="currentColor"/>
<path d="M17.0258 12.6391C17.1465 12.514 17.2143 12.3443 17.2143 12.1673C17.2143 11.9903 17.1465 11.8206 17.0258 11.6954C16.9051 11.5703 16.7414 11.5 16.5708 11.5C16.4001 11.5 16.2364 11.5703 16.1157 11.6954L12.0717 16.89L9.59858 14.3612C9.4779 14.2361 9.31421 14.1658 9.14353 14.1658C8.97286 14.1658 8.80917 14.2361 8.68849 14.3612C8.5678 14.4863 8.5 14.6561 8.5 14.833C8.5 15.01 8.5678 15.1797 8.68849 15.3049L11.6167 18.3042C11.6764 18.3663 11.7473 18.4155 11.8254 18.4491C11.9034 18.4827 11.9872 18.5 12.0717 18.5C12.1562 18.5 12.2399 18.4827 12.318 18.4491C12.3961 18.4155 12.467 18.3663 12.5267 18.3042L17.0258 12.6391Z" fill="currentColor"/>
</svg>
