<svg width="12" height="12" viewBox="0 0 12 12" fill="none" xmlns="http://www.w3.org/2000/svg">
<path d="M0.5 6.49932C0.367392 6.49932 0.240215 6.44664 0.146447 6.35287C0.0526785 6.2591 0 6.13192 0 5.99932C0 5.86671 0.0526785 5.73953 0.146447 5.64576C0.240215 5.55199 0.367392 5.49932 0.5 5.49932H10.197L6.166 1.87132C6.11598 1.82778 6.07511 1.77473 6.04579 1.71526C6.01646 1.65578 5.99926 1.59107 5.99518 1.52488C5.99111 1.45869 6.00024 1.39236 6.02204 1.32973C6.04385 1.26711 6.07789 1.20944 6.12219 1.1601C6.16649 1.11076 6.22017 1.07072 6.28009 1.04232C6.34002 1.01392 6.40499 0.997721 6.47123 0.99467C6.53747 0.991619 6.60366 1.00178 6.66594 1.02455C6.72822 1.04732 6.78535 1.08225 6.834 1.12732L11.834 5.62732C11.8862 5.67421 11.928 5.73156 11.9566 5.79566C11.9851 5.85975 11.9999 5.92914 11.9999 5.99932C11.9999 6.06949 11.9851 6.13888 11.9566 6.20298C11.928 6.26707 11.8862 6.32442 11.834 6.37132L6.834 10.8713C6.78535 10.9164 6.72822 10.9513 6.66594 10.9741C6.60366 10.9969 6.53747 11.007 6.47123 11.004C6.40499 11.0009 6.34002 10.9847 6.28009 10.9563C6.22017 10.9279 6.16649 10.8879 6.12219 10.8385C6.07789 10.7892 6.04385 10.7315 6.02204 10.6689C6.00024 10.6063 5.99111 10.5399 5.99518 10.4738C5.99926 10.4076 6.01646 10.3428 6.04579 10.2834C6.07511 10.2239 6.11598 10.1708 6.166 10.1273L10.197 6.49932H0.5Z" fill="currentColor"/>
</svg>
