<svg width="12" height="13" viewBox="0 0 12 13" fill="none" xmlns="http://www.w3.org/2000/svg">
<path d="M7.30903 8.51579C6.41045 9.23367 5.27109 9.58024 4.12496 9.48433C2.97883 9.38841 1.91293 8.85728 1.14617 8.00003C0.379405 7.14278 -0.0300168 6.02447 0.00198856 4.87478C0.0339939 3.72509 0.504997 2.63129 1.31827 1.81802C2.13153 1.00475 3.22533 0.53375 4.37502 0.501744C5.52471 0.469739 6.64302 0.879161 7.50027 1.64592C8.35753 2.41269 8.88865 3.47859 8.98457 4.62472C9.08049 5.77085 8.73391 6.9102 8.01603 7.80879L11.854 11.6458C11.9479 11.7397 12.0007 11.867 12.0007 11.9998C12.0007 12.1326 11.9479 12.2599 11.854 12.3538C11.7601 12.4477 11.6328 12.5004 11.5 12.5004C11.3673 12.5004 11.2399 12.4477 11.146 12.3538L7.31003 8.51579H7.30903ZM8.00003 4.99979C8.00003 4.54016 7.9095 4.08503 7.73361 3.66039C7.55772 3.23575 7.29991 2.84992 6.9749 2.52491C6.6499 2.19991 6.26406 1.9421 5.83942 1.76621C5.41478 1.59032 4.95966 1.49979 4.50003 1.49979C4.0404 1.49979 3.58528 1.59032 3.16064 1.76621C2.736 1.9421 2.35016 2.19991 2.02516 2.52491C1.70015 2.84992 1.44234 3.23575 1.26645 3.66039C1.09056 4.08503 1.00003 4.54016 1.00003 4.99979C1.00003 5.92804 1.36878 6.81828 2.02516 7.47466C2.68153 8.13104 3.57177 8.49979 4.50003 8.49979C5.42829 8.49979 6.31853 8.13104 6.9749 7.47466C7.63128 6.81828 8.00003 5.92804 8.00003 4.99979Z" fill="currentColor"/>
</svg>
