<svg width="16" height="16" viewBox="0 0 12 13" fill="none" xmlns="http://www.w3.org/2000/svg">
<mask id="path-1-inside-1_716_6424" fill="white">
<path d="M6 4.5C5.46957 4.5 4.96086 4.71071 4.58579 5.08579C4.21071 5.46086 4 5.96957 4 6.5C4 7.03043 4.21071 7.53914 4.58579 7.91421C4.96086 8.28929 5.46957 8.5 6 8.5C6.53043 8.5 7.03914 8.28929 7.41421 7.91421C7.78929 7.53914 8 7.03043 8 6.5C8 5.96957 7.78929 5.46086 7.41421 5.08579C7.03914 4.71071 6.53043 4.5 6 4.5ZM5 6.5C5 6.23478 5.10536 5.98043 5.29289 5.79289C5.48043 5.60536 5.73478 5.5 6 5.5C6.26522 5.5 6.51957 5.60536 6.70711 5.79289C6.89464 5.98043 7 6.23478 7 6.5C7 6.76522 6.89464 7.01957 6.70711 7.20711C6.51957 7.39464 6.26522 7.5 6 7.5C5.73478 7.5 5.48043 7.39464 5.29289 7.20711C5.10536 7.01957 5 6.76522 5 6.5Z"/>
</mask>
<path d="M6 4.5C5.46957 4.5 4.96086 4.71071 4.58579 5.08579C4.21071 5.46086 4 5.96957 4 6.5C4 7.03043 4.21071 7.53914 4.58579 7.91421C4.96086 8.28929 5.46957 8.5 6 8.5C6.53043 8.5 7.03914 8.28929 7.41421 7.91421C7.78929 7.53914 8 7.03043 8 6.5C8 5.96957 7.78929 5.46086 7.41421 5.08579C7.03914 4.71071 6.53043 4.5 6 4.5ZM5 6.5C5 6.23478 5.10536 5.98043 5.29289 5.79289C5.48043 5.60536 5.73478 5.5 6 5.5C6.26522 5.5 6.51957 5.60536 6.70711 5.79289C6.89464 5.98043 7 6.23478 7 6.5C7 6.76522 6.89464 7.01957 6.70711 7.20711C6.51957 7.39464 6.26522 7.5 6 7.5C5.73478 7.5 5.48043 7.39464 5.29289 7.20711C5.10536 7.01957 5 6.76522 5 6.5Z" fill="currentColor"/>
<path d="M4 6.5H3H4ZM6 5.5V6.5V5.5ZM6 3.5C5.20435 3.5 4.44129 3.81607 3.87868 4.37868L5.29289 5.79289C5.48043 5.60536 5.73478 5.5 6 5.5V3.5ZM3.87868 4.37868C3.31607 4.94129 3 5.70435 3 6.5H5C5 6.23478 5.10536 5.98043 5.29289 5.79289L3.87868 4.37868ZM3 6.5C3 7.29565 3.31607 8.05871 3.87868 8.62132L5.29289 7.20711C5.10536 7.01957 5 6.76522 5 6.5H3ZM3.87868 8.62132C4.44129 9.18393 5.20435 9.5 6 9.5V7.5C5.73478 7.5 5.48043 7.39464 5.29289 7.20711L3.87868 8.62132ZM6 9.5C6.79565 9.5 7.55871 9.18393 8.12132 8.62132L6.70711 7.20711C6.51957 7.39464 6.26522 7.5 6 7.5V9.5ZM8.12132 8.62132C8.68393 8.05871 9 7.29565 9 6.5H7C7 6.76522 6.89464 7.01957 6.70711 7.20711L8.12132 8.62132ZM9 6.5C9 5.70435 8.68393 4.94129 8.12132 4.37868L6.70711 5.79289C6.89464 5.98043 7 6.23478 7 6.5H9ZM8.12132 4.37868C7.55871 3.81607 6.79565 3.5 6 3.5V5.5C6.26522 5.5 6.51957 5.60536 6.70711 5.79289L8.12132 4.37868ZM6 6.5L6 6.5L4.58579 5.08579C4.21071 5.46086 4 5.96957 4 6.5H6ZM6 6.5L6 6.5V4.5C5.46957 4.5 4.96086 4.71071 4.58579 5.08579L6 6.5ZM6 6.5L6 6.5L7.41421 5.08579C7.03914 4.71071 6.53043 4.5 6 4.5V6.5ZM6 6.5L6 6.5H8C8 5.96957 7.78929 5.46086 7.41421 5.08579L6 6.5ZM6 6.5L6 6.5L7.41421 7.91421C7.78929 7.53914 8 7.03043 8 6.5H6ZM6 6.5L6 6.5V8.5C6.53043 8.5 7.03914 8.28929 7.41421 7.91421L6 6.5ZM6 6.5L6 6.5L4.58579 7.91421C4.96086 8.28929 5.46957 8.5 6 8.5V6.5ZM6 6.5L6 6.5H4C4 7.03043 4.21071 7.53914 4.58579 7.91421L6 6.5Z" fill="currentColor" mask="url(#path-1-inside-1_716_6424)"/>
<path d="M8.61823 2.89706C8.43379 2.93094 8.24345 2.89027 8.08897 2.78397C7.93449 2.67767 7.82849 2.51443 7.79423 2.33006L7.53423 0.914064C7.52148 0.845106 7.48853 0.78149 7.43957 0.731284C7.39061 0.681078 7.32785 0.646544 7.25923 0.632064C6.42879 0.455979 5.57067 0.455979 4.74023 0.632064C4.67162 0.646544 4.60885 0.681078 4.55989 0.731284C4.51093 0.78149 4.47798 0.845106 4.46523 0.914064L4.20623 2.33006C4.18732 2.43092 4.14677 2.52647 4.08738 2.61014C4.02799 2.69382 3.95117 2.76363 3.86221 2.81476C3.77325 2.86589 3.67426 2.89714 3.57207 2.90634C3.46987 2.91554 3.36689 2.90248 3.27023 2.86806L1.91123 2.38406C1.84529 2.36045 1.77383 2.35686 1.70586 2.37377C1.63788 2.39067 1.57643 2.42731 1.52923 2.47906C0.96023 3.10606 0.52923 3.84606 0.26723 4.65206C0.245588 4.71867 0.244305 4.79021 0.263544 4.85755C0.282782 4.92488 0.321669 4.98495 0.37523 5.03006L1.47723 5.96106C1.55553 6.02715 1.61846 6.10953 1.66163 6.20245C1.7048 6.29538 1.72717 6.3966 1.72717 6.49906C1.72717 6.60153 1.7048 6.70275 1.66163 6.79568C1.61846 6.8886 1.55553 6.97098 1.47723 7.03706L0.37523 7.96806C0.321669 8.01318 0.282782 8.07325 0.263544 8.14058C0.244305 8.20792 0.245588 8.27946 0.26723 8.34606C0.529707 9.15162 0.960195 9.89227 1.53023 10.5191C1.57743 10.5708 1.63888 10.6075 1.70686 10.6244C1.77483 10.6413 1.84629 10.6377 1.91223 10.6141L3.27223 10.1301C3.36888 10.0953 3.47194 10.082 3.57426 10.091C3.67657 10.1 3.7757 10.1312 3.86475 10.1824C3.9538 10.2336 4.03065 10.3036 4.08997 10.3874C4.14928 10.4713 4.18963 10.567 4.20823 10.6681L4.46623 12.0841C4.49223 12.2241 4.60123 12.3361 4.74123 12.3651C5.572 12.5412 6.43046 12.5412 7.26123 12.3651C7.32958 12.3506 7.39211 12.3162 7.44088 12.2662C7.48966 12.2161 7.52249 12.1528 7.53523 12.0841L7.79523 10.6681C7.81414 10.5672 7.85469 10.4717 7.91408 10.388C7.97347 10.3043 8.05029 10.2345 8.13925 10.1834C8.22821 10.1322 8.3272 10.101 8.42939 10.0918C8.53159 10.0826 8.63457 10.0956 8.73123 10.1301L10.0902 10.6141C10.2252 10.6621 10.3762 10.6241 10.4722 10.5191C11.0412 9.89206 11.4722 9.15206 11.7342 8.34606C11.7559 8.27946 11.7572 8.20792 11.7379 8.14058C11.7187 8.07325 11.6798 8.01318 11.6262 7.96806L10.5242 7.03706C10.4458 6.97108 10.3827 6.88873 10.3394 6.79579C10.2962 6.70286 10.2737 6.60158 10.2737 6.49906C10.2737 6.39655 10.2962 6.29527 10.3394 6.20234C10.3827 6.1094 10.4458 6.02705 10.5242 5.96106L11.6262 5.03006C11.6798 4.98495 11.7187 4.92488 11.7379 4.85755C11.7572 4.79021 11.7559 4.71867 11.7342 4.65206C11.4715 3.84641 11.0406 3.10574 10.4702 2.47906C10.423 2.42731 10.3616 2.39067 10.2936 2.37377C10.2256 2.35686 10.1542 2.36045 10.0882 2.38406L8.72823 2.86806C8.6921 2.88105 8.65498 2.89108 8.61723 2.89806L8.61823 2.89706ZM1.99823 3.47706L2.93523 3.81006C3.16838 3.89307 3.41677 3.92447 3.66324 3.90211C3.90971 3.87975 4.14839 3.80416 4.36279 3.68056C4.5772 3.55695 4.76222 3.38828 4.90508 3.1862C5.04794 2.98411 5.14523 2.75342 5.19023 2.51006L5.36723 1.54006C5.78727 1.48762 6.21219 1.48762 6.63223 1.54006L6.81023 2.51006C6.85492 2.75359 6.95202 2.98448 7.0948 3.18675C7.23758 3.38903 7.42263 3.55784 7.63713 3.6815C7.85162 3.80515 8.09044 3.8807 8.33703 3.9029C8.58362 3.9251 8.8321 3.89342 9.06523 3.81006L10.0002 3.47606C10.2552 3.81006 10.4672 4.17406 10.6302 4.56006L9.87623 5.19706C9.68678 5.35702 9.53451 5.5564 9.43007 5.78127C9.32562 6.00615 9.27151 6.25111 9.27151 6.49906C9.27151 6.74701 9.32562 6.99198 9.43007 7.21685C9.53451 7.44173 9.68678 7.64111 9.87623 7.80106L10.6312 8.43806C10.4676 8.82445 10.256 9.18865 10.0012 9.52206L9.06423 9.18806C8.83108 9.10506 8.58269 9.07366 8.33622 9.09601C8.08975 9.11837 7.85107 9.19397 7.63667 9.31757C7.42226 9.44117 7.23724 9.60984 7.09438 9.81193C6.95152 10.014 6.85423 10.2447 6.80923 10.4881L6.63123 11.4581C6.2112 11.5106 5.78626 11.5106 5.36623 11.4581L5.18923 10.4881C5.14454 10.2445 5.04744 10.0136 4.90466 9.81137C4.76188 9.6091 4.57683 9.44029 4.36234 9.31663C4.14784 9.19297 3.90902 9.11743 3.66243 9.09523C3.41584 9.07303 3.16736 9.1047 2.93423 9.18806L2.00023 9.52206C1.74546 9.18867 1.53379 8.82446 1.37023 8.43806L2.12423 7.80006C2.31351 7.64011 2.46563 7.44079 2.56997 7.216C2.67431 6.99122 2.72836 6.74638 2.72836 6.49856C2.72836 6.25074 2.67431 6.00591 2.56997 5.78113C2.46563 5.55634 2.31351 5.35702 2.12423 5.19706L1.36923 4.56006C1.53323 4.17406 1.74523 3.81006 1.99923 3.47606L1.99823 3.47706Z" fill="currentColor"/>
</svg>
