<svg width="20" height="20" viewBox="0 0 20 20" fill="none" xmlns="http://www.w3.org/2000/svg">
<path d="M16.6663 4.16602H17.2663C17.2663 3.91591 17.1112 3.69204 16.877 3.60422L16.6663 4.16602ZM9.99967 1.66602L10.2103 1.10422C10.0745 1.05328 9.92483 1.05328 9.789 1.10422L9.99967 1.66602ZM3.33301 4.16602L3.12233 3.60422C2.88815 3.69204 2.73301 3.91591 2.73301 4.16602H3.33301ZM9.99967 18.3327L9.73135 18.8693C9.90026 18.9538 10.0991 18.9538 10.268 18.8693L9.99967 18.3327ZM16.0663 5.76748V6.36748H17.2663V5.76748H16.0663ZM10.544 18.7227L11.0698 18.4335L10.4915 17.382L9.96573 17.6712L10.544 18.7227ZM16.877 3.60422L10.2103 1.10422L9.789 2.22781L16.4557 4.72781L16.877 3.60422ZM9.789 1.10422L3.12233 3.60422L3.54368 4.72781L10.2103 2.22781L9.789 1.10422ZM2.73301 4.16602V9.99935H3.93301V4.16602H2.73301ZM2.73301 9.99935C2.73301 12.7672 4.56872 15.0029 6.27124 16.4926C7.1351 17.2484 7.99613 17.8401 8.64001 18.2425C8.96257 18.4441 9.23223 18.5992 9.42263 18.7046C9.51786 18.7573 9.59338 18.7977 9.6459 18.8253C9.67217 18.8391 9.69269 18.8497 9.70707 18.857C9.71425 18.8607 9.7199 18.8636 9.72397 18.8656C9.726 18.8667 9.72763 18.8675 9.72887 18.8681C9.72948 18.8684 9.73 18.8687 9.73041 18.8689C9.73062 18.869 9.73085 18.8691 9.73095 18.8691C9.73116 18.8692 9.73135 18.8693 9.99967 18.3327C10.268 17.796 10.2681 17.7961 10.2682 17.7961C10.2682 17.7961 10.2683 17.7962 10.2683 17.7962C10.2683 17.7962 10.2682 17.7961 10.2681 17.7961C10.2677 17.7959 10.2669 17.7955 10.2657 17.7949C10.2634 17.7937 10.2595 17.7917 10.254 17.7889C10.2432 17.7834 10.2263 17.7746 10.2037 17.7628C10.1586 17.7391 10.0909 17.7029 10.0038 17.6548C9.82962 17.5583 9.57844 17.4139 9.27601 17.2249C8.66988 16.8461 7.86425 16.2919 7.06144 15.5895C5.43063 14.1625 3.93301 12.2315 3.93301 9.99935H2.73301ZM17.2663 5.76748V4.16602H16.0663V5.76748H17.2663ZM9.99967 18.3327C10.268 18.8693 10.268 18.8693 10.268 18.8693C10.2681 18.8693 10.2681 18.8693 10.2681 18.8693C10.2681 18.8693 10.2681 18.8693 10.2682 18.8693C10.2682 18.8692 10.2683 18.8692 10.2684 18.8692C10.2685 18.8691 10.2687 18.869 10.2689 18.8689C10.2692 18.8687 10.2697 18.8685 10.2703 18.8682C10.2714 18.8676 10.2729 18.8669 10.2747 18.866C10.2783 18.8641 10.2834 18.8616 10.2898 18.8583C10.3027 18.8517 10.321 18.8423 10.3444 18.83C10.3913 18.8054 10.4588 18.7695 10.544 18.7227L9.96573 17.6712C9.88809 17.7139 9.82793 17.7459 9.78794 17.7668C9.76795 17.7773 9.75301 17.785 9.74346 17.7899C9.73869 17.7923 9.73527 17.794 9.73323 17.7951C9.73221 17.7956 9.73154 17.7959 9.73123 17.7961C9.73107 17.7962 9.731 17.7962 9.73102 17.7962C9.73103 17.7962 9.73106 17.7962 9.73111 17.7961C9.73114 17.7961 9.73117 17.7961 9.73121 17.7961C9.73123 17.7961 9.73125 17.7961 9.73127 17.7961C9.73128 17.7961 9.7313 17.7961 9.73131 17.796C9.73132 17.796 9.73134 17.796 9.99967 18.3327Z" fill="currentColor"/>
<path d="M12.6234 9.73828C12.1276 9.73828 11.6521 9.93524 11.3015 10.2858C10.9509 10.6364 10.7539 11.1119 10.7539 11.6078C10.7539 12.1036 10.9509 12.5791 11.3015 12.9297C11.6521 13.2803 12.1276 13.4772 12.6234 13.4772C13.1192 13.4772 13.5947 13.2803 13.9453 12.9297C14.2959 12.5791 14.4929 12.1036 14.4929 11.6078C14.4929 11.1119 14.2959 10.6364 13.9453 10.2858C13.5947 9.93524 13.1192 9.73828 12.6234 9.73828ZM11.6886 11.6078C11.6886 11.3599 11.7871 11.1221 11.9624 10.9468C12.1377 10.7715 12.3755 10.673 12.6234 10.673C12.8713 10.673 13.1091 10.7715 13.2844 10.9468C13.4596 11.1221 13.5581 11.3599 13.5581 11.6078C13.5581 11.8557 13.4596 12.0934 13.2844 12.2687C13.1091 12.444 12.8713 12.5425 12.6234 12.5425C12.3755 12.5425 12.1377 12.444 11.9624 12.2687C11.7871 12.0934 11.6886 11.8557 11.6886 11.6078Z" fill="currentColor" stroke="currentColor" stroke-width="0.1"/>
<path d="M15.0712 8.24063C14.8988 8.2723 14.7208 8.23429 14.5764 8.13492C14.432 8.03556 14.333 7.88297 14.3009 7.71064L14.0579 6.38704C14.046 6.32259 14.0152 6.26312 13.9694 6.21619C13.9237 6.16926 13.865 6.13698 13.8008 6.12345C13.0246 5.95885 12.2225 5.95885 11.4462 6.12345C11.3821 6.13698 11.3234 6.16926 11.2777 6.21619C11.2319 6.26312 11.2011 6.32259 11.1892 6.38704L10.9471 7.71064C10.9294 7.80491 10.8915 7.89422 10.836 7.97244C10.7805 8.05065 10.7087 8.11591 10.6255 8.1637C10.5424 8.2115 10.4498 8.2407 10.3543 8.24931C10.2588 8.25791 10.1625 8.2457 10.0722 8.21353L8.80184 7.76111C8.7402 7.73904 8.67341 7.73569 8.60987 7.75149C8.54633 7.76729 8.48889 7.80154 8.44477 7.84991C7.9129 8.436 7.51003 9.1277 7.26513 9.88111C7.2449 9.94336 7.2437 10.0102 7.26168 10.0732C7.27967 10.1361 7.31602 10.1923 7.36608 10.2344L8.39617 11.1047C8.46936 11.1665 8.52818 11.2435 8.56854 11.3303C8.60889 11.4172 8.62979 11.5118 8.62979 11.6076C8.62979 11.7033 8.60889 11.798 8.56854 11.8848C8.52818 11.9717 8.46936 12.0487 8.39617 12.1105L7.36608 12.9807C7.31602 13.0229 7.27967 13.079 7.26168 13.142C7.2437 13.2049 7.2449 13.2718 7.26513 13.334C7.51048 14.087 7.91287 14.7793 8.44571 15.3652C8.48983 15.4136 8.54727 15.4479 8.61081 15.4637C8.67435 15.4795 8.74114 15.4761 8.80278 15.454L10.074 15.0016C10.1644 14.9691 10.2607 14.9567 10.3563 14.9651C10.452 14.9736 10.5446 15.0027 10.6279 15.0506C10.7111 15.0984 10.783 15.1638 10.8384 15.2422C10.8938 15.3206 10.9316 15.4101 10.9489 15.5045L11.1901 16.8281C11.2144 16.959 11.3163 17.0637 11.4472 17.0908C12.2237 17.2554 13.0262 17.2554 13.8027 17.0908C13.8666 17.0772 13.925 17.0451 13.9706 16.9983C14.0162 16.9516 14.0469 16.8923 14.0588 16.8281L14.3019 15.5045C14.3195 15.4102 14.3574 15.3209 14.413 15.2427C14.4685 15.1645 14.5403 15.0992 14.6234 15.0514C14.7066 15.0036 14.7991 14.9744 14.8946 14.9658C14.9902 14.9572 15.0864 14.9694 15.1768 15.0016L16.4471 15.454C16.5733 15.4989 16.7144 15.4634 16.8042 15.3652C17.336 14.7792 17.7389 14.0874 17.9838 13.334C18.004 13.2718 18.0052 13.2049 17.9873 13.142C17.9693 13.079 17.9329 13.0229 17.8829 12.9807L16.8528 12.1105C16.7794 12.0488 16.7205 11.9718 16.68 11.8849C16.6396 11.7981 16.6186 11.7034 16.6186 11.6076C16.6186 11.5117 16.6396 11.4171 16.68 11.3302C16.7205 11.2433 16.7794 11.1664 16.8528 11.1047L17.8829 10.2344C17.9329 10.1923 17.9693 10.1361 17.9873 10.0732C18.0052 10.0102 18.004 9.94336 17.9838 9.88111C17.7382 9.12803 17.3355 8.4357 16.8023 7.84991C16.7582 7.80154 16.7007 7.76729 16.6372 7.75149C16.5737 7.73569 16.5069 7.73904 16.4452 7.76111L15.174 8.21353C15.1402 8.22566 15.1055 8.23504 15.0702 8.24157L15.0712 8.24063ZM8.88317 8.78278L9.75902 9.09405C9.97695 9.17164 10.2091 9.201 10.4395 9.18009C10.6699 9.15919 10.893 9.08854 11.0934 8.973C11.2938 8.85746 11.4668 8.6998 11.6003 8.5109C11.7339 8.322 11.8248 8.10636 11.8669 7.87889L12.0323 6.97219C12.4249 6.92317 12.8221 6.92317 13.2148 6.97219L13.3811 7.87889C13.4229 8.10652 13.5137 8.32235 13.6471 8.51142C13.7806 8.70049 13.9536 8.85829 14.1541 8.97388C14.3546 9.08946 14.5778 9.16008 14.8083 9.18083C15.0388 9.20158 15.2711 9.17197 15.489 9.09405L16.363 8.78185C16.6013 9.09405 16.7995 9.4343 16.9519 9.79511L16.2471 10.3905C16.07 10.5401 15.9276 10.7264 15.83 10.9366C15.7324 11.1468 15.6818 11.3758 15.6818 11.6076C15.6818 11.8393 15.7324 12.0683 15.83 12.2785C15.9276 12.4887 16.07 12.6751 16.2471 12.8246L16.9528 13.42C16.7999 13.7812 16.602 14.1216 16.3639 14.4333L15.488 14.1211C15.2701 14.0435 15.0379 14.0141 14.8076 14.035C14.5772 14.056 14.3541 14.1266 14.1536 14.2421C13.9532 14.3577 13.7803 14.5153 13.6468 14.7042C13.5132 14.8931 13.4223 15.1088 13.3802 15.3363L13.2138 16.243C12.8212 16.292 12.424 16.292 12.0314 16.243L11.8659 15.3363C11.8242 15.1086 11.7334 14.8928 11.5999 14.7037C11.4665 14.5147 11.2935 14.3569 11.093 14.2413C10.8925 14.1257 10.6693 14.0551 10.4388 14.0343C10.2083 14.0136 9.976 14.0432 9.75808 14.1211L8.88504 14.4333C8.6469 14.1217 8.44904 13.7812 8.29615 13.42L9.00094 12.8237C9.17787 12.6742 9.32006 12.4878 9.41759 12.2777C9.51512 12.0676 9.56565 11.8388 9.56565 11.6071C9.56565 11.3755 9.51512 11.1466 9.41759 10.9365C9.32006 10.7264 9.17787 10.5401 9.00094 10.3905L8.29521 9.79511C8.44851 9.4343 8.64668 9.09405 8.8841 8.78185L8.88317 8.78278Z" fill="currentColor" stroke="currentColor" stroke-width="0.1"/>
</svg>
