<svg width="16" height="20" viewBox="0 0 16 20" fill="none" xmlns="http://www.w3.org/2000/svg">
<path d="M6.93286 0.808617C6.99092 0.750413 7.05989 0.704235 7.13582 0.672727C7.21175 0.641218 7.29315 0.625 7.37536 0.625C7.45757 0.625 7.53897 0.641218 7.6149 0.672727C7.69083 0.704235 7.7598 0.750413 7.81786 0.808617L9.69286 2.68362C9.75106 2.74167 9.79724 2.81064 9.82875 2.88658C9.86026 2.96251 9.87648 3.04391 9.87648 3.12612C9.87648 3.20833 9.86026 3.28973 9.82875 3.36566C9.79724 3.44159 9.75106 3.51056 9.69286 3.56862L7.81786 5.44362C7.7005 5.56098 7.54133 5.62691 7.37536 5.62691C7.20939 5.62691 7.05022 5.56098 6.93286 5.44362C6.8155 5.32626 6.74957 5.16709 6.74957 5.00112C6.74957 4.83515 6.8155 4.67598 6.93286 4.55862L7.73661 3.75612C6.46855 3.80972 5.24686 4.24811 4.23403 5.01299C3.22121 5.77786 2.46525 6.83296 2.0667 8.03795C1.66816 9.24295 1.64592 10.5407 2.00294 11.7587C2.35997 12.9766 3.07933 14.057 4.06536 14.8561C4.19416 14.9605 4.27619 15.1119 4.29342 15.2768C4.31065 15.4417 4.26166 15.6067 4.15723 15.7355C4.0528 15.8643 3.90149 15.9463 3.73657 15.9636C3.57166 15.9808 3.40666 15.9318 3.27786 15.8274C2.0904 14.865 1.22531 13.5629 0.798438 12.0952C0.371565 10.6276 0.403288 9.06457 0.889358 7.61547C1.37543 6.16637 2.29264 4.90037 3.51817 3.987C4.7437 3.07363 6.21903 2.55651 7.74661 2.50487L6.93411 1.69237C6.81694 1.57516 6.75112 1.41622 6.75112 1.25049C6.75112 1.08476 6.81694 0.925822 6.93411 0.808617H6.93286ZM11.8441 4.26612C11.9486 4.13755 12.0998 4.05573 12.2646 4.03862C12.4294 4.02151 12.5942 4.07051 12.7229 4.17487C13.9103 5.13721 14.7754 6.43938 15.2023 7.90701C15.6292 9.37464 15.5974 10.9377 15.1114 12.3868C14.6253 13.8359 13.7081 15.1019 12.4825 16.0152C11.257 16.9286 9.78169 17.4457 8.25411 17.4974L9.06661 18.3099C9.18046 18.4277 9.24345 18.5856 9.24203 18.7495C9.24061 18.9134 9.17488 19.0701 9.059 19.186C8.94312 19.3019 8.78636 19.3676 8.62249 19.369C8.45861 19.3705 8.30074 19.3075 8.18286 19.1936L6.30786 17.3186C6.24966 17.2606 6.20348 17.1916 6.17197 17.1157C6.14046 17.0397 6.12424 16.9583 6.12424 16.8761C6.12424 16.7939 6.14046 16.7125 6.17197 16.6366C6.20348 16.5606 6.24966 16.4917 6.30786 16.4336L8.18286 14.5586C8.30022 14.4413 8.45939 14.3753 8.62536 14.3753C8.79133 14.3753 8.9505 14.4413 9.06786 14.5586C9.18522 14.676 9.25115 14.8351 9.25115 15.0011C9.25115 15.1671 9.18522 15.3263 9.06786 15.4436L8.26411 16.2461C9.53217 16.1925 10.7539 15.7541 11.7667 14.9892C12.7795 14.2244 13.5355 13.1693 13.934 11.9643C14.3326 10.7593 14.3548 9.46151 13.9978 8.24357C13.6407 7.02563 12.9214 5.94524 11.9354 5.14612C11.8715 5.09437 11.8185 5.03055 11.7794 4.9583C11.7402 4.88604 11.7157 4.80678 11.7072 4.72504C11.6988 4.6433 11.7065 4.5607 11.73 4.48195C11.7535 4.4032 11.7922 4.32986 11.8441 4.26612Z" fill="currentColor"/>
</svg>
