<svg width="10" height="12" viewBox="0 0 10 12" fill="none" xmlns="http://www.w3.org/2000/svg">
<path d="M7.792 6.24C8.44267 6.37867 8.96533 6.704 9.36 7.216C9.75467 7.71733 9.952 8.29333 9.952 8.944C9.952 9.88267 9.62133 10.6293 8.96 11.184C8.30933 11.728 7.39733 12 6.224 12H0.992V0.768H6.048C7.18933 0.768 8.08 1.02933 8.72 1.552C9.37067 2.07467 9.696 2.784 9.696 3.68C9.696 4.34133 9.52 4.89067 9.168 5.328C8.82667 5.76533 8.368 6.06933 7.792 6.24ZM3.728 5.312H5.52C5.968 5.312 6.30933 5.216 6.544 5.024C6.78933 4.82133 6.912 4.528 6.912 4.144C6.912 3.76 6.78933 3.46667 6.544 3.264C6.30933 3.06133 5.968 2.96 5.52 2.96H3.728V5.312ZM5.744 9.792C6.20267 9.792 6.55467 9.69067 6.8 9.488C7.056 9.27467 7.184 8.97067 7.184 8.576C7.184 8.18133 7.05067 7.872 6.784 7.648C6.528 7.424 6.17067 7.312 5.712 7.312H3.728V9.792H5.744Z" fill="currentColor"/>
</svg>
