<svg width="10" height="10" viewBox="0 0 10 10" fill="none" xmlns="http://www.w3.org/2000/svg">
<path d="M6 8.25C5.58579 8.25 5.25 8.58579 5.25 9C5.25 9.41421 5.58579 9.75 6 9.75V8.25ZM9 9.75C9.41421 9.75 9.75 9.41421 9.75 9C9.75 8.58579 9.41421 8.25 9 8.25V9.75ZM1 4.25C0.585786 4.25 0.25 4.58579 0.25 5C0.25 5.41421 0.585786 5.75 1 5.75V4.25ZM9 5.75C9.41421 5.75 9.75 5.41421 9.75 5C9.75 4.58579 9.41421 4.25 9 4.25V5.75ZM6 0.25C5.58579 0.25 5.25 0.585786 5.25 1C5.25 1.41421 5.58579 1.75 6 1.75V0.25ZM9 1.75C9.41421 1.75 9.75 1.41421 9.75 1C9.75 0.585786 9.41421 0.25 9 0.25V1.75ZM6 9.75H9V8.25H6V9.75ZM1 5.75H9V4.25H1V5.75ZM6 1.75H9V0.25H6V1.75Z" fill="currentColor"/>
</svg>
