<svg width="10" height="10" viewBox="0 0 10 10" fill="none" xmlns="http://www.w3.org/2000/svg">
<path d="M1 8.25C0.585786 8.25 0.25 8.58579 0.25 9C0.25 9.41421 0.585786 9.75 1 9.75V8.25ZM4 9.75C4.41421 9.75 4.75 9.41421 4.75 9C4.75 8.58579 4.41421 8.25 4 8.25V9.75ZM1 4.25C0.585786 4.25 0.25 4.58579 0.25 5C0.25 5.41421 0.585786 5.75 1 5.75V4.25ZM9 5.75C9.41421 5.75 9.75 5.41421 9.75 5C9.75 4.58579 9.41421 4.25 9 4.25V5.75ZM1 0.25C0.585786 0.25 0.25 0.585786 0.25 1C0.25 1.41421 0.585786 1.75 1 1.75V0.25ZM4 1.75C4.41421 1.75 4.75 1.41421 4.75 1C4.75 0.585786 4.41421 0.25 4 0.25V1.75ZM1 9.75H4V8.25H1V9.75ZM1 5.75H9V4.25H1V5.75ZM1 1.75H4V0.25H1V1.75Z" fill="currentColor"/>
</svg>
