<svg width="11" height="18" viewBox="0 0 11 18" fill="none" xmlns="http://www.w3.org/2000/svg">
<path d="M2.656 3.848V10.904C2.656 11.896 2.896 12.632 3.376 13.112C3.86667 13.592 4.544 13.832 5.408 13.832C6.26133 13.832 6.928 13.592 7.408 13.112C7.89867 12.632 8.144 11.896 8.144 10.904V3.848H9.6V10.888C9.6 11.816 9.41333 12.6 9.04 13.24C8.66667 13.8693 8.16 14.3387 7.52 14.648C6.89067 14.9573 6.18133 15.112 5.392 15.112C4.60267 15.112 3.888 14.9573 3.248 14.648C2.61867 14.3387 2.11733 13.8693 1.744 13.24C1.38133 12.6 1.2 11.816 1.2 10.888V3.848H2.656Z" fill="currentColor"/>
<path d="M0 16.6H10.8V17.4H0V16.6Z" fill="currentColor"/>
</svg>
