<svg width="17" height="16" viewBox="0 0 17 16" fill="none" xmlns="http://www.w3.org/2000/svg">
<g clip-path="url(#clip0_718_138547)">
<path d="M1.33398 4.75C1.33398 3.784 2.11798 3 3.08398 3H13.584C14.55 3 15.334 3.784 15.334 4.75V6.535C15.0208 6.35379 14.6844 6.21619 14.334 6.126V4.75C14.334 4.55109 14.255 4.36032 14.1143 4.21967C13.9737 4.07902 13.7829 4 13.584 4H3.08398C2.88507 4 2.69431 4.07902 2.55365 4.21967C2.413 4.36032 2.33398 4.55109 2.33398 4.75V11.25C2.33398 11.664 2.66998 12 3.08398 12H9.86898C10.003 12.23 10.159 12.447 10.334 12.646V13H3.08398C2.61986 13 2.17474 12.8156 1.84655 12.4874C1.51836 12.1592 1.33398 11.7141 1.33398 11.25V4.75ZM12.834 6C12.8779 5.99994 12.9216 6.00565 12.964 6.017C12.1201 6.09426 11.3228 6.43861 10.688 7H9.83398C9.70138 7 9.5742 6.94732 9.48043 6.85355C9.38666 6.75979 9.33398 6.63261 9.33398 6.5C9.33398 6.36739 9.38666 6.24021 9.48043 6.14645C9.5742 6.05268 9.70138 6 9.83398 6H12.834ZM5.59498 7.714C5.77319 7.714 5.94965 7.6789 6.11429 7.6107C6.27892 7.54251 6.42852 7.44255 6.55453 7.31654C6.68054 7.19053 6.78049 7.04094 6.84869 6.8763C6.91688 6.71166 6.95198 6.5352 6.95198 6.357C6.95198 6.1788 6.91688 6.00234 6.84869 5.8377C6.78049 5.67306 6.68054 5.52347 6.55453 5.39746C6.42852 5.27145 6.27892 5.17149 6.11429 5.1033C5.94965 5.0351 5.77319 5 5.59498 5C5.23509 5 4.88993 5.14297 4.63544 5.39746C4.38095 5.65194 4.23798 5.9971 4.23798 6.357C4.23798 6.7169 4.38095 7.06206 4.63544 7.31654C4.88993 7.57103 5.23509 7.714 5.59498 7.714V7.714ZM4.19198 8.392C3.96443 8.392 3.74619 8.4824 3.58529 8.6433C3.42438 8.80421 3.33398 9.02244 3.33398 9.25C3.33402 9.62242 3.45853 9.98414 3.68774 10.2777C3.91694 10.5712 4.23769 10.7797 4.59898 10.87L4.65198 10.884C5.27198 11.039 5.91898 11.039 6.53798 10.884L6.59198 10.871C6.95328 10.7807 7.27403 10.5722 7.50323 10.2787C7.73244 9.98514 7.85695 9.62342 7.85698 9.251C7.85712 9.13824 7.83502 9.02656 7.79196 8.92235C7.7489 8.81814 7.68572 8.72343 7.60604 8.64366C7.52635 8.56388 7.43172 8.50059 7.32756 8.45741C7.2234 8.41423 7.11174 8.392 6.99898 8.392H4.19198ZM16.334 10C16.334 10.7956 16.0179 11.5587 15.4553 12.1213C14.8927 12.6839 14.1296 13 13.334 13C12.5383 13 11.7753 12.6839 11.2127 12.1213C10.6501 11.5587 10.334 10.7956 10.334 10C10.334 9.20435 10.6501 8.44129 11.2127 7.87868C11.7753 7.31607 12.5383 7 13.334 7C14.1296 7 14.8927 7.31607 15.4553 7.87868C16.0179 8.44129 16.334 9.20435 16.334 10V10ZM15.334 13.465C14.7261 13.8166 14.0362 14.0011 13.334 14C12.6318 14.0011 11.9418 13.8166 11.334 13.465V15.75C11.3339 15.7942 11.3456 15.8376 11.3678 15.8758C11.39 15.9141 11.422 15.9457 11.4604 15.9676C11.4988 15.9894 11.5423 16.0007 11.5865 16.0002C11.6307 15.9998 11.674 15.9876 11.712 15.965L13.334 15L14.956 15.965C14.994 15.9876 15.0372 15.9998 15.0814 16.0002C15.1256 16.0007 15.1692 15.9894 15.2076 15.9676C15.246 15.9457 15.2779 15.9141 15.3002 15.8758C15.3224 15.8376 15.334 15.7942 15.334 15.75V13.465Z" fill="currentColor"/>
</g>
<defs>
<clipPath id="clip0_718_138547">
<rect width="16" height="16" fill="white" transform="translate(0.333984)"/>
</clipPath>
</defs>
</svg>
