<svg width="18" height="16" viewBox="0 0 18 16" fill="none" xmlns="http://www.w3.org/2000/svg">
<path d="M7.76378 4.23708L8.11734 3.88352L7.76378 4.23708C7.92606 4.39935 8.1187 4.52807 8.33071 4.61589C8.54273 4.70371 8.76997 4.74891 8.99945 4.74891C9.46292 4.74891 9.9074 4.5648 10.2351 4.23708C10.5628 3.90936 10.747 3.46487 10.747 3.00141C10.747 2.53794 10.5628 2.09346 10.2351 1.76574C9.9074 1.43802 9.46292 1.25391 8.99945 1.25391C8.76997 1.25391 8.54273 1.29911 8.33071 1.38693C8.1187 1.47475 7.92605 1.60347 7.76378 1.76574L8.11734 2.11929L7.76378 1.76574C7.60151 1.92801 7.47279 2.12065 7.38497 2.33267C7.29715 2.54468 7.25195 2.77192 7.25195 3.00141C7.25195 3.23089 7.29715 3.45813 7.38497 3.67015C7.47279 3.88216 7.60151 4.0748 7.76378 4.23708ZM7.00195 3.00141C7.00195 2.47164 7.2124 1.96356 7.58701 1.58896C7.96161 1.21436 8.46968 1.00391 8.99945 1.00391C9.52922 1.00391 10.0373 1.21436 10.4119 1.58896C10.7865 1.96356 10.997 2.47164 10.997 3.00141C10.997 3.53118 10.7865 4.03925 10.4119 4.41385C10.0373 4.78846 9.52922 4.99891 8.99945 4.99891C8.46968 4.99891 7.96161 4.78846 7.58701 4.41385C7.2124 4.03925 7.00195 3.53118 7.00195 3.00141Z" fill="currentColor" stroke="currentColor"/>
<path d="M12.75 3.625C12.75 3.37877 12.7985 3.13495 12.8927 2.90747C12.987 2.67998 13.1251 2.47328 13.2992 2.29917C13.4733 2.12506 13.68 1.98695 13.9075 1.89273C14.135 1.7985 14.3788 1.75 14.625 1.75C14.8712 1.75 15.115 1.7985 15.3425 1.89273C15.57 1.98695 15.7767 2.12506 15.9508 2.29917C16.1249 2.47328 16.263 2.67998 16.3573 2.90747C16.4515 3.13495 16.5 3.37877 16.5 3.625C16.5 4.12228 16.3025 4.59919 15.9508 4.95083C15.5992 5.30246 15.1223 5.5 14.625 5.5C14.1277 5.5 13.6508 5.30246 13.2992 4.95083C12.9475 4.59919 12.75 4.12228 12.75 3.625ZM14.625 3C14.4592 3 14.3003 3.06585 14.1831 3.18306C14.0658 3.30027 14 3.45924 14 3.625C14 3.79076 14.0658 3.94973 14.1831 4.06694C14.3003 4.18415 14.4592 4.25 14.625 4.25C14.7908 4.25 14.9497 4.18415 15.0669 4.06694C15.1842 3.94973 15.25 3.79076 15.25 3.625C15.25 3.45924 15.1842 3.30027 15.0669 3.18306C14.9497 3.06585 14.7908 3 14.625 3Z" fill="currentColor"/>
<path d="M3.375 1.75C2.87772 1.75 2.40081 1.94754 2.04917 2.29917C1.69754 2.65081 1.5 3.12772 1.5 3.625C1.5 4.12228 1.69754 4.59919 2.04917 4.95083C2.40081 5.30246 2.87772 5.5 3.375 5.5C3.87228 5.5 4.34919 5.30246 4.70083 4.95083C5.05246 4.59919 5.25 4.12228 5.25 3.625C5.25 3.12772 5.05246 2.65081 4.70083 2.29917C4.34919 1.94754 3.87228 1.75 3.375 1.75ZM2.75 3.625C2.75 3.45924 2.81585 3.30027 2.93306 3.18306C3.05027 3.06585 3.20924 3 3.375 3C3.54076 3 3.69973 3.06585 3.81694 3.18306C3.93415 3.30027 4 3.45924 4 3.625C4 3.79076 3.93415 3.94973 3.81694 4.06694C3.69973 4.18415 3.54076 4.25 3.375 4.25C3.20924 4.25 3.05027 4.18415 2.93306 4.06694C2.81585 3.94973 2.75 3.79076 2.75 3.625Z" fill="currentColor"/>
<path d="M4.335 6.75C4.11501 7.12981 3.99943 7.56108 4 8H1.5V11.125C1.4999 11.4359 1.57712 11.742 1.72471 12.0156C1.8723 12.2893 2.08563 12.522 2.34549 12.6927C2.60535 12.8634 2.90358 12.9668 3.21334 12.9936C3.52311 13.0204 3.83468 12.9698 4.12 12.8463C4.2125 13.26 4.3575 13.655 4.545 14.0238C4.07058 14.2153 3.55639 14.2874 3.04757 14.2338C2.53876 14.1802 2.05088 14.0025 1.6268 13.7163C1.20272 13.4301 0.8554 13.0441 0.615341 12.5923C0.375283 12.1405 0.24983 11.6366 0.25 11.125V8C0.25 7.66848 0.381696 7.35054 0.616117 7.11612C0.850537 6.8817 1.16848 6.75 1.5 6.75H4.335Z" fill="currentColor"/>
<path d="M13.4551 14.0238C13.9295 14.2153 14.4437 14.2874 14.9525 14.2338C15.4613 14.1802 15.9492 14.0025 16.3733 13.7163C16.7974 13.4301 17.1447 13.0441 17.3847 12.5923C17.6248 12.1405 17.7502 11.6366 17.7501 11.125V8C17.7501 7.66848 17.6184 7.35054 17.384 7.11612C17.1495 6.8817 16.8316 6.75 16.5001 6.75H13.6651C13.8776 7.1175 14.0001 7.54375 14.0001 8H16.5001V11.125C16.5002 11.4359 16.423 11.742 16.2754 12.0156C16.1278 12.2893 15.9145 12.522 15.6546 12.6927C15.3947 12.8634 15.0965 12.9668 14.7867 12.9936C14.477 13.0204 14.1654 12.9698 13.8801 12.8463C13.7863 13.26 13.6426 13.655 13.4551 14.0238Z" fill="currentColor"/>
<path d="M6.5 6.75C6.16848 6.75 5.85054 6.8817 5.61612 7.11612C5.3817 7.35054 5.25 7.66848 5.25 8V11.75C5.25 12.7446 5.64509 13.6984 6.34835 14.4017C7.05161 15.1049 8.00544 15.5 9 15.5C9.99456 15.5 10.9484 15.1049 11.6517 14.4017C12.3549 13.6984 12.75 12.7446 12.75 11.75V8C12.75 7.66848 12.6183 7.35054 12.3839 7.11612C12.1495 6.8817 11.8315 6.75 11.5 6.75H6.5ZM6.5 8H11.5V11.75C11.5 12.413 11.2366 13.0489 10.7678 13.5178C10.2989 13.9866 9.66304 14.25 9 14.25C8.33696 14.25 7.70107 13.9866 7.23223 13.5178C6.76339 13.0489 6.5 12.413 6.5 11.75V8Z" fill="currentColor"/>
</svg>
