<svg width="18" height="16" viewBox="0 0 18 16" fill="none" xmlns="http://www.w3.org/2000/svg">
<path d="M0.845562 14.3851L8.34706 0.885143C8.40621 0.778917 8.49029 0.688664 8.59207 0.622157C8.69385 0.55565 8.81028 0.514884 8.93131 0.50337C9.05235 0.491857 9.17437 0.509942 9.28686 0.556067C9.39935 0.602192 9.49895 0.674974 9.57706 0.768143L9.65806 0.885143L17.1611 14.3851C17.2194 14.4899 17.2517 14.607 17.2554 14.7268C17.2592 14.8466 17.2341 14.9655 17.1824 15.0736C17.1307 15.1817 17.0538 15.2759 16.9583 15.3482C16.8627 15.4205 16.7512 15.4688 16.6331 15.4891L16.5056 15.4996H1.49956C1.37967 15.4999 1.26147 15.4714 1.15487 15.4165C1.04827 15.3617 0.956369 15.2821 0.886879 15.1844C0.817389 15.0867 0.772333 14.9737 0.755487 14.855C0.738642 14.7363 0.750498 14.6153 0.790062 14.5021L0.844062 14.3851L8.34556 0.885143L0.844062 14.3851H0.845562ZM9.00256 2.79464L2.77606 13.9996H15.2306L9.00256 2.79464ZM9.00256 10.8166C9.25041 10.8166 9.4881 10.9151 9.66335 11.0904C9.83861 11.2656 9.93706 11.5033 9.93706 11.7511C9.93706 11.999 9.83861 12.2367 9.66335 12.4119C9.4881 12.5872 9.25041 12.6856 9.00256 12.6856C8.75472 12.6856 8.51702 12.5872 8.34177 12.4119C8.16652 12.2367 8.06806 11.999 8.06806 11.7511C8.06806 11.5033 8.16652 11.2656 8.34177 11.0904C8.51702 10.9151 8.75472 10.8166 9.00256 10.8166ZM9.00256 6.50564C9.1781 6.50559 9.3481 6.5671 9.48295 6.67948C9.6178 6.79185 9.70897 6.94797 9.74056 7.12064L9.75256 7.25564L9.74956 8.74964C9.74991 8.93706 9.68007 9.11782 9.5538 9.25632C9.42753 9.39482 9.25398 9.48102 9.06733 9.49796C8.88068 9.51489 8.69445 9.46133 8.54531 9.34781C8.39618 9.2343 8.29495 9.06907 8.26156 8.88464L8.24956 8.74964V7.25264C8.24956 7.05373 8.32858 6.86297 8.46923 6.72231C8.60988 6.58166 8.80065 6.50264 8.99956 6.50264L9.00256 6.50564Z" fill="currentColor"/>
</svg>
