<svg width="18" height="24" viewBox="0 0 18 24" fill="none" xmlns="http://www.w3.org/2000/svg">
<path d="M0 1.44C0 0.644623 0.644623 0 1.44 0H12L18 5.03999V22.56C18 23.3554 17.3554 24 16.56 24H1.44C0.644623 24 0 23.3554 0 22.56V1.44Z" fill="#42A5F5"/>
<path d="M12 0V3.59998C12 4.39537 12.6446 5.03999 13.44 5.03999H18" fill="#1E88E5"/>
<path d="M4.04318 16.9423H2.63281V11.7437H3.95318C5.28854 11.7437 6.56394 12.1712 6.56394 14.3173C6.56394 16.4315 5.34104 16.9423 4.04318 16.9423ZM4.13318 12.6436H3.87818V16.0422H4.13318C4.8157 16.0422 5.27316 15.6747 5.27316 14.3165C5.27355 12.9294 4.78607 12.6436 4.13318 12.6436Z" fill="white"/>
<path d="M9.00081 17.0699C7.63541 17.0699 6.91504 16.0278 6.91504 14.3399C6.91504 12.6895 7.63541 11.6091 9.00081 11.6091C10.3662 11.6091 11.0862 12.652 11.0862 14.3399C11.0862 15.9895 10.3662 17.0699 9.00081 17.0699ZM9.00081 12.5162C8.42293 12.5162 8.19079 13.0641 8.19079 14.3395C8.19079 15.6141 8.4308 16.162 9.00081 16.162C9.59329 16.162 9.81083 15.5995 9.81083 14.3395C9.81083 13.0641 9.57795 12.5162 9.00081 12.5162Z" fill="white"/>
<path d="M15.0013 12.9066C14.7163 12.6741 14.4159 12.5313 14.0188 12.5313C13.3067 12.5313 12.7959 13.0641 12.7959 14.332C12.7959 15.5774 13.2763 16.1095 13.9892 16.1095C14.4988 16.1095 14.8221 15.8991 15.1142 15.6745L15.6767 16.3945C15.2942 16.762 14.7313 17.0698 13.9063 17.0698C12.4738 17.0698 11.498 16.1169 11.498 14.3315C11.498 12.5908 12.5409 11.6083 13.9288 11.6083C14.6788 11.6083 15.1734 11.8336 15.6084 12.1862L15.0013 12.9066Z" fill="white"/>
</svg>
