<svg width="18" height="24" viewBox="0 0 18 24" fill="none" xmlns="http://www.w3.org/2000/svg">
<path d="M0 1.44C0 0.644623 0.644622 0 1.44 0H12L18 5.03999V22.56C18 23.3554 17.3554 24 16.56 24H1.44C0.644622 24 0 23.3554 0 22.56V1.44Z" fill="#26A69A"/>
<path d="M12 0V3.59998C12 4.39537 12.6446 5.03999 13.44 5.03999H18" fill="#00897B"/>
<path d="M3.92994 16.9436H2.68457V11.745H3.92994V16.9436ZM3.96784 14.1675L5.37074 11.745H6.67612L5.22073 14.0778L6.81861 16.9436H5.37826L3.96784 14.1675Z" fill="white"/>
<path d="M8.64771 12.63V13.8675H10.4481V14.7379H8.64771V16.0507H10.8156V16.9436H7.40234V11.745H10.8156L10.6881 12.63H8.64771Z" fill="white"/>
<path d="M14.1224 14.9923V16.9426H12.877V14.9998L11.1816 11.744H12.547L13.5074 13.9348H13.5374L14.5049 11.744H15.8182L14.1224 14.9923Z" fill="white"/>
</svg>
