<svg width="18" height="24" viewBox="0 0 18 24" fill="none" xmlns="http://www.w3.org/2000/svg">
<path d="M0 1.44C0 0.644623 0.644622 0 1.44 0H12L18 5.03999V22.56C18 23.3554 17.3554 24 16.56 24H1.44C0.644622 24 0 23.3554 0 22.56V1.44Z" fill="#BA281D"/>
<path d="M12 0V3.59998C12 4.39537 12.6446 5.03999 13.44 5.03999H18" fill="#89180F"/>
<path d="M4.51489 15.2174H3.9524V16.9428H2.70703V11.7441H4.34989C5.76778 11.7441 6.57775 12.2992 6.57775 13.4395C6.57741 14.6627 5.74492 15.2174 4.51489 15.2174ZM4.36493 12.6291H3.95245V14.317H4.40995C4.97245 14.317 5.29493 14.0466 5.29493 13.4391C5.29493 12.892 4.98744 12.6291 4.36493 12.6291Z" fill="white"/>
<path d="M8.54318 16.9428H7.13281V11.7441H8.45319C9.78895 11.7441 11.0636 12.1717 11.0636 14.3178C11.0636 16.432 9.8407 16.9428 8.54318 16.9428ZM8.63283 12.6441H8.37783V16.0427H8.63283C9.31536 16.0427 9.77281 15.6752 9.77281 14.317C9.77356 12.9299 9.28572 12.6441 8.63283 12.6441Z" fill="white"/>
<path d="M13.2295 12.6291V13.9949H15.0448V14.8874H13.2295V16.9428H11.9766V11.7441H15.4048L15.2773 12.6291H13.2295Z" fill="white"/>
</svg>
