<svg width="18" height="24" viewBox="0 0 18 24" fill="none" xmlns="http://www.w3.org/2000/svg">
<path d="M0 1.44C0 0.644623 0.644622 0 1.44 0H12L18 5.03999V22.56C18 23.3554 17.3554 24 16.56 24H1.44C0.644622 24 0 23.3554 0 22.56V1.44Z" fill="#C45A3B"/>
<path d="M12 0V3.59998C12 4.39537 12.6446 5.03999 13.44 5.03999H18" fill="#A74225"/>
<path d="M4.51489 15.2174H3.9524V16.9428H2.70703V11.7441H4.34989C5.76778 11.7441 6.57775 12.2992 6.57775 13.4395C6.57741 14.6627 5.74492 15.2174 4.51489 15.2174ZM4.36493 12.6291H3.95245V14.317H4.40995C4.97245 14.317 5.29493 14.0466 5.29493 13.4391C5.29493 12.892 4.98744 12.6291 4.36493 12.6291Z" fill="white"/>
<path d="M9.01489 15.2174H8.4524V16.9428H7.20703V11.7441H8.84989C10.2678 11.7441 11.0778 12.2992 11.0778 13.4395C11.0774 14.6627 10.2449 15.2174 9.01489 15.2174ZM8.86493 12.6291H8.45245V14.317H8.90995C9.47245 14.317 9.79494 14.0466 9.79494 13.4391C9.79494 12.892 9.48739 12.6291 8.86493 12.6291Z" fill="white"/>
<path d="M14.1156 12.697V16.9432H12.8695V12.697H11.4141V11.7441H15.6306L15.5023 12.697H14.1156Z" fill="white"/>
</svg>
