<svg width="18" height="24" viewBox="0 0 18 24" fill="none" xmlns="http://www.w3.org/2000/svg">
<path d="M0 1.44C0 0.644623 0.644622 0 1.44 0H12L18 5.03999V22.56C18 23.3554 17.3554 24 16.56 24H1.44C0.644622 24 0 23.3554 0 22.56V1.44Z" fill="#EEEEEE"/>
<path d="M12 0V3.59998C12 4.39537 12.6446 5.03999 13.44 5.03999H18" fill="#BBE7F2"/>
<path d="M9.52353 16.1259H7.20303L6.64691 14.4095H4.36243L3.83066 16.1259H1.50977L4.4955 7.56836H6.46578L9.52353 16.1259ZM6.12715 12.4876L5.53468 9.98558H5.47431L4.84583 12.4876H6.12715Z" fill="#448AFF"/>
<path d="M15 18H1.5V18.75H15V18Z" fill="#BBE7F2"/>
<path d="M15 15.375H11.625V16.125H15V15.375Z" fill="#BBE7F2"/>
<path d="M15 12.75H10.5V13.5H15V12.75Z" fill="#BBE7F2"/>
<path d="M15 10.125H9.75V10.875H15V10.125Z" fill="#BBE7F2"/>
<path d="M15 7.5H8.625V8.25001H15V7.5Z" fill="#BBE7F2"/>
<path d="M15 20.25H1.5V21H15V20.25Z" fill="#BBE7F2"/>
</svg>
