<svg width="18" height="24" viewBox="0 0 18 24" fill="none" xmlns="http://www.w3.org/2000/svg">
<path d="M0 1.44C0 0.644623 0.644623 0 1.44 0H12L18 5.03999V22.56C18 23.3554 17.3554 24 16.56 24H1.44C0.644623 24 0 23.3554 0 22.56V1.44Z" fill="#26A69A"/>
<path d="M12 0V3.59998C12 4.39537 12.6446 5.03999 13.44 5.03999H18" fill="#00897B"/>
<path d="M5.11614 12.6964V16.9426H3.87078V12.6964H2.41504V11.7435H6.63115L6.50325 12.6964H5.11614Z" fill="white"/>
<path d="M6.87037 11.7441H8.22825L8.97074 13.3649H9.00072L9.78858 11.7441H11.109L9.71283 14.1303L11.2361 16.9428H9.87818L8.98568 15.0149H8.95569L8.08531 16.9428H6.75781L8.2282 14.1824L6.87037 11.7441Z" fill="white"/>
<path d="M14.1162 12.6964V16.9426H12.8712V12.6964H11.415V11.7435H15.6316L15.5033 12.6964H14.1162Z" fill="white"/>
</svg>
