<svg width="18" height="24" viewBox="0 0 18 24" fill="none" xmlns="http://www.w3.org/2000/svg">
<path d="M0 1.44C0 0.644623 0.644622 0 1.44 0H12L18 5.03999V22.56C18 23.3554 17.3554 24 16.56 24H1.44C0.644622 24 0 23.3554 0 22.56V1.44Z" fill="#31723D"/>
<path d="M12 0V3.59998C12 4.39537 12.6446 5.03999 13.44 5.03999H18" fill="#2B5633"/>
<path d="M2.37032 11.7441H3.7282L4.47069 13.3649H4.50067L5.28818 11.7441H6.60855L5.21317 14.1303L6.73605 16.9428H5.37818L4.48568 15.0149H4.45569L3.58531 16.9428H2.25781L3.7282 14.1824L2.37032 11.7441Z" fill="white"/>
<path d="M7.44141 16.9428V11.7441H8.68677V15.9607H10.9371L10.8093 16.9428H7.44141V16.9428Z" fill="white"/>
<path d="M13.4118 17.0709C12.4664 17.0709 11.7619 16.7413 11.334 16.3209L11.964 15.6237C12.3469 15.9612 12.8122 16.1487 13.3672 16.1487C13.8768 16.1487 14.2219 15.9158 14.2219 15.518C14.2219 15.143 14.0044 14.9784 13.2843 14.7526C12.0915 14.3776 11.6344 13.9051 11.6344 13.1247C11.6344 12.1643 12.519 11.6094 13.5994 11.6094C14.3876 11.6094 15.0019 11.8569 15.4522 12.2844L14.8669 12.9597C14.5144 12.6676 14.1015 12.5247 13.6965 12.5247C13.2315 12.5247 12.9233 12.6976 12.9233 13.0272C12.9233 13.3572 13.1561 13.4847 13.9511 13.7393C14.9415 14.0618 15.519 14.4668 15.519 15.4197C15.5197 16.3955 14.7251 17.0709 13.4118 17.0709Z" fill="white"/>
</svg>
