<svg width="18" height="24" viewBox="0 0 18 24" fill="none" xmlns="http://www.w3.org/2000/svg">
<path d="M0 1.44C0 0.644623 0.644623 0 1.44 0H12L18 5.03999V22.56C18 23.3554 17.3554 24 16.56 24H1.44C0.644623 24 0 23.3554 0 22.56V1.44Z" fill="white"/>
<path d="M12 0V3.59998C12 4.39537 12.6446 5.03999 13.44 5.03999H18" fill="#E0E0E0"/>
<path d="M10.5 0H8.625V1.12499H10.5V0Z" fill="#787878"/>
<path d="M8.625 1.12512H6.75V2.25011H8.625V1.12512Z" fill="#787878"/>
<path d="M10.5 2.25024H8.625V3.37523H10.5V2.25024Z" fill="#787878"/>
<path d="M8.625 3.37488H6.75V4.49987H8.625V3.37488Z" fill="#787878"/>
<path d="M10.5 4.5H8.625V5.62499H10.5V4.5Z" fill="#787878"/>
<path d="M8.625 5.62512H6.75V6.75012H8.625V5.62512Z" fill="#787878"/>
<path d="M10.5 6.75012H8.625V7.87511H10.5V6.75012Z" fill="#787878"/>
<path d="M8.625 7.87488H6.75V8.99987H8.625V7.87488Z" fill="#787878"/>
<path d="M10.5 9H8.625V10.125H10.5V9Z" fill="#787878"/>
<path d="M8.625 10.125H6.75V11.25H8.625V10.125Z" fill="#787878"/>
<path d="M10.5 11.2501H8.625V12.3751H10.5V11.2501Z" fill="#787878"/>
<path d="M8.625 12.3749H6.75V13.4999H8.625V12.3749Z" fill="#787878"/>
<path d="M6.75 14.2499V17.2499C6.75 18.0749 7.425 18.7499 8.25001 18.7499H9.00002C9.82503 18.7499 10.5 18.0749 10.5 17.2499V14.2499H6.75ZM9.375 16.4999C9.375 16.9123 9.03752 17.2499 8.62499 17.2499C8.21251 17.2499 7.87498 16.9124 7.87498 16.4999V15.7498H9.375V16.4999Z" fill="#787878"/>
</svg>
