<svg width="48" height="48" viewBox="0 0 48 48" fill="none" xmlns="http://www.w3.org/2000/svg">
<rect width="48" height="48" rx="10" fill="#4574F6"/>
<path d="M27.8108 19.5322V19.5322C27.8108 18.9994 27.5187 18.5095 27.0499 18.2563L17.6095 13.1563C16.5531 12.5856 15.2703 13.3506 15.2703 14.5513V32.2804C15.2703 32.8629 15.5897 33.3985 16.1022 33.6754L25.6549 38.836C26.6285 39.362 27.8108 38.6569 27.8108 37.5503V37.5503" stroke="white" stroke-width="1.98198" stroke-linecap="round"/>
<path d="M27.8108 19.2433V19.2433C27.8108 20.4081 29.1562 21.0577 30.0684 20.3333L31.9623 18.8294C32.4357 18.4534 32.7117 17.8819 32.7117 17.2773V15.7204C32.7117 15.1378 32.3923 14.6022 31.8798 14.3253L22.5104 9.26372C21.4539 8.693 20.1711 9.45802 20.1711 10.6587V11.7478M27.8108 38.2703V29.9548C27.8108 29.4711 28.0316 29.0139 28.4103 28.7131L31.4259 26.3184C31.9454 25.9058 32.7117 26.2758 32.7117 26.9393V33.9799C32.7117 34.9418 31.6847 35.5552 30.8378 35.0991V35.0991M20.1711 14.6306V28.3878C20.1711 28.9703 20.4906 29.5059 21.0031 29.7828L23.3063 31.0271L24.8739 31.8739L26.4414 32.7208L27.2252 33.1442L27.6171 33.3559" stroke="white" stroke-width="1.98198" stroke-linecap="round"/>
</svg>
