<svg width="302" height="254" viewBox="0 0 302 254" fill="none" xmlns="http://www.w3.org/2000/svg">
<path d="M23.7793 204.332L12.293 217.339L20.4883 223.664L30.1032 214.886L23.7793 204.332Z" fill="#FC9D9D"/>
<path d="M13.8423 215.206L6.51816 220.822C5.71153 221.435 5.48568 222.565 5.96965 223.436L20.0372 249.417C20.3276 249.998 21.0051 250.224 21.6182 249.998C22.9088 249.514 23.6186 248.126 23.2314 246.803L23.0701 246.19C22.2635 243.35 21.844 240.445 21.8117 237.476L21.6182 223.759C21.6182 222.92 21.0051 222.178 20.1985 221.984C17.5205 221.371 15.5201 219.112 15.1974 216.368L15.1329 215.691C15.0038 215.142 14.294 214.851 13.8423 215.206Z" fill="#242830"/>
<path d="M17.3906 211.428L54.4308 168.439L54.0436 108.344H74.3383L71.3376 172.699C71.3054 175.442 70.1761 178.057 68.1757 179.961L25.231 219.368L17.3906 211.428Z" fill="#3F4249"/>
<path d="M78.2418 56.3503L77.1125 74.6822L75.6284 74.4563L74.3055 108.441L31.1995 108.312L30.4574 70.2283L26.8438 47.4425L40.7822 43.4728L41.2662 43.3437L43.0408 42.8273L50.5907 49.3145L58.6247 42.7305L60.7542 43.4082C60.9155 43.4405 60.9801 43.4728 61.0123 43.4728H61.0446C61.0446 43.4728 61.0446 43.4728 61.1414 43.5051L61.2382 43.5373L71.563 46.8293C75.7251 48.1526 78.4354 52.0578 78.2418 56.3503Z" fill="#4D61FC"/>
<path d="M19.9405 55.9949L17.4238 91.4968L33.7499 84.9774L37.299 44.957L27.2324 47.3776C23.1993 48.3458 20.2309 51.8315 19.9405 55.9949Z" fill="#4D61FC"/>
<path d="M49.429 50.8971L46.7188 93.8544L50.397 97.7919L53.8493 93.8544L51.8811 50.7034L50.5905 49.832L49.429 50.8971Z" fill="#242830"/>
<path d="M109.41 53.0927L85.9855 89.9501C84.2432 92.6934 80.1455 92.3061 78.9195 89.3046L72.7246 73.8451L77.5966 52.5117L84.6949 72.5219L98.2462 53.0927H109.41Z" fill="#4D61FC"/>
<path d="M30.748 230.73L41.2987 230.956L40.7824 239.122L31.0384 239.993L30.748 230.73Z" fill="#FC9D9D"/>
<path d="M35.9114 235.023C38.7185 235.023 41.0415 237.25 41.1383 240.058L41.1706 241.349C41.2029 241.866 41.2674 242.382 41.3964 242.866L42.8484 248.224C43.1065 249.16 42.3967 250.063 41.461 250.063H29.4584C28.4259 250.063 27.7161 249.031 28.1033 248.062L30.1682 242.898C30.4586 242.188 30.62 241.414 30.6522 240.639L30.6845 240.026C30.7813 237.283 33.0721 235.023 35.9114 235.023Z" fill="#242830"/>
<path opacity="0.2" d="M75.404 80.4294L70.7256 69.3915C70.4675 69.0365 69.8867 69.1656 69.8545 69.6175L67.4023 108.315L74.307 108.444L75.404 80.4294Z" fill="black"/>
<path opacity="0.2" d="M67.4008 108.344L63.5613 172.925L30.3284 208.685L30.2316 199.035L28.4893 201.101L27.8117 211.396L22.7461 216.851L25.2305 219.368L68.3365 179.799C70.2401 177.992 71.3371 175.507 71.3371 172.893L74.3378 108.344H67.4008Z" fill="black"/>
<g opacity="0.2">
<path opacity="0.2" d="M48.3172 174.543L46.9844 198.874L47.4677 198.9L48.8006 174.569L48.3172 174.543Z" fill="black"/>
</g>
<path d="M60.5943 76.6853L62.5625 73.7806L63.0464 70.6822C63.0787 70.5531 63.1755 70.4563 63.3045 70.424C64.1757 70.2304 65.0146 70.8113 65.1436 71.6827L65.7567 75.4266L72.6291 74.9425C73.1453 74.9425 73.5971 75.3297 73.6616 75.8461C73.7261 76.4271 73.2421 76.9435 72.6614 76.9435H72.1129H72.6936C73.2744 76.9435 73.7906 77.3953 73.8229 77.9763C73.8874 78.5895 73.4357 79.1704 72.7904 79.2027L72.2742 79.235L72.855 79.1704C73.4357 79.1059 73.952 79.5577 74.0165 80.1386C74.081 80.7196 73.6293 81.236 73.0486 81.3005L72.371 81.3651L73.3389 81.2683C73.7584 81.236 74.1456 81.5587 74.2101 81.9783C74.2424 82.3979 73.952 82.7529 73.5648 82.8174L61.5622 84.7539L56.8516 86.1417L58.1099 76.8789L60.5943 76.6853Z" fill="#FC9D9D"/>
<path opacity="0.2" d="M37.298 78.8154C35.233 77.7181 33.8456 75.6525 33.6198 73.3287L32.6518 63.3882C32.6196 63.1623 32.3292 63.1623 32.2969 63.3882L30.6837 79.59L27.0377 80.0095C26.9087 80.0095 26.8119 80.1386 26.8441 80.2677C26.8441 80.3968 26.9732 80.4937 27.1023 80.4614L60.6255 76.653L61.0127 76.0721L37.298 78.8154Z" fill="black"/>
<path opacity="0.15" d="M74.21 82.0089L74.1778 81.9443C74.081 81.4925 73.6293 81.202 73.2098 81.2988L73.0808 81.3311L63.1109 82.848L60.4329 76.6836H59.6908L56.916 77.0063L57.7549 85.9464C57.7549 85.9464 62.4333 84.6877 62.5946 84.6554L63.4658 84.5263C66.5632 84.0099 72.7904 83.0094 73.4357 82.9126C74.3391 82.7189 74.21 82.0089 74.21 82.0089Z" fill="black"/>
<g opacity="0.15">
<path opacity="0.15" d="M69.6914 76.9422C69.6914 76.8131 69.7882 76.7163 69.9173 76.7163L73.5309 76.4258C73.3696 76.7485 73.047 76.9745 72.692 76.9745H72.6598L69.9495 77.2004C69.8205 77.1681 69.6914 77.0713 69.6914 76.9422Z" fill="black"/>
</g>
<g opacity="0.15">
<path opacity="0.15" d="M69.8535 79.3634C69.8535 79.2343 69.918 79.1375 70.0471 79.1052L73.693 78.6211C73.564 78.9438 73.2413 79.1698 72.8864 79.202H72.8541L70.0794 79.5893C69.9826 79.5893 69.8858 79.4925 69.8535 79.3634Z" fill="black"/>
</g>
<path opacity="0.2" d="M54.6894 52.6378L54.6249 52.5732L54.6894 52.6378L50.7531 51.5727L46.9781 52.6701L40.7832 43.5041L41.2672 43.375L47.3653 52.3796L50.624 49.8299L54.3022 52.3796L60.8197 43.4396C60.9811 43.4718 61.0456 43.5041 61.0779 43.5041H61.1101C61.1101 43.5041 61.1101 43.5041 61.2069 43.5364L61.3037 43.5686L54.6894 52.6378Z" fill="black"/>
<path d="M18.5523 81.7191L58.1091 76.9102L59.4642 85.3661L21.9724 96.3071C19.488 97.0494 17.0358 94.9839 17.3262 92.4019L18.5523 81.7191Z" fill="#4D61FC"/>
<path opacity="0.2" d="M59.2393 83.9141L23.8124 92.4019C20.6504 93.0797 17.6821 90.5303 17.9402 87.2706L18.0047 86.5606L17.3594 92.4019C17.069 94.9839 19.5212 97.0498 22.0056 96.3075L37.041 91.8859L59.4975 85.3341L59.2393 83.9141Z" fill="black"/>
<path d="M58.7227 76.8772L60.3682 85.1718L61.9814 84.7845L60.4327 76.6836L58.7227 76.8772Z" fill="#242830"/>
<path d="M60.4328 82.7848C61.4485 82.7848 62.272 81.9611 62.272 80.9451C62.272 79.9291 61.4485 79.1055 60.4328 79.1055C59.4171 79.1055 58.5938 79.9291 58.5938 80.9451C58.5938 81.9611 59.4171 82.7848 60.4328 82.7848Z" fill="#242830"/>
<path opacity="0.2" d="M61.5947 82.7833L60.8204 78.8135C60.6913 78.7813 60.5622 78.7812 60.4009 78.7812C59.9169 78.7812 59.4975 78.9426 59.1426 79.2008L59.9169 83.106C60.0783 83.1383 60.2396 83.1706 60.4009 83.1706C60.8526 83.106 61.2721 82.9769 61.5947 82.7833Z" fill="black"/>
<path d="M60.4316 82.5595C61.3224 82.5595 62.0449 81.8368 62.0449 80.9457C62.0449 80.0543 61.3224 79.332 60.4316 79.332C59.5408 79.332 58.8184 80.0543 58.8184 80.9457C58.8184 81.8368 59.5408 82.5595 60.4316 82.5595Z" fill="white"/>
<path d="M31.2009 108.344L30.5879 234.505H41.2353L51.7214 129.709C51.7537 129.096 52.2377 128.644 52.8507 128.644C53.4637 128.644 53.9477 129.129 53.98 129.709L54.2704 139.392L55.9159 108.344H31.2009Z" fill="#3F4249"/>
<path opacity="0.2" d="M52.818 128.613C46.4296 128.613 40.8477 133.809 40.8477 140.2L36.6855 234.474H41.1704L51.6565 129.678C51.721 129.097 52.2373 128.613 52.818 128.613Z" fill="black"/>
<path d="M74.1772 112.184H31.168L31.2002 108.344H74.3385L74.1772 112.184Z" fill="#242830"/>
<path d="M43.1374 108.344H41.75V112.507H43.1374V108.344Z" fill="#3F4249"/>
<path d="M61.7878 108.344H60.4004V112.507H61.7878V108.344Z" fill="#3F4249"/>
<path d="M55.2376 112.184H50.172C49.6558 112.184 49.2363 111.765 49.2363 111.248V109.28C49.2363 108.763 49.6558 108.344 50.172 108.344H55.2376C55.7538 108.344 56.1733 108.763 56.1733 109.28V111.248C56.1733 111.765 55.7538 112.184 55.2376 112.184Z" fill="#B2B6BB"/>
<path d="M33.6842 240.346C33.6197 240.346 33.5229 240.314 33.4906 240.25C33.4261 240.153 33.4583 239.991 33.5551 239.927C33.5874 239.927 35.9105 238.378 38.2013 239.927C38.2981 239.991 38.3304 240.153 38.2658 240.25C38.2013 240.346 38.04 240.379 37.9432 240.314C35.9105 238.959 33.8455 240.314 33.8133 240.314C33.781 240.346 33.7165 240.346 33.6842 240.346Z" fill="#868A91"/>
<path d="M33.6842 241.737C33.6197 241.737 33.5229 241.705 33.4906 241.64C33.4261 241.543 33.4583 241.382 33.5551 241.317C33.5874 241.317 35.9105 239.768 38.2013 241.317C38.2981 241.382 38.3304 241.543 38.2658 241.64C38.2013 241.737 38.04 241.769 37.9432 241.705C35.9105 240.349 33.8455 241.705 33.8133 241.705C33.781 241.705 33.7165 241.737 33.6842 241.737Z" fill="#868A91"/>
<path d="M33.6842 243.092C33.6197 243.092 33.5229 243.06 33.4906 242.996C33.4261 242.899 33.4583 242.737 33.5551 242.673C33.5874 242.673 35.9105 241.124 38.2013 242.673C38.2981 242.737 38.3304 242.899 38.2658 242.996C38.2013 243.092 38.04 243.125 37.9432 243.06C35.9105 241.705 33.8455 243.06 33.8133 243.06C33.781 243.092 33.7165 243.092 33.6842 243.092Z" fill="#868A91"/>
<path d="M19.1325 227.243C19.0034 227.243 18.9066 227.146 18.9066 227.049C18.8744 226.92 18.9712 226.791 19.1002 226.791L21.5846 226.436C21.7137 226.404 21.8428 226.5 21.8428 226.63C21.875 226.759 21.7782 226.888 21.6492 226.888L19.1325 227.243Z" fill="#868A91"/>
<path d="M19.1657 228.922C19.0366 228.922 18.9398 228.826 18.9398 228.729C18.9076 228.6 19.0044 228.471 19.1334 228.471L21.6178 228.116C21.7469 228.083 21.8759 228.18 21.8759 228.309C21.9082 228.438 21.8114 228.567 21.6824 228.567L19.1657 228.922C19.198 228.922 19.198 228.922 19.1657 228.922Z" fill="#868A91"/>
<path d="M19.1657 230.794C19.0366 230.794 18.9398 230.697 18.9398 230.6C18.9076 230.471 19.0044 230.342 19.1334 230.342L21.6178 229.987C21.7469 229.954 21.8759 230.051 21.8759 230.18C21.9082 230.309 21.8114 230.439 21.6824 230.439L19.1657 230.794C19.198 230.794 19.198 230.794 19.1657 230.794Z" fill="#868A91"/>
<g opacity="0.2">
<path opacity="0.2" d="M31.1348 123.222L34.4581 112.088C34.4903 111.958 34.6194 111.894 34.7484 111.926C34.8775 111.958 34.942 112.088 34.9098 112.217L31.1348 124.901V123.222Z" fill="black"/>
</g>
<g opacity="0.2">
<path opacity="0.2" d="M73.629 123.448L70.2412 112.088C70.2089 111.958 70.0799 111.894 69.9508 111.926C69.8217 111.958 69.7572 112.088 69.7895 112.217L73.5645 124.901L73.629 123.448Z" fill="black"/>
</g>
<g opacity="0.2">
<path opacity="0.2" d="M54.3011 169.182C54.2365 169.182 54.2043 169.15 54.1397 169.117C54.0429 169.021 54.0429 168.891 54.1075 168.795L58.3987 163.792C58.4955 163.695 58.6246 163.695 58.7214 163.76C58.8182 163.857 58.8182 163.986 58.7536 164.083L54.4624 169.085C54.4624 169.15 54.3979 169.182 54.3011 169.182Z" fill="black"/>
</g>
<path opacity="0.2" d="M83.2438 74.3294L84.6957 72.5221L82.9212 67.5195L81.921 73.7808C81.8564 74.394 82.8566 74.8135 83.2438 74.3294Z" fill="black"/>
<path opacity="0.2" d="M84.9219 91.0457C85.664 90.5616 86.0511 89.8838 86.6964 88.7865L87.987 86.7858V67.9375L84.9219 91.0457Z" fill="black"/>
<path d="M50.5919 49.8332L58.6905 42.7328L57.4967 26.6602H44.0744L43.0742 42.8619L50.5919 49.8332Z" fill="#FC9D9D"/>
<path d="M59.3023 21.0127C59.3023 21.0127 60.9801 39.4091 50.8812 39.5382C41.0081 39.6673 41.8147 21.2386 41.8147 21.2386L41.847 15.9456L54.6239 14.4609L57.7214 16.3006L59.3023 21.0127Z" fill="#FC9D9D"/>
<path d="M57.1738 16.751C57.1738 16.751 60.4971 14.8146 61.7877 18.5261C62.8847 21.6568 60.5294 24.8842 60.5294 24.8842L58.6903 24.5937C57.9159 24.5292 57.3997 24.1419 57.3674 23.3673L57.1738 16.751Z" fill="#21252B"/>
<path d="M59.5939 14.6841C59.6584 18.1697 56.6255 18.912 55.4317 18.9443L45.4296 19.2025C44.6229 19.2348 43.9776 19.8803 43.9776 20.6871V23.85C43.9776 24.2696 43.655 24.6569 43.2033 24.6892L42.5902 24.7214L41.8482 25.5283C38.0086 24.3664 37.0407 13.1994 44.3325 11.3921C45.1069 11.1984 45.8167 10.682 46.2039 9.972C47.3655 7.87416 51.689 7.55141 53.6894 10.1011C54.1088 10.6498 54.6573 10.908 55.3349 10.9402C57.9806 11.0371 59.5616 12.7799 59.5939 14.6841Z" fill="#21252B"/>
<path d="M42.5257 25.8204C42.4612 24.5294 40.977 23.7871 39.9445 24.5294L39.9123 24.5617C38.1054 25.9495 38.9443 30.6616 42.7193 30.4679L42.5257 25.8204Z" fill="#FC9D9D"/>
<path d="M61.4328 24.466L61.4006 24.4338C60.3358 23.6914 58.8839 24.466 58.8516 25.757L58.7871 30.2109C62.5944 30.3077 63.2397 25.7893 61.4328 24.466Z" fill="#FC9D9D"/>
<path d="M42.977 26.4331C42.977 26.659 42.7834 26.8526 42.5253 26.8526C42.2672 26.8526 42.0736 26.6913 42.0413 26.4976L41.7832 23.4961L43.0093 23.6252L42.977 26.4331Z" fill="#21252B"/>
<path d="M59.6254 26.1753C59.6254 26.4012 59.4319 26.5948 59.1737 26.5948C58.9156 26.5948 58.722 26.4331 58.6898 26.2395L58.4316 23.2383L59.6577 23.3674L59.6254 26.1753Z" fill="#21252B"/>
<path d="M55.4305 19.3967C55.1401 19.3967 54.9466 19.3644 54.9143 19.3644C54.7852 19.3644 54.7207 19.2353 54.7207 19.1385C54.7207 19.0094 54.8498 18.9449 54.9466 18.9449C54.9788 18.9449 56.947 19.1708 57.8827 17.8798C57.9472 17.783 58.0763 17.7507 58.173 17.8475C58.2698 17.9121 58.3021 18.0412 58.2053 18.138C57.4955 19.2031 56.1726 19.3967 55.4305 19.3967Z" fill="#FC9D9D"/>
<path d="M47.461 28.692C47.9421 28.692 48.3321 28.3018 48.3321 27.8206C48.3321 27.3391 47.9421 26.9492 47.461 26.9492C46.9799 26.9492 46.5898 27.3391 46.5898 27.8206C46.5898 28.3018 46.9799 28.692 47.461 28.692Z" fill="#21252B"/>
<path d="M47.0432 27.9185C47.15 27.9185 47.2368 27.832 47.2368 27.7249C47.2368 27.6181 47.15 27.5312 47.0432 27.5312C46.9364 27.5312 46.8496 27.6181 46.8496 27.7249C46.8496 27.832 46.9364 27.9185 47.0432 27.9185Z" fill="white"/>
<path d="M54.2051 28.5944C54.6862 28.5944 55.0763 28.2042 55.0763 27.723C55.0763 27.2418 54.6862 26.8516 54.2051 26.8516C53.7241 26.8516 53.334 27.2418 53.334 27.723C53.334 28.2042 53.7241 28.5944 54.2051 28.5944Z" fill="#21252B"/>
<path d="M53.7854 27.8209C53.8922 27.8209 53.979 27.7341 53.979 27.6272C53.979 27.5201 53.8922 27.4336 53.7854 27.4336C53.6786 27.4336 53.5918 27.5201 53.5918 27.6272C53.5918 27.7341 53.6786 27.8209 53.7854 27.8209Z" fill="white"/>
<g opacity="0.3">
<path opacity="0.3" d="M51.011 32.176H51.7208C51.8499 32.176 51.979 32.0469 51.979 31.9178C51.979 31.7887 51.8499 31.6596 51.7208 31.6596H51.011C50.7206 31.6596 50.4948 31.4337 50.4948 31.1432C50.4948 30.8527 50.7206 30.5945 51.011 30.5945C51.1401 30.5945 51.2691 30.4654 51.2691 30.3363C51.2691 30.2072 51.1401 30.0781 51.011 30.0781C50.4302 30.0781 49.9785 30.5622 49.9785 31.1109C49.9785 31.7241 50.4302 32.2082 51.011 32.176Z" fill="black"/>
</g>
<path d="M56.7872 25.5312H52.98H52.4637H49.1404H49.1082H44.8169C44.1071 25.5312 43.5586 26.0799 43.5586 26.79V27.7582C43.5586 29.6301 45.075 31.1793 46.9787 31.1793C48.85 31.1793 50.3988 29.6624 50.3988 27.7582V26.79C50.3988 26.4995 50.302 26.2413 50.1406 26.0154H51.4635C51.3022 26.2413 51.2054 26.4995 51.2054 26.7577V27.7259C51.2054 29.5978 52.7218 31.147 54.6255 31.147C56.4968 31.147 58.0456 29.6301 58.0456 27.7259V26.7577C58.0456 26.1122 57.4971 25.5312 56.7872 25.5312ZM49.8825 26.79V27.7582C49.8825 29.3719 48.5597 30.6629 46.9464 30.6629C45.3332 30.6629 44.0426 29.3396 44.0426 27.7259V26.7577C44.0426 26.3381 44.3975 26.0154 44.8169 26.0154H49.1082H49.1404C49.5599 26.0154 49.9148 26.3704 49.8825 26.79ZM57.5293 27.7582C57.5293 29.3719 56.2065 30.6629 54.5932 30.6629C52.98 30.6629 51.6894 29.3396 51.6894 27.7259V26.7577C51.6894 26.3381 52.0443 26.0154 52.4637 26.0154H52.98H56.7872C57.2067 26.0154 57.5293 26.3704 57.5293 26.79V27.7582Z" fill="#21252B"/>
<path d="M48.7847 33.4356L53.076 33.3711C53.1728 33.3711 53.2695 33.4679 53.2373 33.597C52.4952 35.7594 49.4945 35.824 48.6557 33.6938V33.6616C48.5911 33.5647 48.6879 33.4356 48.7847 33.4356Z" fill="white"/>
<g opacity="0.3">
<path opacity="0.3" d="M41.4284 28.1749C41.2993 28.1749 41.1703 28.0781 41.1703 27.949L41.138 27.4003C41.1058 26.8194 40.9767 26.4324 40.7186 26.2065C40.525 26.0451 40.3314 26.0451 40.2991 26.0451C40.1701 26.0451 40.041 25.948 40.041 25.8189C40.041 25.6898 40.1378 25.5607 40.2669 25.5284C40.2991 25.5284 40.6863 25.4961 41.0412 25.7866C41.3961 26.0771 41.5897 26.6261 41.622 27.3361L41.6543 27.8844C41.6865 28.0458 41.5897 28.1426 41.4284 28.1749C41.4607 28.1749 41.4607 28.1749 41.4284 28.1749Z" fill="black"/>
</g>
<g opacity="0.3">
<path opacity="0.3" d="M60.0443 27.9159C60.1733 27.9159 60.3024 27.8191 60.3024 27.69L60.3347 27.1413C60.3347 26.5604 60.4637 26.1408 60.6896 25.9472C60.8832 25.7535 61.0768 25.7858 61.0768 25.7858C61.2058 25.7858 61.3349 25.689 61.3349 25.5599C61.3349 25.4308 61.2381 25.3017 61.109 25.3017C61.0768 25.3017 60.6896 25.2694 60.3347 25.5921C59.9798 25.9149 59.7862 26.4313 59.7862 27.1736L59.7539 27.7223C59.7862 27.7868 59.883 27.8836 60.0443 27.9159Z" fill="black"/>
</g>
<path opacity="0.15" d="M58.013 33.5968L58.0453 33.5C56.9483 36.6306 54.8833 39.148 51.5923 39.5031H51.6246C51.3987 39.5353 51.1406 39.5353 50.9147 39.5353C48.269 39.5676 46.1718 38.2121 44.6876 35.5333C44.6231 35.4365 44.494 35.3719 44.365 35.4365C44.2682 35.501 44.2036 35.6301 44.2682 35.7592C45.8491 38.5994 48.0754 40.0194 50.9147 39.9872C51.5278 39.9872 52.1086 39.8903 52.6571 39.7613C54.3994 40.1163 56.3998 39.7935 58.368 38.5348L58.013 33.5968Z" fill="black"/>
<path opacity="0.8" d="M5.93645 223.436L20.004 249.417C20.2944 249.997 20.9719 250.223 21.585 249.997C21.714 249.965 21.8431 249.901 21.9399 249.836L6.48495 220.789C5.67833 221.435 5.45247 222.532 5.93645 223.436Z" fill="black"/>
<path opacity="0.8" d="M29.4587 250.095H41.4612C42.3969 250.095 43.0745 249.224 42.8809 248.32H28.039C27.8454 249.224 28.523 250.095 29.4587 250.095Z" fill="black"/>
<path d="M60.4963 81.3319L59.4961 81.0091L59.5284 80.8478L60.3995 81.1382L61.0125 80.1055L61.1739 80.2023L60.4963 81.3319Z" fill="#242830"/>
<path d="M283.835 250.322H95.7301C93.1811 250.322 91.1484 248.257 91.1484 245.739V57.5791C91.1484 55.0294 93.2134 52.9961 95.7301 52.9961H283.835C286.384 52.9961 288.416 55.0617 288.416 57.5791V245.739C288.416 248.289 286.384 250.322 283.835 250.322Z" fill="#4D61FC"/>
<path opacity="0.5" d="M283.835 250.322H95.7301C93.1811 250.322 91.1484 248.257 91.1484 245.739V57.5791C91.1484 55.0294 93.2134 52.9961 95.7301 52.9961H283.835C286.384 52.9961 288.416 55.0617 288.416 57.5791V245.739C288.416 248.289 286.384 250.322 283.835 250.322Z" fill="white"/>
<path d="M280.673 250.322H92.568C90.019 250.322 87.9863 248.257 87.9863 245.739V57.5791C87.9863 55.0294 90.0513 52.9961 92.568 52.9961H280.673C283.222 52.9961 285.254 55.0617 285.254 57.5791V245.739C285.254 248.289 283.222 250.322 280.673 250.322Z" fill="#4D61FC"/>
<path opacity="0.7" d="M280.673 250.322H92.568C90.019 250.322 87.9863 248.257 87.9863 245.739V57.5791C87.9863 55.0294 90.0513 52.9961 92.568 52.9961H280.673C283.222 52.9961 285.254 55.0617 285.254 57.5791V245.739C285.254 248.289 283.222 250.322 280.673 250.322Z" fill="white"/>
<path d="M98.6992 51.414C98.6992 52.2854 99.409 52.9632 100.248 52.9632H102.377L102.894 58.1271C102.926 58.5144 103.281 58.8371 103.668 58.8371C104.087 58.8371 104.41 58.5144 104.442 58.0948L104.765 53.1568C104.765 53.0923 104.83 53.0277 104.926 53.0277C104.991 53.0277 105.055 53.0923 105.088 53.1568L105.41 58.0303C105.443 58.4821 105.798 58.8371 106.249 58.8371C106.701 58.8371 107.088 58.4821 107.088 57.998L107.249 53.06L107.088 57.8689C107.056 58.3853 107.508 58.8371 108.024 58.8371C108.508 58.8371 108.895 58.4821 108.959 57.998L109.411 53.0923L109.089 56.7393C109.056 57.1911 109.411 57.6107 109.863 57.6107C110.25 57.6107 110.573 57.3525 110.637 56.9652L111.25 53.8669C111.412 53.06 111.121 52.2209 110.508 51.7045C108.024 49.5421 104.475 49.1225 101.571 50.704L98.8283 51.2526C98.7637 51.2203 98.6992 51.3172 98.6992 51.414Z" fill="#FC9D9D"/>
<g opacity="0.15">
<path opacity="0.15" d="M107.05 53.0664L106.898 57.6142L107.35 57.6294L107.501 53.0812L107.05 53.0664Z" fill="black"/>
</g>
<g opacity="0.15">
<path opacity="0.15" d="M109.147 53.3516L108.842 57.0183L109.292 57.056L109.597 53.389L109.147 53.3516Z" fill="black"/>
</g>
<path opacity="0.2" d="M102.378 52.9965H100.248L101.539 51.77C101.797 51.5118 102.248 51.6732 102.281 52.0605L102.378 52.9965Z" fill="black"/>
<path d="M178.908 142.266H115.443C114.088 142.266 113.023 141.169 113.023 139.846V76.362C113.023 75.0065 114.12 73.9414 115.443 73.9414H178.908C180.264 73.9414 181.328 75.0387 181.328 76.362V139.846C181.328 141.201 180.264 142.266 178.908 142.266Z" fill="#4D61FC"/>
<path opacity="0.5" d="M178.908 142.266H115.443C114.088 142.266 113.023 141.169 113.023 139.846V76.362C113.023 75.0065 114.12 73.9414 115.443 73.9414H178.908C180.264 73.9414 181.328 75.0387 181.328 76.362V139.846C181.328 141.201 180.264 142.266 178.908 142.266Z" fill="white"/>
<path d="M175.746 142.266H112.281C110.926 142.266 109.861 141.169 109.861 139.846V76.362C109.861 75.0065 110.958 73.9414 112.281 73.9414H175.746C177.102 73.9414 178.166 75.0387 178.166 76.362V139.846C178.199 141.201 177.102 142.266 175.746 142.266Z" fill="white"/>
<path d="M158.968 120.676H129.091C128.026 120.676 127.188 119.804 127.188 118.771C127.188 117.706 128.059 116.867 129.091 116.867H158.968C160.033 116.867 160.872 117.739 160.872 118.771C160.872 119.836 160.033 120.676 158.968 120.676Z" fill="#61656D"/>
<path d="M166.746 128.13H121.317C120.768 128.13 120.316 127.678 120.316 127.129C120.316 126.581 120.768 126.129 121.317 126.129H166.746C167.294 126.129 167.746 126.581 167.746 127.129C167.778 127.678 167.294 128.13 166.746 128.13Z" fill="#B2B6BB"/>
<path d="M157.582 134.325H130.512C129.963 134.325 129.512 133.873 129.512 133.324C129.512 132.776 129.963 132.324 130.512 132.324H157.582C158.131 132.324 158.582 132.776 158.582 133.324C158.582 133.873 158.131 134.325 157.582 134.325Z" fill="#B2B6BB"/>
<path d="M146.612 81.8789H144.031V82.1371C138.03 83.3313 133.48 88.6565 133.48 95.0146C133.48 101.373 137.998 106.698 144.031 107.892V108.15H146.612C153.872 108.15 159.744 102.276 159.744 95.0146C159.744 87.7529 153.872 81.8789 146.612 81.8789Z" fill="#4D61FC"/>
<path d="M144.03 108.119C151.283 108.119 157.162 102.238 157.162 94.9834C157.162 87.7287 151.283 81.8477 144.03 81.8477C136.778 81.8477 130.898 87.7287 130.898 94.9834C130.898 102.238 136.778 108.119 144.03 108.119Z" fill="#4D61FC"/>
<path opacity="0.4" d="M144.03 108.119C151.283 108.119 157.162 102.238 157.162 94.9834C157.162 87.7287 151.283 81.8477 144.03 81.8477C136.778 81.8477 130.898 87.7287 130.898 94.9834C130.898 102.238 136.778 108.119 144.03 108.119Z" fill="white"/>
<path d="M141.578 100.471L137.158 96.0495C136.932 95.8236 136.932 95.4363 137.158 95.1781L138.319 94.0162C138.545 93.7903 138.932 93.7903 139.19 94.0162L142.03 96.8564L148.87 89.9819C149.096 89.756 149.483 89.756 149.741 89.9819L150.903 91.1438C151.128 91.3697 151.128 91.757 150.903 92.0152L142.449 100.471C142.223 100.729 141.836 100.729 141.578 100.471Z" fill="white"/>
<path d="M264.088 142.266H200.623C199.268 142.266 198.203 141.169 198.203 139.846V76.362C198.203 75.0065 199.3 73.9414 200.623 73.9414H264.088C265.443 73.9414 266.508 75.0387 266.508 76.362V139.846C266.54 141.201 265.443 142.266 264.088 142.266Z" fill="#4D61FC"/>
<path opacity="0.5" d="M264.088 142.266H200.623C199.268 142.266 198.203 141.169 198.203 139.846V76.362C198.203 75.0065 199.3 73.9414 200.623 73.9414H264.088C265.443 73.9414 266.508 75.0387 266.508 76.362V139.846C266.54 141.201 265.443 142.266 264.088 142.266Z" fill="white"/>
<path d="M260.927 142.266H197.494C196.139 142.266 195.074 141.169 195.074 139.846V76.362C195.074 75.0065 196.171 73.9414 197.494 73.9414H260.959C262.314 73.9414 263.379 75.0387 263.379 76.362V139.846C263.379 141.201 262.282 142.266 260.927 142.266Z" fill="white"/>
<path d="M244.148 120.676H214.271C213.206 120.676 212.367 119.804 212.367 118.771C212.367 117.706 213.238 116.867 214.271 116.867H244.148C245.213 116.867 246.052 117.739 246.052 118.771C246.084 119.836 245.213 120.676 244.148 120.676Z" fill="#61656D"/>
<path d="M251.925 128.13H206.496C205.948 128.13 205.496 127.678 205.496 127.129C205.496 126.581 205.948 126.129 206.496 126.129H251.925C252.474 126.129 252.926 126.581 252.926 127.129C252.958 127.678 252.506 128.13 251.925 128.13Z" fill="#B2B6BB"/>
<path d="M242.762 134.325H215.692C215.143 134.325 214.691 133.873 214.691 133.324C214.691 132.776 215.143 132.324 215.692 132.324H242.762C243.31 132.324 243.762 132.776 243.762 133.324C243.762 133.873 243.31 134.325 242.762 134.325Z" fill="#B2B6BB"/>
<path d="M231.792 81.8789H229.211V82.1371C223.21 83.3313 218.66 88.6565 218.66 95.0146C218.66 101.373 223.177 106.698 229.211 107.892V108.15H231.792C239.052 108.15 244.924 102.276 244.924 95.0146C244.924 87.7529 239.052 81.8789 231.792 81.8789Z" fill="#4D61FC"/>
<path d="M242.18 97.0859C243.342 89.9249 238.48 83.1776 231.32 82.0154C224.164 80.8532 217.417 85.7163 216.256 92.8773C215.094 100.038 219.955 106.786 227.113 107.948C234.272 109.11 241.019 104.247 242.18 97.0859Z" fill="#4D61FC"/>
<path opacity="0.4" d="M242.18 97.0859C243.342 89.9249 238.48 83.1776 231.32 82.0154C224.164 80.8532 217.417 85.7163 216.256 92.8773C215.094 100.038 219.955 106.786 227.113 107.948C234.272 109.11 241.019 104.247 242.18 97.0859Z" fill="white"/>
<path d="M226.791 100.471L222.371 96.0495C222.145 95.8236 222.145 95.4363 222.371 95.1781L223.532 94.0162C223.758 93.7903 224.145 93.7903 224.403 94.0162L227.243 96.8564L234.083 89.9819C234.309 89.756 234.696 89.756 234.954 89.9819L236.115 91.1438C236.341 91.3698 236.341 91.757 236.115 92.0152L227.662 100.471C227.404 100.729 227.017 100.729 226.791 100.471Z" fill="white"/>
<path d="M178.908 231.923H115.443C114.088 231.923 113.023 230.825 113.023 229.502V166.018C113.023 164.663 114.12 163.598 115.443 163.598H178.908C180.264 163.598 181.328 164.695 181.328 166.018V229.502C181.328 230.825 180.264 231.923 178.908 231.923Z" fill="#4D61FC"/>
<path opacity="0.5" d="M178.908 231.923H115.443C114.088 231.923 113.023 230.825 113.023 229.502V166.018C113.023 164.663 114.12 163.598 115.443 163.598H178.908C180.264 163.598 181.328 164.695 181.328 166.018V229.502C181.328 230.825 180.264 231.923 178.908 231.923Z" fill="white"/>
<path d="M175.746 231.923H112.281C110.926 231.923 109.861 230.825 109.861 229.502V166.018C109.861 164.663 110.958 163.598 112.281 163.598H175.746C177.102 163.598 178.166 164.695 178.166 166.018V229.502C178.199 230.825 177.102 231.923 175.746 231.923Z" fill="white"/>
<path d="M158.968 210.332H129.091C128.026 210.332 127.188 209.46 127.188 208.428C127.188 207.363 128.059 206.523 129.091 206.523H158.968C160.033 206.523 160.872 207.395 160.872 208.428C160.872 209.493 160.033 210.332 158.968 210.332Z" fill="#61656D"/>
<path d="M166.746 217.79H121.317C120.768 217.79 120.316 217.338 120.316 216.79C120.316 216.241 120.768 215.789 121.317 215.789H166.746C167.294 215.789 167.746 216.241 167.746 216.79C167.778 217.338 167.294 217.79 166.746 217.79Z" fill="#B2B6BB"/>
<path d="M157.582 223.985H130.512C129.963 223.985 129.512 223.534 129.512 222.985C129.512 222.436 129.963 221.984 130.512 221.984H157.582C158.131 221.984 158.582 222.436 158.582 222.985C158.582 223.534 158.131 223.985 157.582 223.985Z" fill="#B2B6BB"/>
<path d="M146.612 171.539H144.031V171.797C138.03 172.991 133.48 178.317 133.48 184.675C133.48 191.033 137.998 196.358 144.031 197.552V197.81H146.612C153.872 197.81 159.744 191.937 159.744 184.675C159.744 177.413 153.872 171.539 146.612 171.539Z" fill="#4D61FC"/>
<path d="M144.03 197.779C151.283 197.779 157.162 191.898 157.162 184.643C157.162 177.389 151.283 171.508 144.03 171.508C136.778 171.508 130.898 177.389 130.898 184.643C130.898 191.898 136.778 197.779 144.03 197.779Z" fill="#4D61FC"/>
<path opacity="0.4" d="M144.03 197.779C151.283 197.779 157.162 191.898 157.162 184.643C157.162 177.389 151.283 171.508 144.03 171.508C136.778 171.508 130.898 177.389 130.898 184.643C130.898 191.898 136.778 197.779 144.03 197.779Z" fill="white"/>
<path d="M141.578 190.127L137.158 185.706C136.932 185.48 136.932 185.093 137.158 184.834L138.319 183.672C138.545 183.447 138.932 183.447 139.19 183.672L142.03 186.513L148.87 179.638C149.096 179.412 149.483 179.412 149.741 179.638L150.903 180.8C151.128 181.026 151.128 181.413 150.903 181.671L142.449 190.127C142.223 190.386 141.836 190.386 141.578 190.127Z" fill="white"/>
<path d="M264.088 231.923H200.623C199.268 231.923 198.203 230.825 198.203 229.502V166.018C198.203 164.663 199.3 163.598 200.623 163.598H264.088C265.443 163.598 266.508 164.695 266.508 166.018V229.502C266.54 230.825 265.443 231.923 264.088 231.923Z" fill="#4D61FC"/>
<path opacity="0.5" d="M264.088 231.923H200.623C199.268 231.923 198.203 230.825 198.203 229.502V166.018C198.203 164.663 199.3 163.598 200.623 163.598H264.088C265.443 163.598 266.508 164.695 266.508 166.018V229.502C266.54 230.825 265.443 231.923 264.088 231.923Z" fill="white"/>
<path d="M260.927 231.923H197.494C196.139 231.923 195.074 230.825 195.074 229.502V166.018C195.074 164.663 196.171 163.598 197.494 163.598H260.959C262.314 163.598 263.379 164.695 263.379 166.018V229.502C263.379 230.825 262.282 231.923 260.927 231.923Z" fill="white"/>
<path d="M244.148 210.332H214.271C213.206 210.332 212.367 209.46 212.367 208.428C212.367 207.363 213.238 206.523 214.271 206.523H244.148C245.213 206.523 246.052 207.395 246.052 208.428C246.084 209.493 245.213 210.332 244.148 210.332Z" fill="#61656D"/>
<path d="M251.925 217.79H206.496C205.948 217.79 205.496 217.338 205.496 216.79C205.496 216.241 205.948 215.789 206.496 215.789H251.925C252.474 215.789 252.926 216.241 252.926 216.79C252.958 217.338 252.506 217.79 251.925 217.79Z" fill="#B2B6BB"/>
<path d="M242.762 223.985H215.692C215.143 223.985 214.691 223.534 214.691 222.985C214.691 222.436 215.143 221.984 215.692 221.984H242.762C243.31 221.984 243.762 222.436 243.762 222.985C243.762 223.534 243.31 223.985 242.762 223.985Z" fill="#B2B6BB"/>
<path d="M231.792 171.539H229.211V171.797C223.21 172.991 218.66 178.317 218.66 184.675C218.66 191.033 223.177 196.358 229.211 197.552V197.81H231.792C239.052 197.81 244.924 191.937 244.924 184.675C244.924 177.413 239.052 171.539 231.792 171.539Z" fill="#4D61FC"/>
<path d="M242.181 186.746C243.343 179.585 238.484 172.838 231.324 171.676C224.165 170.513 217.419 175.376 216.258 182.537C215.096 189.699 219.957 196.446 227.117 197.608C234.277 198.77 241.02 193.907 242.181 186.746Z" fill="#4D61FC"/>
<path opacity="0.4" d="M242.181 186.746C243.343 179.585 238.484 172.838 231.324 171.676C224.165 170.513 217.419 175.376 216.258 182.537C215.096 189.699 219.957 196.446 227.117 197.608C234.277 198.77 241.02 193.907 242.181 186.746Z" fill="white"/>
<path d="M226.791 190.127L222.371 185.706C222.145 185.48 222.145 185.093 222.371 184.834L223.532 183.672C223.758 183.447 224.145 183.447 224.403 183.672L227.243 186.513L234.083 179.638C234.309 179.412 234.696 179.412 234.954 179.638L236.115 180.8C236.341 181.026 236.341 181.413 236.115 181.671L227.662 190.127C227.404 190.386 227.017 190.386 226.791 190.127Z" fill="white"/>
<path d="M217.079 244.609C214.692 244.609 212.756 246.545 212.756 248.934C212.756 249.45 213.175 249.87 213.692 249.87H220.629C221.403 249.87 222.113 249.418 222.435 248.675L231.47 228.407L221.338 216.691C221.5 217.24 217.079 244.609 217.079 244.609Z" fill="#3F4249"/>
<path d="M267.122 227.922H249.957L256.862 234.538C257.862 235.506 258.314 236.894 258.056 238.282L256.829 244.608C254.539 244.608 252.7 246.447 252.7 248.739V248.933C252.7 249.449 253.119 249.868 253.635 249.868H259.927C260.669 249.868 261.379 249.449 261.701 248.771L267.606 236.797C268.38 235.216 268.574 233.376 268.122 231.666L267.122 227.922Z" fill="#3F4249"/>
<path d="M276.446 214.366C280.06 213.268 286.771 209.395 289.868 205.426C290.094 205.103 290.094 204.683 289.868 204.361C289.61 204.038 289.158 203.973 288.803 204.167C261.572 219.53 233.63 201.327 233.63 201.327C233.243 199.164 231.92 197.325 230.017 196.227C226.209 194.065 221.531 194.065 217.691 196.195C216.368 196.937 214.788 197.099 213.336 196.582L209.077 195.066C208.335 194.807 207.528 195.291 207.463 196.098L207.334 197.357C206.915 201.101 208.238 204.845 210.883 207.523L229.145 226.049C231.21 228.147 232.146 231.084 231.727 233.989L230.113 244.639C227.726 244.639 225.79 246.576 225.79 248.964C225.79 249.48 226.209 249.9 226.726 249.9H233.662C234.437 249.9 235.147 249.448 235.469 248.706L244.665 227.953H262.895L269.799 234.569C270.799 235.538 271.251 236.926 270.993 238.313L269.767 244.639C267.476 244.639 265.637 246.479 265.637 248.77C265.637 249.416 266.153 249.9 266.766 249.9H272.832C273.574 249.9 274.284 249.48 274.607 248.802L280.511 236.829C281.286 235.247 281.479 233.408 281.027 231.697L276.446 214.366Z" fill="#868A91"/>
<path d="M221.622 199C222.113 198.508 222.236 197.833 221.896 197.493C221.556 197.153 220.882 197.276 220.39 197.767C219.899 198.259 219.776 198.933 220.116 199.273C220.457 199.614 221.131 199.491 221.622 199Z" fill="#3F4249"/>
<path d="M272.381 223.339C272.381 227.018 275.349 229.987 279.027 229.987C279.511 229.987 279.995 229.923 280.479 229.826L277.156 216.98C274.381 217.755 272.381 220.305 272.381 223.339Z" fill="#3F4249"/>
<path d="M243.407 230.601L242.213 230.117C240.6 229.472 238.793 229.859 237.567 231.086C236.567 232.118 236.147 233.571 236.437 234.991L236.663 235.959C236.825 236.734 236.792 237.54 236.534 238.315L236.437 238.573C235.792 240.445 236.147 242.511 237.438 244.06L243.407 230.601Z" fill="#3F4249"/>
<path d="M235.34 202.395L236.501 209.527C237.147 213.529 240.728 216.143 244.342 215.272L247.697 214.465C248.439 214.272 249.246 214.272 249.988 214.401L257.183 215.788C260.7 216.466 264.217 214.723 266.088 211.399L266.669 210.366C252.021 210.786 239.76 204.847 235.34 202.395Z" fill="#3F4249"/>
<path d="M280.898 207.749C281.576 208.266 282.415 208.556 283.351 208.556C285.448 208.556 287.19 206.975 287.416 204.941C285.222 206.071 283.06 207.007 280.898 207.749Z" fill="#3F4249"/>
<path d="M216.562 204.75C215.594 203.427 215.207 201.781 215.401 200.167L215.852 196.875C215.013 197.004 214.142 196.94 213.336 196.649L209.077 195.132C208.335 194.874 207.528 195.358 207.463 196.165L207.334 197.424C206.915 201.168 208.238 204.911 210.883 207.59L216.239 213.012L217.014 211.592C218.175 209.398 218.014 206.751 216.562 204.75Z" fill="#B2B6BB"/>
<path d="M232.759 202.589L236.082 210.948C236.921 212.916 236.114 215.531 234.34 216.693C232.243 218.08 229.403 218.177 226.629 215.498C222.854 211.884 224.435 203.847 226.37 200.781" fill="#3F4249"/>
<path d="M262.798 227.954L259.152 223.984L262.217 230.665L262.798 227.954Z" fill="#3F4249"/>
<path d="M211.658 196.033L209.109 195.13C208.334 194.839 207.495 195.388 207.399 196.195L207.205 198.002C207.528 198.066 207.85 198.131 208.173 198.131C209.689 198.099 211.012 197.26 211.658 196.033Z" fill="#3F4249"/>
<path d="M232.437 201.779L235.922 210.428C236.438 211.687 235.986 213.139 234.825 213.849C233.115 214.914 230.34 215.657 227.339 212.784C224.145 209.718 224.597 203.199 226.662 200.262" fill="#868A91"/>
<path d="M231.726 215.014C230.371 215.014 228.822 214.465 227.209 212.916C225.693 211.464 224.854 209.172 224.821 206.429C224.789 204.008 225.435 201.588 226.499 200.071C226.564 199.974 226.693 199.942 226.79 200.006C226.886 200.071 226.919 200.2 226.854 200.297C224.918 203.008 224.337 209.495 227.499 212.561C230.403 215.337 233.017 214.659 234.727 213.594C235.792 212.916 236.211 211.625 235.727 210.463L232.242 201.814C232.21 201.717 232.242 201.588 232.371 201.523C232.468 201.491 232.597 201.523 232.662 201.652L236.146 210.302C236.727 211.657 236.211 213.206 234.985 213.981C234.082 214.562 232.984 215.014 231.726 215.014Z" fill="#3F4249"/>
<path d="M244.568 227.955C244.568 227.955 248.44 223.372 259.152 223.953L260.959 227.955H244.568Z" fill="#B2B6BB"/>
<path d="M276.188 213.269L276.446 214.399C276.446 214.399 279.188 213.528 281.64 212.043L276.188 213.269Z" fill="#3F4249"/>
<path d="M211.078 202.488C210.207 202.488 209.465 202.23 208.884 201.746C207.045 200.197 207.335 196.808 207.335 196.647C207.335 196.518 207.464 196.453 207.561 196.453C207.69 196.453 207.755 196.582 207.755 196.679C207.755 196.711 207.464 200.003 209.142 201.391C209.949 202.069 211.078 202.198 212.53 201.811C212.659 201.778 212.756 201.843 212.788 201.972C212.82 202.101 212.756 202.198 212.627 202.23C212.11 202.424 211.562 202.488 211.078 202.488Z" fill="#3F4249"/>
</svg>
